<?xml version="1.0" encoding="UTF-8" standalone="no"?><!DOCTYPE svg PUBLIC "-//W3C//DTD SVG 1.1//EN" "http://www.w3.org/Graphics/SVG/1.1/DTD/svg11.dtd"><svg width="100%" height="100%" viewBox="0 0 100 88" version="1.1" xmlns="http://www.w3.org/2000/svg" xmlns:xlink="http://www.w3.org/1999/xlink" xml:space="preserve" style="fill-rule:evenodd;clip-rule:evenodd;stroke-linejoin:round;stroke-miterlimit:1.41421;"><g><path d="M12.847,15.928c-6.171,8.143 -10.044,18.169 -10.746,28.292c-0.14,2.025 -0.153,4.053 -0.032,6.068c0.035,13.464 7.24,21.807 17.305,26.553c2.014,0.949 4.141,1.755 6.348,2.42c3.182,0.876 6.61,1.63 10.192,2.255c3.02,0.521 6.158,1.023 9.359,1.432c3.202,0.409 6.466,0.725 9.737,0.873c18.966,2.449 42.165,-7.726 43.793,-29.297c0.814,-10.174 -2.035,-19.535 -7.326,-28.489c-1.628,-2.85 -4.07,-5.291 -6.105,-7.733c-4.07,-4.07 -8.954,-7.326 -13.787,-10.058c-2.406,-1.27 -4.909,-2.367 -7.483,-3.284c-7.722,-2.752 -16.083,-3.891 -24.33,-3.242c-2.704,0.249 -5.385,0.674 -7.982,1.338c-5.192,1.33 -10.046,3.619 -14.054,7.384c-1.736,1.655 -3.371,3.486 -4.889,5.488Z" style="fill:#fcbf5f;fill-rule:nonzero;"/><path d="M21.768,20.761c0.17,-2.227 0.549,-4.446 1.353,-6.488c0.401,-1.013 0.906,-2.002 1.523,-2.86c0.631,-0.9 1.376,-1.669 2.203,-2.384c0.832,-0.71 1.717,-1.349 2.659,-1.943c0.926,-0.604 1.892,-1.145 2.875,-1.65c1.969,-1.008 4.038,-1.817 6.158,-2.457c2.122,-0.627 4.306,-1.092 6.498,-1.369c2.213,-0.292 4.434,-0.393 6.665,-0.359c4.461,0.072 8.918,0.749 13.277,1.844c0.677,0.169 0.833,-0.297 0.147,-0.515c-4.318,-1.378 -8.819,-2.294 -13.389,-2.521c-1.142,-0.054 -2.287,-0.078 -3.432,-0.041c-0.577,0.007 -1.135,0.049 -1.727,0.078c-0.565,0.049 -1.118,0.082 -1.698,0.155c-2.294,0.247 -4.547,0.705 -6.757,1.353c-2.203,0.66 -4.352,1.516 -6.389,2.597c-1.016,0.542 -2.012,1.125 -2.963,1.777c-0.953,0.632 -1.887,1.343 -2.748,2.129c-0.856,0.786 -1.66,1.687 -2.288,2.665c-0.661,1.006 -1.138,2.071 -1.515,3.175c-0.743,2.21 -0.99,4.52 -1.008,6.792c0,0.767 0.507,0.728 0.556,0.022Z" style="fill:#fcbf5f;fill-rule:nonzero;"/><path d="M82.347,14.344c-2.221,-3.321 -5.731,-5.779 -9.586,-6.791c-0.147,-0.04 -0.351,0.406 -0.218,0.489c3.34,2.052 6.313,4.283 9.396,6.681c0.13,0.1 0.498,-0.248 0.408,-0.379Z" style="fill:#fcbf5f;fill-rule:nonzero;"/><path d="M0.932,36.862c-1.113,3.88 -1.171,8.058 -0.48,12.04c0.687,3.995 2.092,7.82 3.889,11.386c0.137,0.276 0.596,0.101 0.496,-0.201c-1.265,-3.769 -2.324,-7.571 -2.97,-11.43c-0.643,-3.854 -0.871,-7.768 -0.39,-11.685c0.034,-0.328 -0.464,-0.42 -0.545,-0.11Z" style="fill:#fcbf5f;fill-rule:nonzero;"/><path d="M97.036,43.227c0.756,1.501 1.163,3.119 1.356,4.763c0.2,1.645 0.2,3.319 0.153,5.006c-0.056,1.68 -0.132,3.41 -0.211,5.093c-0.095,1.677 -0.281,3.339 -0.907,4.894c-0.099,0.247 0.336,0.477 0.478,0.243c0.931,-1.52 1.367,-3.297 1.616,-5.017c0.235,-1.732 0.393,-3.426 0.461,-5.172c0.057,-1.737 -0.008,-3.51 -0.371,-5.252c-0.352,-1.736 -1.034,-3.443 -2.102,-4.853c-0.175,-0.242 -0.586,0.057 -0.473,0.295Z" style="fill:#fcbf5f;fill-rule:nonzero;"/><path d="M7.553,43.81c1.711,2.476 3.425,4.948 5.135,7.424l-0.068,0.097c1.351,0.467 2.683,0.988 3.988,1.563c0.505,-1.171 1.006,-2.342 1.499,-3.52l0.034,-0.069c-3.581,-1.742 -7.108,-3.571 -10.588,-5.495Z" style="fill:#bfbc62;fill-rule:nonzero;"/><path d="M24.544,51.675c-0.091,0.406 -0.177,0.811 -0.335,1.195c0.714,1.463 1.416,2.935 2.099,4.413c0.263,-0.235 0.544,-0.447 0.855,-0.617c0.485,-0.261 1.023,-0.404 1.558,-0.535l0.012,-0.001c-0.89,-3.736 -1.789,-7.463 -2.683,-11.194c-0.501,2.246 -1.001,4.493 -1.506,6.739Z" style="fill:#bfbc62;fill-rule:nonzero;"/><path d="M2.777,70.477c-0.094,0.95 0.13,1.975 0.796,2.661c0.556,0.575 1.344,0.844 2.101,1.096c1.552,0.516 3.105,1.037 4.657,1.549c-0.141,-1.953 0.084,-3.93 0.658,-5.799c-0.7,-0.221 -1.383,-0.509 -2.031,-0.853c2.718,-5.33 5.271,-10.75 7.65,-16.237c-1.305,-0.575 -2.637,-1.096 -3.988,-1.563c-3.523,5.164 -6.547,10.667 -9.007,16.413c-0.378,0.88 -0.743,1.779 -0.836,2.733Z" style="fill:#efd8b9;fill-rule:nonzero;"/><path d="M15.36,64.33c-0.308,1.013 -0.222,2.211 0.486,2.995c0.032,0.038 0.073,0.075 0.113,0.108c1.429,0.185 2.86,0.382 4.284,0.596c0.236,-1.246 0.657,-2.482 1.324,-3.547c-0.499,-0.126 -0.964,-0.403 -1.309,-0.786c1.742,-1.862 3.479,-3.72 5.221,-5.578c0.266,-0.284 0.536,-0.573 0.829,-0.835c-0.683,-1.478 -1.385,-2.95 -2.099,-4.413c-0.027,0.064 -0.054,0.124 -0.084,0.188c-0.336,0.692 -0.907,1.24 -1.454,1.785c-2.092,2.085 -3.939,4.404 -5.721,6.761c-0.64,0.845 -1.285,1.715 -1.59,2.726Z" style="fill:#efd8b9;fill-rule:nonzero;"/><path d="M10.989,69.984c-0.574,1.869 -0.799,3.846 -0.658,5.799c0.054,0.793 0.169,1.583 0.349,2.359c6.874,1.844 13.877,3.209 20.937,4.078c-1.168,-2.416 -1.57,-5.218 -1.239,-7.893c0.383,-3.069 1.677,-5.975 3.497,-8.487c-3.735,-0.574 -7.405,-1.583 -10.911,-2.989c-0.555,0.464 -1.016,1.017 -1.397,1.631c-0.667,1.065 -1.088,2.301 -1.324,3.547c-1.424,-0.214 -2.855,-0.411 -4.284,-0.596c-1.231,-0.16 -2.465,-0.312 -3.701,-0.451c-0.032,0.053 -0.063,0.109 -0.086,0.164c-0.491,0.904 -0.888,1.855 -1.183,2.838Z" style="fill:#3a4d57;fill-rule:nonzero;"/><path d="M81.826,75.012c0.018,-0.1 -0.028,-0.198 -0.074,-0.292c-0.532,-1.067 -1.06,-2.14 -1.591,-3.208c-0.643,0.163 -1.292,0.292 -1.95,0.382c-1.219,1.888 -2.789,3.541 -4.604,4.867c1.008,1.499 2.016,3.002 3.028,4.501c0.417,-0.495 0.834,-0.995 1.251,-1.49c1.133,-1.352 2.267,-2.705 3.4,-4.057c0.139,-0.164 0.282,-0.334 0.421,-0.499c0.051,-0.063 0.102,-0.125 0.119,-0.204Z" style="fill:#9cbfa0;fill-rule:nonzero;"/><path d="M53.342,65.373c-0.128,0.409 -0.211,0.839 -0.247,1.263c-0.105,1.328 0.19,2.653 0.527,3.94c0.851,3.253 1.98,6.429 3.376,9.488c0.768,-0.587 1.564,-1.141 2.38,-1.655c1.87,-1.184 3.861,-2.176 5.935,-2.954c0.24,-0.094 0.482,-0.179 0.727,-0.264l-0.03,-0.092c-0.501,-2.285 -1.267,-4.512 -2.266,-6.629c-0.145,-0.305 -0.294,-0.605 -0.446,-0.901c-0.823,-1.611 -1.839,-3.2 -3.349,-4.19c-0.341,-0.224 -0.715,-0.408 -1.105,-0.549c-0.357,-0.133 -0.727,-0.227 -1.1,-0.279c-1.024,-0.14 -2.066,0.037 -2.898,0.635c-0.733,0.527 -1.227,1.317 -1.504,2.187Z" style="fill:#9cbfa0;fill-rule:nonzero;"/><path d="M73.607,76.761c1.815,-1.326 3.385,-2.979 4.604,-4.867c-1.314,0.193 -2.655,0.244 -3.989,0.151c0.071,0.914 -0.532,1.845 -0.898,2.658c-0.467,1.053 -0.915,2.108 -1.404,3.15c0.585,-0.332 1.145,-0.699 1.687,-1.092Z" style="fill:#bfbc62;fill-rule:nonzero;"/><path d="M63.744,68.47c0.999,2.117 1.765,4.344 2.266,6.629l0.03,0.092c-0.245,0.085 -0.487,0.17 -0.727,0.264c0.43,0.869 0.86,1.738 1.286,2.608c0.498,-0.998 1,-1.993 1.498,-2.991c0.122,-0.254 0.254,-0.533 0.186,-0.804c-0.1,-0.395 -0.547,-0.571 -0.899,-0.778c-1.02,-0.594 -1.521,-1.767 -1.957,-2.86c-0.141,-0.351 -0.28,-0.713 -0.247,-1.084c0.009,-0.075 0.025,-0.154 0.055,-0.227c-0.494,-0.278 -0.973,-0.57 -1.441,-0.883l-0.05,0.034Z" style="fill:#bfbc62;fill-rule:nonzero;"/><path d="M31.617,82.22c0.315,0.656 0.688,1.281 1.114,1.869c8.173,1.367 16.547,0.968 24.797,0.144c1.247,-0.124 2.513,-0.266 3.679,-0.713c-0.751,-1.631 -1.298,-3.389 -1.829,-5.111c-0.816,0.514 -1.612,1.068 -2.38,1.655c-1.396,-3.059 -2.525,-6.235 -3.376,-9.488c-0.337,-1.287 -0.632,-2.612 -0.527,-3.94c0.036,-0.424 0.119,-0.854 0.247,-1.263c-6.122,0.915 -12.425,0.625 -18.437,-0.85c-0.363,0.424 -0.708,0.863 -1.03,1.317c-1.82,2.512 -3.114,5.418 -3.497,8.487c-0.331,2.675 0.071,5.477 1.239,7.893Z" style="fill:#bfbc62;fill-rule:nonzero;"/><path d="M82.064,76.869c-0.259,-0.383 -0.523,-0.77 -0.778,-1.154c-1.133,1.352 -2.267,2.705 -3.4,4.057c0.938,1.502 1.881,3.003 2.82,4.504c0.272,0.435 0.589,0.903 1.088,1.029c0.747,0.188 1.422,-0.501 1.814,-1.166c1.588,-2.71 1.595,-6.056 2.748,-8.976c1.102,-2.785 3.184,-5.045 4.798,-7.569c0.435,-0.682 0.842,-1.401 0.992,-2.198c0.137,-0.757 0.004,-1.603 -0.499,-2.179c-1.84,2.846 -4.422,5.258 -7.762,6.919c-0.374,0.184 -0.754,0.357 -1.138,0.518c-0.102,0.624 0.277,1.265 0.373,1.91c0.099,0.661 -0.105,1.323 -0.308,1.957c-0.25,0.786 -0.499,1.567 -0.748,2.348Z" style="fill:#e9ca9f;fill-rule:nonzero;"/><path d="M61.211,83.519c0.585,1.271 1.296,2.464 2.227,3.513c0.3,0.342 0.652,0.684 1.099,0.778c0.865,0.184 1.61,-0.594 2.141,-1.3c1.804,-2.425 3.397,-4.997 4.77,-7.69c0.16,-0.318 0.32,-0.641 0.472,-0.967c0.489,-1.042 0.937,-2.097 1.404,-3.15c0.366,-0.813 0.969,-1.744 0.898,-2.658c-0.026,-0.304 -0.122,-0.605 -0.327,-0.9c-0.282,-0.409 -0.728,-0.663 -1.133,-0.95c-1.18,-0.84 -2.076,-2.076 -2.507,-3.456c-0.179,-0.568 -0.294,-1.182 -0.659,-1.649c-0.712,-0.906 -2.056,-0.928 -3.206,-0.859c-0.265,0.014 -0.545,0.034 -0.763,0.186c-0.429,0.292 -0.429,0.914 -0.36,1.427c0.13,0.985 0.353,1.961 0.661,2.907l-0.069,0.02c-0.296,0.021 -0.526,0.26 -0.624,0.548c-0.03,0.073 -0.046,0.152 -0.055,0.227c-0.033,0.371 0.106,0.733 0.247,1.084c0.436,1.093 0.937,2.266 1.957,2.86c0.352,0.207 0.799,0.383 0.899,0.778c0.068,0.271 -0.064,0.55 -0.186,0.804c-0.498,0.998 -1,1.993 -1.498,2.991c-0.426,-0.87 -0.856,-1.739 -1.286,-2.608c-2.074,0.778 -4.065,1.77 -5.935,2.954c0.531,1.722 1.078,3.48 1.829,5.111l0.004,-0.001Z" style="fill:#e9ca9f;fill-rule:nonzero;"/><path d="M88.429,57.877c-0.961,0.042 -1.921,0.092 -2.882,0.135c0.149,0.631 0.848,1.044 1.49,0.964c0.614,-0.077 1.142,-0.531 1.392,-1.099Z" style="fill:#d7b58d;fill-rule:nonzero;"/><path d="M89.386,45.196c-0.141,0.48 -0.103,0.988 -0.061,1.487c0.883,-0.456 1.858,-0.725 2.846,-0.79c-0.077,-0.36 -0.19,-0.713 -0.388,-1.021c-0.301,-0.477 -0.868,-0.83 -1.417,-0.714c-0.488,0.106 -0.844,0.559 -0.98,1.038Z" style="fill:#3a4d57;fill-rule:nonzero;"/><path d="M91.379,55.371c0.954,-1.592 1.059,-3.66 0.27,-5.344c-0.198,-0.427 -0.649,-0.893 -1.069,-0.675c-0.253,0.131 -0.336,0.454 -0.377,0.736c-0.218,1.474 -0.119,2.994 0.289,4.426c0.101,0.366 0.238,0.745 0.531,0.986l0.066,0.047l0.29,-0.176Z" style="fill:#3a4d57;fill-rule:nonzero;"/><path d="M78.913,56.45c0.028,-0.297 0.056,-0.59 0.084,-0.884l-0.038,-0.012c0.533,-1.918 0.331,-4.033 -0.558,-5.814c-0.107,-0.218 -0.231,-0.435 -0.432,-0.566c-0.206,-0.131 -0.508,-0.134 -0.662,0.049c-0.368,1.562 -0.452,3.191 -0.253,4.782c0.073,0.561 0.186,1.127 0.483,1.605c0.297,0.481 0.813,0.855 1.376,0.84Z" style="fill:#3a4d57;fill-rule:nonzero;"/><path d="M76.394,44.562c-0.795,0.402 -0.79,1.518 -0.67,2.397c1.04,-0.361 2.137,-0.556 3.238,-0.587c0.162,-0.475 -0.225,-0.992 -0.63,-1.324c-0.548,-0.449 -1.311,-0.802 -1.938,-0.486Z" style="fill:#3a4d57;fill-rule:nonzero;"/><path d="M77.054,54.005c-0.199,-1.591 -0.115,-3.22 0.253,-4.782c0.154,-0.183 0.457,-0.18 0.662,-0.049c0.201,0.131 0.325,0.348 0.432,0.566c0.889,1.781 1.091,3.896 0.558,5.814l0.038,0.012c-0.028,0.294 -0.056,0.587 -0.084,0.884c-0.563,0.015 -1.079,-0.359 -1.376,-0.84c-0.297,-0.478 -0.41,-1.044 -0.483,-1.605Zm-17.024,5.664c-0.326,1.08 -0.72,2.133 -1.186,3.161c0.39,0.141 0.764,0.325 1.105,0.549c1.51,0.99 2.526,2.579 3.349,4.19c0.152,0.296 0.301,0.596 0.446,0.901l0.05,-0.034c0.468,0.313 0.947,0.605 1.441,0.883c0.098,-0.288 0.328,-0.527 0.624,-0.548l0.069,-0.019c-0.308,-0.947 -0.531,-1.923 -0.661,-2.908c-0.069,-0.513 -0.069,-1.135 0.36,-1.427c0.218,-0.152 0.498,-0.172 0.763,-0.186c1.15,-0.069 2.494,-0.047 3.206,0.859c0.365,0.467 0.48,1.081 0.659,1.649c0.431,1.38 1.327,2.616 2.507,3.456c0.405,0.287 0.851,0.541 1.133,0.95c0.205,0.295 0.301,0.596 0.327,0.9c1.334,0.093 2.675,0.042 3.989,-0.151c0.658,-0.09 1.307,-0.219 1.95,-0.382c0.882,-0.222 1.745,-0.508 2.586,-0.858c0.384,-0.161 0.764,-0.334 1.138,-0.518c3.34,-1.661 5.922,-4.073 7.762,-6.919c4.127,-6.373 4.54,-14.938 1.413,-22.161c-0.302,-0.694 -0.636,-1.376 -1.005,-2.043c-7.477,1.471 -15.138,2.004 -22.743,1.578c-0.238,2.338 -0.48,4.681 -0.718,7.02c-0.023,0.219 -0.049,0.451 -0.182,0.627c-0.12,0.16 -0.307,0.248 -0.487,0.331c-0.791,0.361 -1.58,0.726 -2.366,1.086c0.282,2.876 0.093,5.798 -0.555,8.612c-0.571,-2.484 -1.505,-4.886 -2.76,-7.104c-0.819,-0.054 -1.651,-0.074 -2.44,0.14c-0.904,0.249 -1.766,0.87 -2.032,1.773c-0.17,0.556 -0.098,1.15 -0.009,1.726c0.164,1.072 0.39,2.149 0.871,3.124c0.337,0.67 0.807,1.29 1.396,1.743Zm18.932,-13.297c-1.101,0.031 -2.198,0.226 -3.238,0.588c-0.12,-0.88 -0.125,-1.996 0.67,-2.398c0.627,-0.316 1.39,0.037 1.938,0.486c0.405,0.332 0.792,0.849 0.63,1.324Zm13.209,-0.479c-0.988,0.066 -1.963,0.334 -2.846,0.79c-0.042,-0.499 -0.08,-1.007 0.061,-1.487c0.136,-0.479 0.492,-0.932 0.98,-1.038c0.549,-0.116 1.116,0.237 1.417,0.714c0.198,0.308 0.311,0.661 0.388,1.021Zm-0.522,4.134c0.789,1.684 0.684,3.751 -0.27,5.344l-0.29,0.176l-0.066,-0.047c-0.294,-0.241 -0.43,-0.62 -0.531,-0.986c-0.408,-1.432 -0.507,-2.952 -0.289,-4.426c0.041,-0.282 0.124,-0.605 0.377,-0.736c0.42,-0.218 0.871,0.248 1.069,0.675Zm-3.22,7.849c-0.25,0.569 -0.778,1.023 -1.392,1.1c-0.642,0.08 -1.341,-0.333 -1.49,-0.964c0.961,-0.043 1.921,-0.093 2.882,-0.136Z" style="fill:#efd8b9;fill-rule:nonzero;"/><path d="M57.744,62.551c0.373,0.052 0.743,0.146 1.1,0.279c0.466,-1.028 0.86,-2.081 1.186,-3.161c-0.589,-0.453 -1.059,-1.073 -1.396,-1.743c-0.481,-0.975 -0.707,-2.052 -0.871,-3.124c-0.09,-0.576 -0.161,-1.17 0.009,-1.726c0.266,-0.903 1.128,-1.524 2.032,-1.773c0.789,-0.214 1.621,-0.194 2.44,-0.14c1.255,2.218 2.189,4.62 2.759,7.104c0.649,-2.814 0.838,-5.736 0.556,-8.612c0.786,-0.36 1.575,-0.725 2.366,-1.086c0.18,-0.083 0.367,-0.171 0.487,-0.331c0.133,-0.176 0.159,-0.408 0.182,-0.627c0.238,-2.339 0.48,-4.682 0.718,-7.02c7.605,0.426 15.266,-0.107 22.743,-1.579c0.369,0.668 0.703,1.35 1.005,2.044c1.766,-4.941 2.845,-10.508 0.768,-15.312c-0.268,1.377 -0.728,2.719 -1.364,3.968c-4.253,-4.685 -9.968,-8.031 -16.141,-9.438c1.327,1.459 2.444,3.111 3.304,4.886c-3.032,-0.999 -6.221,-1.517 -9.417,-1.534c0.612,1.342 1.416,2.595 2.385,3.709c-3.005,-0.646 -6.077,-0.95 -9.149,-0.902c0.852,1.036 1.552,2.194 2.076,3.43c-6.543,2.037 -13.219,5.236 -16.745,11.112c-0.365,0.605 -0.701,1.26 -0.728,1.971c-0.026,0.567 0.148,1.122 0.325,1.661c2.124,6.402 5.307,12.454 9.387,17.828l-0.017,0.116Z" style="fill:#3a4d57;fill-rule:nonzero;"/><path d="M84.406,22.417c1.826,1.397 3.418,3.062 4.715,4.939c0.644,0.94 1.238,1.919 1.732,2.953c0.494,1.035 0.911,2.103 1.208,3.222c0.049,0.172 0.149,0.153 0.111,-0.027c-0.224,-1.132 -0.547,-2.265 -0.987,-3.343c-0.442,-1.08 -0.978,-2.129 -1.636,-3.099c-1.314,-1.938 -3.029,-3.619 -5.027,-4.816c-0.168,-0.1 -0.256,0.054 -0.116,0.171Z" style="fill:#3a4d57;fill-rule:nonzero;"/><path d="M63.739,59.716c-0.505,0.366 -1.141,0.506 -1.748,0.458c-0.611,-0.039 -1.184,-0.282 -1.67,-0.65c-0.983,-0.743 -1.565,-1.906 -1.886,-3.123c-0.167,-0.612 -0.281,-1.248 -0.383,-1.886c-0.1,-0.62 -0.121,-1.24 0.152,-1.732c0.267,-0.509 0.764,-0.912 1.325,-1.16c0.564,-0.248 1.21,-0.343 1.854,-0.374c0.201,-0.008 0.213,-0.241 0.002,-0.255c-0.663,-0.035 -1.351,-0.005 -2.014,0.225c-0.653,0.23 -1.276,0.648 -1.662,1.287c-0.405,0.66 -0.386,1.439 -0.301,2.099c0.085,0.66 0.192,1.321 0.368,1.976c0.337,1.3 1.021,2.625 2.205,3.423c1.142,0.818 2.874,0.874 3.926,-0.083c0.171,-0.165 -0.015,-0.322 -0.168,-0.205Z" style="fill:#d7b58d;fill-rule:nonzero;"/><path d="M76.053,60.86c1.986,1.525 4.528,2.264 7.029,2.34c2.517,0.078 4.992,-0.471 7.313,-1.292c0.179,-0.063 0.12,-0.289 -0.07,-0.245c-2.387,0.56 -4.811,0.938 -7.223,0.855c-2.399,-0.089 -4.804,-0.64 -6.9,-1.877c-0.176,-0.102 -0.307,0.1 -0.149,0.219Z" style="fill:#d7b58d;fill-rule:nonzero;"/><path d="M83.216,65.142c1.156,0.34 2.374,0.284 3.503,-0.129c0.043,-0.016 0.019,-0.248 -0.028,-0.254c-1.18,-0.125 -2.3,-0.132 -3.465,0.118c-0.049,0.011 -0.056,0.251 -0.01,0.265Z" style="fill:#d7b58d;fill-rule:nonzero;"/><clipPath id="_clip1"><path d="M87.933,56.538c0.08,0 0.217,-0.075 0.202,-0.132c-0.132,-0.464 -0.221,-0.918 -0.333,-1.371l-0.3,-1.349c-0.096,-0.447 -0.201,-0.892 -0.31,-1.34c-0.099,-0.448 -0.247,-0.895 -0.382,-1.355c-0.01,-0.033 -0.074,-0.049 -0.144,-0.049c-0.088,0 -0.185,0.025 -0.193,0.068c-0.081,0.482 -0.135,0.975 -0.096,1.461c0.028,0.486 0.105,0.97 0.235,1.439c0.129,0.47 0.304,0.927 0.516,1.365c0.207,0.437 0.481,0.856 0.757,1.245c0.009,0.013 0.027,0.018 0.048,0.018Z"/></clipPath><g clip-path="url(#_clip1)"><rect x="86.338" y="50.942" width="1.811" height="5.596" style="fill:#fcecd5;fill-rule:nonzero;"/></g><path d="M60.573,53.837c0.456,-0.051 0.905,0.09 1.202,0.37c0.298,0.267 0.418,0.679 0.376,1.073c-0.011,0.097 -0.031,0.194 -0.062,0.285c-0.03,0.096 -0.055,0.165 -0.113,0.267c-0.054,0.093 -0.134,0.202 -0.207,0.34c-0.072,0.133 -0.15,0.328 -0.112,0.545c0.04,0.218 0.162,0.341 0.236,0.434c0.084,0.101 0.172,0.202 0.272,0.298c0.195,0.187 0.453,0.363 0.752,0.372c0.08,-0.003 0.102,-0.159 0.023,-0.183c-0.207,-0.067 -0.363,-0.24 -0.491,-0.432c-0.065,-0.097 -0.124,-0.201 -0.183,-0.309c-0.065,-0.114 -0.103,-0.203 -0.09,-0.243c0.001,-0.075 0.143,-0.23 0.332,-0.446c0.086,-0.106 0.179,-0.262 0.239,-0.402c0.056,-0.146 0.091,-0.298 0.109,-0.451c0.073,-0.608 -0.188,-1.27 -0.7,-1.631c-0.497,-0.351 -1.162,-0.432 -1.674,-0.166c-0.088,0.045 0.021,0.287 0.091,0.279Z" style="fill:#d7b58d;fill-rule:nonzero;"/><path d="M12.481,67.06c2.612,0.43 5.231,0.832 7.86,1.154c1.318,0.163 2.623,0.312 3.956,0.438c0.174,0.013 0.359,0.018 0.55,-0.01c0.202,-0.027 0.382,-0.098 0.545,-0.187c0.317,-0.181 0.568,-0.366 0.851,-0.548c0.551,-0.369 1.108,-0.727 1.65,-1.109c0.16,-0.131 0.098,-0.246 -0.098,-0.163c-0.591,0.302 -1.167,0.629 -1.75,0.945c-0.287,0.152 -0.589,0.333 -0.859,0.459c-0.266,0.125 -0.523,0.127 -0.841,0.09c-1.298,-0.185 -2.62,-0.365 -3.931,-0.523c-2.628,-0.325 -5.266,-0.571 -7.904,-0.783c-0.222,-0.018 -0.237,0.203 -0.029,0.237Z" style="fill:#4f6b77;fill-rule:nonzero;"/><path d="M77.027,20.759c1.567,0.732 3.073,1.578 4.494,2.55c1.422,0.97 2.763,2.058 4.004,3.25c1.241,1.193 2.38,2.495 3.399,3.887c1.025,1.393 1.919,2.873 2.661,4.446c0.119,0.24 0.226,0.2 0.116,-0.054c-0.664,-1.603 -1.494,-3.16 -2.461,-4.615c-0.973,-1.455 -2.095,-2.815 -3.34,-4.051c-1.246,-1.235 -2.618,-2.345 -4.091,-3.298c-1.473,-0.95 -3.043,-1.753 -4.687,-2.345c-0.285,-0.078 -0.331,0.085 -0.095,0.23Z" style="fill:#4f6b77;fill-rule:nonzero;"/><path d="M83.712,23.068c1.03,0.672 2.042,1.364 3.021,2.099c0.978,0.733 1.942,1.5 2.856,2.301c0.914,0.803 1.763,1.672 2.456,2.656c0.347,0.493 0.631,1.022 0.864,1.578c0.229,0.552 0.421,1.155 0.24,1.73c-0.035,0.189 -0.036,0.202 0.094,0.042c0.283,-0.6 0.139,-1.29 -0.042,-1.873c-0.18,-0.605 -0.454,-1.183 -0.781,-1.722c-0.654,-1.084 -1.535,-2.002 -2.462,-2.831c-0.937,-0.826 -1.919,-1.575 -2.946,-2.274c-1.026,-0.695 -2.091,-1.332 -3.195,-1.888c-0.185,-0.094 -0.268,0.076 -0.105,0.182Z" style="fill:#4f6b77;fill-rule:nonzero;"/><path d="M70.809,23.808c1.625,0.17 3.24,0.406 4.843,0.704c1.598,0.305 3.212,0.607 4.57,1.412c1.363,0.804 2.422,2.062 3.462,3.315c1.032,1.258 2.11,2.516 2.617,4.07c0.074,0.243 0.189,0.219 0.123,-0.034c-0.415,-1.622 -1.438,-2.994 -2.412,-4.297c-0.975,-1.307 -2.031,-2.649 -3.499,-3.543c-1.475,-0.897 -3.17,-1.17 -4.779,-1.421c-1.628,-0.242 -3.269,-0.39 -4.91,-0.434c-0.276,0.004 -0.272,0.19 -0.015,0.228Z" style="fill:#4f6b77;fill-rule:nonzero;"/><path d="M63.53,26.66c1.748,0.249 3.5,0.467 5.254,0.675c1.748,0.207 3.502,0.398 5.077,1.076c1.573,0.682 2.952,1.792 4.303,2.91c1.329,1.128 2.6,2.38 3.344,3.978c0.12,0.246 0.208,0.218 0.116,-0.048c-0.626,-1.687 -1.873,-3.062 -3.169,-4.263c-1.306,-1.189 -2.684,-2.375 -4.362,-3.116c-1.685,-0.74 -3.508,-0.904 -5.257,-1.059c-1.758,-0.155 -3.518,-0.3 -5.28,-0.411c-0.295,-0.02 -0.303,0.219 -0.026,0.258Z" style="fill:#4f6b77;fill-rule:nonzero;"/><path d="M78.153,50.559c-0.086,0.042 -0.075,0.075 0.013,0.099l0.075,-0.007c0.072,-0.041 0.087,-0.075 -0.006,-0.1l-0.082,0.008Z" style="fill:#4f6b77;fill-rule:nonzero;"/><path d="M78.642,52.112c0.004,-0.357 -0.064,-0.702 -0.18,-1.03c-0.059,-0.165 -0.128,-0.325 -0.208,-0.481c-0.079,-0.156 -0.167,-0.309 -0.286,-0.447l-0.056,0.022c0.008,0.183 0.044,0.35 0.079,0.519c0.037,0.167 0.076,0.334 0.121,0.498c0.089,0.328 0.201,0.647 0.368,0.958l0.162,-0.039Z" style="fill:#4f6b77;fill-rule:nonzero;"/><path d="M91.72,51.749c0.088,-0.323 0.077,-0.66 -0.022,-0.97c-0.049,-0.154 -0.113,-0.307 -0.198,-0.448c-0.046,-0.072 -0.121,-0.184 -0.246,-0.214c-0.09,-0.027 -0.141,0.032 -0.181,0.06c-0.036,0.036 -0.072,0.086 -0.054,0.148l0.056,-0.017l0.052,-0.041l0.042,0.034c0.023,0.032 0.026,0.073 0.035,0.144c0.027,0.148 0.053,0.295 0.08,0.443c0.054,0.293 0.136,0.574 0.263,0.871l0.173,-0.01Z" style="fill:#4f6b77;fill-rule:nonzero;"/><path d="M84.5,21.282c2.363,1.11 4.396,2.825 5.928,4.911c0.764,1.045 1.401,2.182 1.897,3.383c0.491,1.207 0.821,2.469 0.993,3.777c0.022,0.202 0.071,0.203 0.052,-0.005c-0.018,-1.315 -0.281,-2.644 -0.717,-3.897c-0.431,-1.261 -1.055,-2.458 -1.831,-3.545c-0.778,-1.087 -1.709,-2.066 -2.763,-2.887c-1.051,-0.825 -2.233,-1.479 -3.48,-1.928c-0.208,-0.08 -0.263,0.098 -0.079,0.191Z" style="fill:#3a4d57;fill-rule:nonzero;"/><path d="M95.91,31.401c-0.197,1.268 -0.388,2.519 -0.813,3.682c-0.213,0.577 -0.493,1.132 -0.853,1.634c-0.356,0.503 -0.797,0.956 -1.335,1.291c-0.084,0.053 -0.02,0.178 0.073,0.136c0.599,-0.261 1.143,-0.672 1.585,-1.169c0.441,-0.503 0.785,-1.079 1.034,-1.705c0.243,-0.61 0.396,-1.265 0.469,-1.913c0.078,-0.65 0.084,-1.3 0.055,-1.944c-0.005,-0.109 -0.2,-0.112 -0.215,-0.012Z" style="fill:#3a4d57;fill-rule:nonzero;"/><path d="M62.333,27.788c1.011,0.323 1.876,0.947 2.644,1.667c0.768,0.726 1.461,1.538 2.187,2.34c0.718,0.804 1.468,1.591 2.2,2.374c0.714,0.783 1.413,1.621 1.669,2.663c0.04,0.162 0.165,0.143 0.139,-0.028c-0.17,-1.102 -0.81,-2.068 -1.485,-2.912c-0.685,-0.846 -1.377,-1.668 -2.085,-2.485c-0.705,-0.813 -1.423,-1.644 -2.274,-2.351c-0.843,-0.705 -1.84,-1.299 -2.938,-1.496c-0.183,-0.036 -0.214,0.175 -0.057,0.228Z" style="fill:#3a4d57;fill-rule:nonzero;"/></g></svg>