<?xml version="1.0" encoding="UTF-8" standalone="no"?><!DOCTYPE svg PUBLIC "-//W3C//DTD SVG 1.1//EN" "http://www.w3.org/Graphics/SVG/1.1/DTD/svg11.dtd"><svg width="100%" height="100%" viewBox="0 0 100 123" version="1.1" xmlns="http://www.w3.org/2000/svg" xmlns:xlink="http://www.w3.org/1999/xlink" xml:space="preserve" style="fill-rule:evenodd;clip-rule:evenodd;stroke-linejoin:round;stroke-miterlimit:1.41421;"><g><path d="M88.134,28.716c1.831,2.085 3.407,4.307 4.739,6.633c1.333,2.328 2.422,4.759 3.28,7.263c7.974,22.005 -1.042,48.896 -21.442,60.723c-9.273,5.998 -19.441,8.177 -30.336,8.109c-3.426,-0.004 -6.457,-0.906 -9.469,-1.287c-1.859,-0.417 -3.704,-0.964 -5.522,-1.651c-11.115,-4.449 -16.606,-15.855 -22.094,-25.534c-1.285,-2.509 -2.465,-5.088 -3.468,-7.721c-4.008,-10.529 -5.134,-21.936 -2.077,-32.271c1.129,-2.618 2.626,-5.174 4.471,-7.621c2.137,-2.918 3.657,-5.893 6.66,-7.795c2.103,-1.933 4.379,-3.68 6.79,-5.235c16.883,-10.883 40.436,-12.378 58.117,-3.119c1.796,0.788 3.198,2.474 4.596,3.621c2.042,1.773 3.969,3.736 5.755,5.885Z" style="fill:#9cbfa0;fill-rule:nonzero;"/><path d="M83.416,23.898c2.8,1.667 5.216,3.94 7.333,6.401c1.062,1.231 2.058,2.516 3.011,3.821c0.951,1.302 1.89,2.634 2.722,4.057c0.837,1.418 1.533,2.952 2.037,4.526c0.51,1.575 0.852,3.19 1.078,4.808c0.451,3.242 0.434,6.484 0.368,9.694c-0.011,0.497 -0.54,0.528 -0.577,0.017c-0.239,-3.203 -0.464,-6.402 -1.06,-9.506c-0.589,-3.106 -1.57,-6.087 -3.185,-8.76c-0.794,-1.349 -1.694,-2.655 -2.609,-3.967c-0.911,-1.309 -1.84,-2.597 -2.816,-3.847c-1.948,-2.497 -4.092,-4.846 -6.636,-6.745c-0.423,-0.32 -0.109,-0.766 0.334,-0.499Z" style="fill:#9cbfa0;fill-rule:nonzero;"/><path d="M6.878,45.315c-2.297,4.207 -3.586,8.887 -4.037,13.615c-0.451,4.737 -0.092,9.533 0.938,14.176c1.036,4.651 2.711,9.156 4.784,13.476c2.074,4.323 4.54,8.468 7.207,12.488c0.411,0.624 -0.007,0.949 -0.471,0.334c-2.929,-3.86 -5.63,-7.925 -7.889,-12.252c-2.256,-4.322 -4.065,-8.919 -5.143,-13.714c-1.075,-4.793 -1.375,-9.781 -0.749,-14.659c0.621,-4.871 2.207,-9.65 4.843,-13.769c0.434,-0.698 0.871,-0.363 0.517,0.305Z" style="fill:#9cbfa0;fill-rule:nonzero;"/><path d="M1.815,38.134c3.09,-4.818 7.383,-8.866 12.333,-11.727c0.19,-0.112 0.514,0.307 0.347,0.462c-4.19,3.832 -8.124,7.724 -12.217,11.646c-0.172,0.164 -0.587,-0.191 -0.463,-0.381Z" style="fill:#9cbfa0;fill-rule:nonzero;"/><path d="M91.458,84.546c-0.254,3.277 -1.177,6.368 -2.695,9.279c-0.058,0.113 -0.568,-0.031 -0.554,-0.16c0.342,-3.255 1.136,-6.381 2.673,-9.286c0.064,-0.122 0.586,0.037 0.576,0.167Z" style="fill:#9cbfa0;fill-rule:nonzero;"/><path d="M79.224,99.578c1.447,-1.108 2.738,-2.263 3.949,-3.501l1.047,1.13c-1.352,1.069 -3.015,1.725 -4.687,1.872c-0.135,0.012 -0.283,-0.497 -0.157,-0.556c1.446,-0.685 2.721,-1.542 3.873,-2.513l1.043,1.126c-1.29,1.419 -2.975,2.48 -4.804,2.98c-0.145,0.041 -0.371,-0.456 -0.264,-0.538Z" style="fill:#9cbfa0;fill-rule:nonzero;"/><path d="M50.36,84.874c-0.36,0.373 -0.719,0.755 -1.079,1.128c-0.097,-0.259 -0.092,-0.553 0.074,-0.768c0.224,-0.285 0.636,-0.32 1.005,-0.36Z" style="fill:#3a4d57;fill-rule:nonzero;"/><path d="M54.641,122.14c-0.299,-0.201 -0.548,-0.495 -0.847,-0.71l-0.009,-0.009c-0.447,-0.579 -0.701,-1.342 -0.846,-2.075c-0.658,-3.294 0.179,-6.855 2.233,-9.513c0.351,-0.452 0.838,-0.904 1.355,-1.101c0.355,-0.132 0.724,-0.149 1.07,0.03c0.356,0.185 0.588,0.54 0.759,0.899c0.649,1.404 0.535,3.027 0.404,4.567c-0.211,2.43 -0.465,4.974 -1.807,7.004c-0.435,0.654 -1.15,1.299 -1.909,1.097c-0.149,-0.039 -0.281,-0.105 -0.403,-0.189Z" style="fill:#d9d1bc;fill-rule:nonzero;"/><path d="M73.814,103.709c0.359,-0.245 0.793,-0.399 1.157,-0.201c0.176,0.096 0.303,0.258 0.404,0.429c0.373,0.645 0.408,1.426 0.399,2.167c-0.044,2.518 -0.614,5.154 -2.298,7.023c-0.364,0.403 -0.798,0.776 -1.334,0.89c-0.36,0.079 -0.768,0 -1.053,-0.215c-0.71,-1.513 -0.478,-3.307 -0.083,-4.948c0.447,-1.851 1.136,-3.759 2.597,-4.987c0.066,-0.057 0.136,-0.109 0.211,-0.158Z" style="fill:#d9d1bc;fill-rule:nonzero;"/><path d="M69.988,106.88c0.259,-0.35 0.575,-0.658 0.891,-0.96c0.886,-0.855 1.811,-1.737 2.935,-2.211c-0.075,0.049 -0.145,0.101 -0.211,0.158c-1.461,1.228 -2.15,3.136 -2.597,4.987c-0.395,1.641 -0.627,3.435 0.083,4.948l0.053,0.114l-0.074,0.022c-0.676,-0.465 -1.36,-0.912 -2.053,-1.342c-0.07,-1.342 0.035,-2.693 0.303,-4.009c0.087,-0.448 0.201,-0.895 0.416,-1.299c0.074,-0.145 0.163,-0.276 0.254,-0.408Z" style="fill:#4d6571;fill-rule:nonzero;"/><path d="M52.277,111.846c1.048,-1.448 2.553,-2.562 4.246,-3.132l0.004,0.018c-0.517,0.197 -1.004,0.649 -1.355,1.101c-2.054,2.658 -2.891,6.219 -2.233,9.513c0.145,0.733 0.399,1.496 0.846,2.075l0.009,0.009c0.145,0.184 0.307,0.351 0.492,0.491l-0.018,0.022c-1.062,-0.798 -2.123,-1.597 -3.189,-2.386c-0.728,-2.22 -0.5,-4.738 0.614,-6.79c0.176,-0.32 0.369,-0.627 0.584,-0.921Z" style="fill:#4d6571;fill-rule:nonzero;"/><path d="M60.628,101.095c3.119,1.93 6.242,3.855 9.36,5.785c-0.091,0.132 -0.18,0.263 -0.254,0.408c-0.215,0.404 -0.329,0.851 -0.416,1.299c-0.268,1.316 -0.373,2.667 -0.303,4.009c-4.198,-2.61 -8.72,-4.658 -13.216,-6.759c-1.386,-0.649 -2.772,-1.299 -4.141,-1.974l0,-0.057c0.29,0.004 0.579,-0.018 0.869,-0.062c1.438,-0.228 2.684,-1.087 3.877,-1.921c0.763,-0.535 1.531,-1.07 2.294,-1.605c0.079,-0.057 0.158,-0.11 0.241,-0.167c0.562,0.347 1.128,0.693 1.689,1.044Z" style="fill:#be8e72;fill-rule:nonzero;"/><path d="M36.525,108.955c-2.021,-1.438 -4.053,-2.869 -6.088,-4.29c1.307,-2.381 3.808,-4.009 6.479,-4.539c1.022,-0.202 2.061,-0.255 3.097,-0.18c2.026,1.153 3.5,3.048 5.022,4.816c0.465,0.54 0.943,1.075 1.43,1.597c1.811,1.956 3.755,3.794 5.812,5.487c-0.215,0.294 -0.408,0.601 -0.584,0.921c-1.114,2.052 -1.342,4.57 -0.614,6.79c-4.812,-3.592 -9.663,-7.123 -14.554,-10.602Z" style="fill:#be8e72;fill-rule:nonzero;"/><path d="M36.525,108.955c-1.39,0.241 -2.802,0.298 -4.267,-0.013c-0.584,-0.123 -1.189,-0.333 -1.645,-0.697c-0.206,-0.167 -0.386,-0.364 -0.518,-0.601c-0.482,-0.86 -0.197,-1.952 0.259,-2.829c0.026,-0.049 0.053,-0.101 0.083,-0.15c2.035,1.421 4.067,2.852 6.088,4.29Z" style="fill:#3a4d57;fill-rule:nonzero;"/><path d="M60.181,99.806c0.451,0.21 0.693,0.842 0.447,1.289c-0.561,-0.351 -1.127,-0.697 -1.689,-1.044c0.316,-0.202 0.667,-0.369 1.031,-0.311c0.075,0.013 0.145,0.035 0.211,0.066Z" style="fill:#3a4d57;fill-rule:nonzero;"/><path d="M55.799,105.837c-2.408,0.921 -5.167,0.241 -7.773,0.359c-0.526,0.022 -1.044,0.079 -1.561,0.163c-0.487,-0.522 -0.965,-1.057 -1.43,-1.597c-1.522,-1.768 -2.996,-3.663 -5.022,-4.816c1.732,0.127 3.447,0.609 5.031,1.342c1.21,0.561 2.355,1.268 3.583,1.794c0.961,0.412 1.996,0.711 3.031,0.724l0,0.057c1.369,0.675 2.755,1.325 4.141,1.974Z" style="fill:#3a4d57;fill-rule:nonzero;"/><path d="M30.095,107.644c0.132,0.237 0.312,0.434 0.518,0.601l-0.031,0.039c-2.211,-1.702 -4.391,-3.566 -5.461,-6.115c-0.789,-1.877 -0.894,-3.964 -0.851,-6c0.031,-1.526 0.145,-3.052 0.338,-4.566l0.031,-0.088c2.009,0.667 4.057,1.22 6.162,1.391c4.097,0.337 8.22,-0.785 12.3,-0.386c-0.391,0.417 -0.781,0.829 -1.171,1.245l-0.044,0.071c3.754,2.175 7.303,4.706 10.584,7.553c0.21,0.184 0.465,0.381 0.741,0.329c0.175,-0.035 0.315,-0.167 0.443,-0.294l0.057,-0.057c1.031,-0.452 1.996,-1.062 2.851,-1.799c0.505,-0.434 0.97,-0.908 1.426,-1.39c0.776,0.478 1.508,1.022 2.193,1.628c-0.066,-0.031 -0.136,-0.053 -0.211,-0.066c-0.364,-0.058 -0.715,0.109 -1.031,0.311c-0.083,0.057 -0.162,0.11 -0.241,0.167c-0.763,0.535 -1.531,1.07 -2.294,1.605c-1.193,0.834 -2.439,1.693 -3.877,1.921c-0.29,0.044 -0.579,0.066 -0.869,0.062c-1.035,-0.013 -2.07,-0.312 -3.031,-0.724c-1.228,-0.526 -2.373,-1.233 -3.583,-1.794c-1.584,-0.733 -3.299,-1.215 -5.031,-1.342c-1.036,-0.075 -2.075,-0.022 -3.097,0.18c-2.671,0.53 -5.172,2.158 -6.479,4.539c-0.03,0.049 -0.057,0.101 -0.083,0.15c-0.456,0.877 -0.741,1.969 -0.259,2.829Z" style="fill:#4d6571;fill-rule:nonzero;"/><path d="M37.368,72.356c-1.43,1.645 -2.864,3.29 -4.299,4.935c-0.605,0.693 -1.21,1.39 -1.82,2.083c-2.132,-2.193 -3.825,-4.807 -4.965,-7.641c-0.141,-0.342 -0.272,-0.689 -0.395,-1.039c-0.272,-0.786 -0.509,-1.597 -0.509,-2.426c0.004,-1.908 1.334,-3.64 3.07,-4.452c0.255,-0.123 0.518,-0.219 0.786,-0.299c2.1,-0.604 4.421,-0.021 6.241,1.185c1.825,1.206 3.207,2.978 4.33,4.856c-0.812,0.934 -1.623,1.864 -2.439,2.798Z" style="fill:#fcbf5f;fill-rule:nonzero;"/><path d="M62.014,69.939c-1.21,0.86 -2.39,1.759 -3.531,2.707c-0.175,-2.79 -0.513,-5.571 -1.022,-8.317c0.733,-0.268 1.452,-0.57 2.158,-0.908c1.36,1.803 2.786,3.544 4.286,5.224c-0.641,0.421 -1.268,0.851 -1.891,1.294Z" style="fill:#fcbf5f;fill-rule:nonzero;"/><path d="M31.249,79.374c0.61,-0.693 1.215,-1.39 1.82,-2.083c0.228,0.929 0.698,1.794 1.184,2.627c2.566,4.399 5.764,8.461 9.567,11.839c-0.241,0.254 -0.483,0.508 -0.719,0.763c-4.08,-0.399 -8.203,0.723 -12.3,0.386c-2.105,-0.171 -4.153,-0.724 -6.162,-1.391c-0.724,-0.237 -1.439,-0.491 -2.154,-0.745c1.386,-6.321 2.654,-12.668 3.799,-19.037c1.14,2.834 2.833,5.448 4.965,7.641Z" style="fill:#3a4d57;fill-rule:nonzero;"/><path d="M58.483,72.646c0.101,1.645 0.15,3.294 0.132,4.939c-0.255,-0.163 -0.518,-0.316 -0.781,-0.466c-1.711,1.764 -3.417,3.532 -5.127,5.303l-0.07,-0.03c-2.47,-1.035 -5.523,-0.175 -7.808,-1.566c-0.601,-0.364 -1.105,-0.86 -1.597,-1.364c-2.145,-2.206 -4.106,-4.584 -5.864,-7.106c0.816,-0.934 1.627,-1.864 2.439,-2.798c-1.123,-1.878 -2.505,-3.65 -4.33,-4.856c-1.82,-1.206 -4.141,-1.789 -6.241,-1.185c-0.268,0.08 -0.531,0.176 -0.786,0.299c0.325,-0.566 0.65,-1.132 0.97,-1.698c0.026,-0.048 0.061,-0.101 0.114,-0.096l0.022,0.009l0.013,-0.018c0.29,0.219 0.583,0.426 0.908,0.584c1.452,0.719 3.382,0.267 4.368,-1.018c0.264,-0.338 0.457,-0.719 0.632,-1.114c1.114,0.886 2.4,1.552 3.689,2.158c0.759,0.355 1.531,0.693 2.312,1c0.785,0.641 1.592,1.245 2.421,1.825c1.605,1.123 3.346,2.158 5.29,2.421c0.86,0.114 1.772,0.066 2.531,-0.355c0.745,-0.413 1.298,-1.242 1.21,-2.084c1.544,-0.189 3.062,-0.57 4.531,-1.101c0.509,2.746 0.847,5.527 1.022,8.317Z" style="fill:#3a4d57;fill-rule:nonzero;"/><path d="M57.988,98.178c-0.456,0.482 -0.921,0.956 -1.426,1.39c-0.855,0.737 -1.82,1.347 -2.851,1.799c3.246,-3.215 6.487,-6.421 9.733,-9.632c1.833,-1.816 3.68,-3.641 5.22,-5.711l-0.105,-0.075c1.895,-1.583 3.732,-3.237 5.495,-4.965c0.08,-0.075 0.159,-0.149 0.238,-0.228c0.065,0.267 0.206,0.518 0.407,0.71c-1.057,1.641 -2.491,2.983 -3.952,4.286c-0.272,0.241 -0.539,0.482 -0.811,0.723c-2.079,1.852 -4.119,3.755 -6.106,5.703c-1.833,1.794 -3.627,3.627 -5.377,5.505c-0.154,0.166 -0.312,0.329 -0.465,0.495Z" style="fill:#f68b62;fill-rule:nonzero;"/><path d="M53.711,101.367l-0.057,0.057c-0.128,0.127 -0.268,0.259 -0.443,0.294c-0.276,0.052 -0.531,-0.145 -0.741,-0.329c-3.281,-2.847 -6.83,-5.378 -10.584,-7.553l0.044,-0.071c0.39,-0.416 0.78,-0.828 1.171,-1.245c0.236,-0.255 0.478,-0.509 0.719,-0.763c1.118,1 2.285,1.934 3.504,2.798c1.229,0.873 2.729,1.707 4.163,1.259c1.035,-0.32 1.781,-1.263 2.123,-2.285c0.347,-1.022 0.355,-2.128 0.324,-3.207c-0.008,-0.263 -0.021,-0.535 -0.144,-0.768c-0.127,-0.245 -0.369,-0.416 -0.601,-0.574c-1.022,-0.702 -2.044,-1.404 -3.066,-2.101c-0.281,-0.193 -0.57,-0.395 -0.75,-0.684c-0.04,-0.061 -0.07,-0.123 -0.092,-0.193c0.36,-0.373 0.719,-0.755 1.079,-1.128l0.026,-0.004c0.943,-0.11 1.855,-0.469 2.615,-1.039c0.166,-0.123 0.332,-0.268 0.385,-0.465c0.11,-0.408 -0.289,-0.764 -0.679,-0.944c1.71,-1.771 3.416,-3.539 5.127,-5.303c0.263,0.15 0.526,0.303 0.781,0.466c0.149,0.092 0.298,0.188 0.443,0.285c3.434,2.307 6.066,5.728 9.501,8.079l0.105,0.075c-1.54,2.07 -3.387,3.895 -5.22,5.711c-3.246,3.211 -6.487,6.417 -9.733,9.632Z" style="fill:#f16461;fill-rule:nonzero;"/><path d="M69.313,81.137c0.627,-0.592 1.254,-1.184 1.882,-1.781c0.123,-0.118 0.272,-0.245 0.443,-0.236c0.136,0.008 0.25,0.096 0.355,0.184c0.685,0.561 1.377,1.123 2.061,1.68c-1.763,1.728 -3.6,3.382 -5.495,4.965c-3.435,-2.351 -6.067,-5.772 -9.501,-8.079c0.759,-0.606 1.522,-1.215 2.276,-1.821c2.194,2.136 4.387,4.273 6.584,6.413c0.465,-0.439 0.93,-0.882 1.395,-1.325Z" style="fill:#e9e5d9;fill-rule:nonzero;"/><path d="M63.83,92.178c1.987,-1.948 4.027,-3.851 6.106,-5.703c0.272,-0.241 0.539,-0.482 0.811,-0.723c0.189,0.583 0.356,1.201 0.211,1.789c-0.11,0.452 -0.399,0.838 -0.697,1.198c-0.852,1.013 -1.852,1.903 -2.966,2.623c-0.416,0.267 -0.851,0.513 -1.316,0.675c-0.679,0.242 -1.425,0.294 -2.132,0.158l-0.017,-0.017Z" style="fill:#be8e72;fill-rule:nonzero;"/><path d="M58.615,77.585c0.018,-1.645 -0.031,-3.294 -0.132,-4.939c1.141,-0.948 2.321,-1.847 3.531,-2.707c2.759,3.505 5.207,7.259 7.299,11.198c-0.465,0.443 -0.93,0.886 -1.395,1.325c-2.197,-2.14 -4.39,-4.277 -6.584,-6.413c-0.754,0.606 -1.517,1.215 -2.276,1.821c-0.145,-0.097 -0.294,-0.193 -0.443,-0.285Z" style="fill:#be8e72;fill-rule:nonzero;"/><path d="M49.281,86.002c0.022,0.07 0.052,0.132 0.092,0.193c0.18,0.289 0.469,0.491 0.75,0.684c1.022,0.697 2.044,1.399 3.066,2.101c0.232,0.158 0.474,0.329 0.601,0.574c0.123,0.233 0.136,0.505 0.144,0.768c0.031,1.079 0.023,2.185 -0.324,3.207c-0.342,1.022 -1.088,1.965 -2.123,2.285c-1.434,0.448 -2.934,-0.386 -4.163,-1.259c-1.219,-0.864 -2.386,-1.798 -3.504,-2.798c-3.803,-3.378 -7.001,-7.44 -9.567,-11.839c-0.486,-0.833 -0.956,-1.698 -1.184,-2.627c1.435,-1.645 2.869,-3.29 4.299,-4.935c1.758,2.522 3.719,4.9 5.864,7.106c0.492,0.504 0.996,1 1.597,1.364c2.285,1.391 5.338,0.531 7.808,1.566l0.07,0.03c0.39,0.18 0.789,0.536 0.679,0.944c-0.053,0.197 -0.219,0.342 -0.385,0.465c-0.76,0.57 -1.672,0.929 -2.615,1.039l-0.026,0.004c-0.369,0.04 -0.781,0.075 -1.005,0.36c-0.166,0.215 -0.171,0.509 -0.074,0.768Z" style="fill:#be8e72;fill-rule:nonzero;"/><path d="M41.478,63.623c2.881,1.145 5.908,1.934 9,1.956c0.825,0.005 1.641,-0.044 2.452,-0.149c0.088,0.842 -0.465,1.671 -1.21,2.084c-0.759,0.421 -1.671,0.469 -2.531,0.355c-1.944,-0.263 -3.685,-1.298 -5.29,-2.421c-0.829,-0.58 -1.636,-1.184 -2.421,-1.825Z" style="fill:#e5ad8c;fill-rule:nonzero;"/><path d="M53.886,52.605c0.123,-0.588 0.246,-1.202 0.088,-1.781c-0.048,-0.171 -0.128,-0.347 -0.267,-0.452c-0.347,-0.25 -0.83,0.017 -1.146,0.307c-1.315,1.206 -2.166,2.908 -2.337,4.684c-0.018,0.207 -0.031,0.413 0.009,0.615c0.061,0.32 0.263,0.605 0.535,0.789c0.158,0.167 0.417,0.255 0.649,0.224c0.355,-0.048 0.658,-0.289 0.899,-0.557c0.939,-1.031 1.281,-2.461 1.57,-3.829Zm5.733,10.816c-0.706,0.338 -1.425,0.64 -2.158,0.908c-1.469,0.531 -2.987,0.912 -4.53,1.101c-0.812,0.105 -1.628,0.154 -2.453,0.149c-3.092,-0.022 -6.119,-0.811 -9,-1.956c-0.781,-0.307 -1.553,-0.645 -2.312,-1c-1.289,-0.606 -2.575,-1.272 -3.689,-2.158c0.351,-0.794 0.623,-1.636 1.185,-2.29c0.868,-1.018 2.263,-1.386 3.399,-2.092c0.903,-0.557 2.013,-1.882 1.684,-3.031c-0.342,-1.193 -2.101,-1.483 -2.439,-2.68c-0.171,-0.606 0.228,-1.224 0.681,-1.667c0.447,-0.443 0.986,-0.842 1.201,-1.438c0.32,-0.878 -0.179,-1.838 -0.149,-2.777c0.057,-1.483 1.728,-2.671 3.149,-2.233c1.11,0.342 1.843,1.422 2.904,1.9c2.25,1.008 3.114,-1.413 5.084,-1.465c1.908,-0.058 2.776,2.158 4.544,2.522c2.619,0.539 4.246,-3.448 6.917,-3.509c1.321,-0.027 2.426,0.925 3.496,1.697c1.07,0.772 2.514,1.421 3.662,0.772c0.567,-0.324 0.939,-0.912 1.496,-1.259c1.417,-0.886 3.027,0.11 4.663,0.803c-2.68,5.272 -5.751,10.431 -9.997,14.541c-2.149,2.078 -4.64,3.872 -7.338,5.162Zm9.365,-17.905c-0.754,0.167 -1.43,0.667 -1.807,1.338c0.93,-0.254 1.921,0.18 2.768,0.663c0.061,0.035 0.136,0.074 0.201,0.048c0.079,-0.031 0.101,-0.123 0.119,-0.207c0.118,-0.635 0.158,-1.447 -0.403,-1.767c-0.264,-0.149 -0.584,-0.136 -0.878,-0.075Zm-4.325,10.409c0.154,0.092 0.342,0.145 0.522,0.127c0.408,-0.035 0.75,-0.307 1.044,-0.592c1.342,-1.303 2.145,-3.145 2.189,-5.013c0.004,-0.246 -0.009,-0.518 -0.167,-0.707c-0.193,-0.228 -0.544,-0.263 -0.824,-0.158c-0.277,0.106 -0.496,0.321 -0.702,0.536c-1.211,1.293 -2.162,2.921 -2.281,4.689c-0.022,0.386 0.004,0.806 0.219,1.118Zm-5.079,2.272c-0.983,-0.101 -2.193,-0.184 -3.176,-0.289c-0.035,0.36 -0.057,0.772 0.185,1.039c0.271,0.303 0.736,0.289 1.14,0.246c0.737,-0.075 1.618,-0.29 1.851,-0.996Zm-7.624,-10.005c1.045,-0.452 2.334,-0.32 3.255,0.36c0.053,-0.443 0.105,-0.917 -0.092,-1.325c-0.312,-0.641 -1.193,-0.86 -1.851,-0.587c-0.649,0.267 -1.088,0.89 -1.312,1.552Z" style="fill:#be8e72;fill-rule:nonzero;"/><path d="M59.58,58.197c-0.233,0.706 -1.114,0.921 -1.851,0.996c-0.404,0.043 -0.869,0.057 -1.14,-0.246c-0.242,-0.267 -0.22,-0.679 -0.185,-1.039c0.983,0.105 2.194,0.188 3.176,0.289Z" style="fill:#e5ad8c;fill-rule:nonzero;"/><path d="M37.503,61.095c-0.22,0.658 -0.454,1.314 -0.87,1.845c-0.865,1.106 -2.374,1.483 -3.777,1.543c-1.337,0.057 -2.791,-0.16 -3.736,-1.107c-1.005,-1.006 -1.358,-2.745 -2.707,-3.195c-1.13,-0.377 -2.288,0.389 -3.451,0.648c-2.065,0.461 -5.113,-0.992 -4.669,-3.493c0.177,-0.99 1.034,-1.824 0.963,-2.827c-0.098,-1.392 -1.764,-1.969 -2.91,-2.765c-1.252,-0.868 -2.077,-2.51 -1.582,-3.951c0.294,-0.856 0.982,-1.504 1.553,-2.206c0.571,-0.702 1.059,-1.599 0.84,-2.477c-0.366,-1.464 -2.26,-1.271 -2.079,-3.178c0.086,-0.91 0.593,-1.719 1.08,-2.493c0.487,-0.775 0.981,-1.595 1.038,-2.508c0.11,-1.808 -1.517,-3.517 -1.009,-5.254c0.336,-1.152 1.569,-2.049 1.413,-3.238c-0.123,-0.93 -1.041,-1.505 -1.643,-2.225c-0.572,-0.683 -0.887,-1.595 -0.785,-2.48c0.243,-2.1 2.576,-3.299 4.675,-3.555c0.644,-0.079 1.325,-0.115 1.87,-0.467c1.236,-0.797 1.075,-2.597 1.353,-4.039c0.408,-2.115 2.104,-3.797 4.141,-4.39c1.903,-0.554 4.363,-0.232 5.661,-2.059c0.395,-0.557 0.583,-1.224 0.886,-1.829c1.658,-3.285 6.193,-3.873 9.746,-2.934c1.689,0.447 3.412,1.14 5.123,0.776c1.737,-0.368 3.084,-1.768 4.777,-2.303c2.943,-0.939 6.071,0.952 8.11,3.277c0.562,0.636 1.11,1.338 1.886,1.68c1.601,0.706 3.536,-0.355 5.181,0.228c2.013,0.715 2.46,3.32 3.811,4.974c1.145,1.399 2.934,2.083 4.351,3.206c1.878,1.491 3.071,3.816 3.181,6.211c0.096,1.97 -0.378,4.299 1.074,5.636c0.741,0.676 1.864,0.935 2.395,1.786c0.605,0.987 0.127,2.276 -0.5,3.246c-0.632,0.973 -1.43,1.938 -1.469,3.092c-0.053,1.566 1.298,2.794 1.837,4.268c0.518,1.421 0.207,3.114 -0.785,4.264c-0.991,1.144 -2.618,1.697 -4.105,1.39c-0.47,-0.097 -0.943,-0.272 -1.417,-0.474c-1.636,-0.693 -3.246,-1.689 -4.663,-0.803c-0.557,0.347 -0.929,0.935 -1.496,1.259c-1.148,0.649 -2.592,0 -3.662,-0.772c-1.07,-0.772 -2.175,-1.724 -3.496,-1.697c-2.671,0.061 -4.298,4.048 -6.917,3.509c-1.768,-0.364 -2.636,-2.58 -4.544,-2.522c-1.371,0.036 -1.912,1.481 -3.262,1.649c-1.484,0.184 -2.737,-1.284 -4.233,-1.3c-1.079,-0.012 -2.099,0.859 -2.258,1.927c-0.205,1.384 0.867,2.871 0.234,4.119c-0.337,0.664 -1.085,1.055 -1.39,1.734c-0.433,0.969 0.186,2.058 0.766,2.947c0.581,0.889 1.159,2.019 0.656,2.953c-0.67,1.248 -2.572,0.996 -3.73,1.81c-0.827,0.582 -1.125,1.575 -1.456,2.564Z" style="fill:#403c39;fill-rule:nonzero;"/><path d="M69.862,45.591c0.561,0.32 0.521,1.132 0.403,1.768c-0.018,0.083 -0.039,0.175 -0.119,0.206c-0.065,0.026 -0.14,-0.013 -0.201,-0.048c-0.847,-0.483 -1.838,-0.917 -2.768,-0.663c0.377,-0.671 1.053,-1.171 1.807,-1.338c0.294,-0.061 0.614,-0.074 0.878,0.075Z" style="fill:#5f5249;fill-rule:nonzero;"/><path d="M68.247,49.74c0.158,0.189 0.171,0.461 0.167,0.707c-0.044,1.868 -0.847,3.71 -2.189,5.013c-0.294,0.285 -0.636,0.557 -1.044,0.592c-0.18,0.018 -0.368,-0.035 -0.522,-0.127c-0.215,-0.312 -0.241,-0.732 -0.219,-1.118c0.118,-1.768 1.07,-3.396 2.281,-4.689c0.206,-0.215 0.425,-0.43 0.702,-0.536c0.28,-0.105 0.631,-0.07 0.824,0.158Z" style="fill:#3a4d57;fill-rule:nonzero;"/><path d="M55.119,47.227c0.197,0.408 0.145,0.882 0.092,1.325c-0.921,-0.68 -2.21,-0.812 -3.255,-0.36c0.224,-0.662 0.663,-1.285 1.312,-1.553c0.658,-0.272 1.539,-0.053 1.851,0.588Z" style="fill:#5f5249;fill-rule:nonzero;"/><path d="M50.768,56.767c-0.272,-0.184 -0.474,-0.469 -0.535,-0.789c-0.04,-0.202 -0.027,-0.408 -0.009,-0.615c0.171,-1.776 1.022,-3.478 2.337,-4.684c0.316,-0.29 0.799,-0.557 1.146,-0.307c0.139,0.105 0.219,0.281 0.267,0.452c0.158,0.579 0.035,1.193 -0.088,1.781c-0.289,1.368 -0.631,2.798 -1.57,3.829c-0.241,0.268 -0.544,0.509 -0.899,0.557c-0.232,0.031 -0.491,-0.057 -0.649,-0.224Z" style="fill:#3a4d57;fill-rule:nonzero;"/><path d="M53.019,63.087c0.744,-0.09 1.335,0.037 1.993,0.39l-0.019,0.274c-0.714,0.232 -1.494,0.131 -2.063,-0.394l0.089,-0.27Z" style="fill:#e5ad8c;fill-rule:nonzero;"/><path d="M59.867,61.518c0,0 -0.028,0.036 -0.08,0.105c-0.054,0.068 -0.14,0.165 -0.267,0.275c-0.259,0.201 -0.695,0.465 -1.258,0.573c-0.562,0.111 -1.194,0.198 -1.882,0.219c-0.687,0.027 -1.421,-0.024 -2.151,-0.105c-0.725,-0.108 -1.448,-0.245 -2.105,-0.448c-0.661,-0.191 -1.249,-0.445 -1.762,-0.689c-0.515,-0.244 -0.873,-0.591 -1.092,-0.831c-0.206,-0.262 -0.282,-0.43 -0.282,-0.43c0,0 0.145,0.12 0.424,0.254c0.265,0.156 0.684,0.272 1.177,0.399c0.494,0.129 1.118,0.19 1.762,0.306c0.648,0.1 1.335,0.215 2.027,0.294c0.689,0.101 1.383,0.167 2.035,0.235c0.652,0.053 1.275,0.156 1.779,0.153c0.506,0.003 0.934,-0.02 1.221,-0.125c0.296,-0.082 0.454,-0.185 0.454,-0.185Z" style="fill:#e5ad8c;fill-rule:nonzero;"/><path d="M59.47,56.768c-0.061,0 -0.131,-0.024 -0.135,-0.062c-0.025,-0.404 -0.051,-0.807 -0.05,-1.207c-0.001,-0.4 0.011,-0.799 0.043,-1.195c0.064,-0.792 0.217,-1.572 0.532,-2.331c0.009,-0.021 0.053,-0.03 0.107,-0.03c0.109,0 0.263,0.036 0.268,0.079c0.113,0.813 0.077,1.609 -0.057,2.392c-0.066,0.392 -0.154,0.781 -0.258,1.167c-0.101,0.387 -0.233,0.77 -0.365,1.153c-0.009,0.023 -0.045,0.034 -0.085,0.034Z" style="fill:#e3bd97;fill-rule:nonzero;"/><path d="M67.269,52.305c0.003,-0.344 0.032,-0.631 0.103,-0.909c0.035,-0.139 0.081,-0.276 0.135,-0.416c0.054,-0.145 0.119,-0.278 0.191,-0.44l0.262,-0.001c0.068,0.155 0.112,0.338 0.13,0.507c0.017,0.174 0.008,0.349 -0.029,0.518c-0.073,0.337 -0.262,0.651 -0.558,0.866l-0.234,-0.125Z" style="fill:#4f6b77;fill-rule:nonzero;"/><path d="M52.915,53.309c-0.002,-0.333 -0.019,-0.63 0.049,-0.907c0.029,-0.141 0.068,-0.28 0.114,-0.423c0.045,-0.146 0.106,-0.285 0.161,-0.448l0.218,-0.01c0.067,0.15 0.125,0.324 0.151,0.489c0.027,0.168 0.03,0.339 0.008,0.507c-0.036,0.339 -0.227,0.648 -0.48,0.888l-0.221,-0.096Z" style="fill:#4f6b77;fill-rule:nonzero;"/><path d="M16.31,18.466c0.684,-0.614 1.59,-0.983 2.544,-1.046c0.948,-0.046 1.836,0.241 2.648,0.261c0.83,0.026 1.647,-0.27 2.328,-0.791c0.686,-0.516 1.218,-1.24 1.567,-2.05c0.073,-0.119 0.1,-0.114 0.08,0.03c-0.241,0.866 -0.744,1.665 -1.418,2.294c-0.67,0.627 -1.589,1.062 -2.547,1.084c-0.973,0.018 -1.815,-0.279 -2.653,-0.269c-0.82,-0.009 -1.669,0.231 -2.406,0.679c-0.123,0.075 -0.253,-0.094 -0.143,-0.192Z" style="fill:#5f5249;fill-rule:nonzero;"/><path d="M15.519,30.706c-0.051,-0.625 0.049,-1.273 0.298,-1.866c0.126,-0.299 0.28,-0.577 0.477,-0.848c0.184,-0.256 0.412,-0.494 0.633,-0.707c0.442,-0.437 0.933,-0.761 1.236,-1.251c0.295,-0.469 0.469,-1.099 0.185,-1.628c-0.045,-0.082 0.025,-0.132 0.084,-0.054c0.194,0.254 0.284,0.587 0.276,0.911c-0.005,0.326 -0.09,0.646 -0.225,0.943c-0.135,0.3 -0.331,0.56 -0.532,0.808c-0.199,0.246 -0.413,0.471 -0.629,0.678c-0.214,0.212 -0.412,0.413 -0.592,0.645c-0.168,0.216 -0.329,0.463 -0.462,0.714c-0.262,0.511 -0.456,1.069 -0.535,1.66c-0.013,0.098 -0.206,0.094 -0.214,-0.005Z" style="fill:#5f5249;fill-rule:nonzero;"/><path d="M16.33,53.636c-0.162,0.586 0.192,1.166 0.636,1.505c0.443,0.347 1.061,0.431 1.665,0.386c0.305,-0.019 0.617,-0.068 0.928,-0.133c0.316,-0.068 0.625,-0.137 0.909,-0.251c0.279,-0.117 0.549,-0.271 0.713,-0.527c0.163,-0.247 0.24,-0.6 0.08,-0.878c-0.054,-0.085 -0.013,-0.117 0.048,-0.032c0.185,0.294 0.174,0.676 0.036,0.997c-0.138,0.331 -0.425,0.585 -0.729,0.749c-0.305,0.167 -0.628,0.278 -0.941,0.381c-0.32,0.101 -0.65,0.188 -0.996,0.229c-0.677,0.076 -1.465,-0.018 -2.041,-0.527c-0.279,-0.242 -0.486,-0.561 -0.593,-0.913c-0.108,-0.348 -0.102,-0.75 0.07,-1.071c0.057,-0.111 0.238,-0.002 0.215,0.085Z" style="fill:#5f5249;fill-rule:nonzero;"/><path d="M15.795,43.334c0.087,-0.769 0.333,-1.524 0.713,-2.203c0.192,-0.338 0.408,-0.663 0.654,-0.962c0.248,-0.297 0.503,-0.591 0.791,-0.844c0.043,-0.04 0.081,-0.009 0.046,0.04c-0.218,0.317 -0.435,0.622 -0.621,0.953c-0.187,0.328 -0.366,0.657 -0.527,0.994c-0.328,0.672 -0.623,1.352 -0.904,2.06c-0.023,0.059 -0.16,0.023 -0.152,-0.038Z" style="fill:#5f5249;fill-rule:nonzero;"/><path d="M36.827,1.863c-0.947,0.367 -1.673,1.101 -2.241,1.912c-0.577,0.806 -0.995,1.741 -1.418,2.674c-0.426,0.934 -0.86,1.901 -1.502,2.749c-0.626,0.843 -1.461,1.583 -2.463,1.92c-0.151,0.051 -0.202,-0.064 -0.051,-0.131c0.932,-0.414 1.637,-1.185 2.179,-2.024c0.543,-0.847 0.927,-1.79 1.335,-2.737c0.411,-0.947 0.844,-1.911 1.511,-2.758c0.659,-0.829 1.555,-1.533 2.595,-1.781c0.174,-0.042 0.202,0.118 0.055,0.176Z" style="fill:#5f5249;fill-rule:nonzero;"/><path d="M54.132,0.18c-0.798,0.19 -1.513,0.592 -2.17,1.075c-0.656,0.484 -1.275,1.034 -1.941,1.553c-0.662,0.519 -1.396,0.999 -2.202,1.294c-0.803,0.293 -1.652,0.452 -2.494,0.442c-0.131,-0.032 -0.137,-0.059 -0.006,-0.108c0.823,-0.1 1.625,-0.318 2.359,-0.674c0.742,-0.342 1.4,-0.817 2.037,-1.341c0.641,-0.518 1.269,-1.084 1.997,-1.536c0.718,-0.451 1.531,-0.825 2.393,-0.884c0.143,-0.011 0.152,0.149 0.027,0.179Z" style="fill:#5f5249;fill-rule:nonzero;"/><path d="M39.939,0.604c0.664,0.439 1.2,1.081 1.545,1.807c0.165,0.368 0.283,0.755 0.356,1.147c0.076,0.39 0.093,0.798 0.083,1.184c-0.002,0.06 -0.095,0.07 -0.106,0.009c-0.057,-0.388 -0.167,-0.749 -0.293,-1.108c-0.127,-0.355 -0.285,-0.697 -0.462,-1.025c-0.341,-0.663 -0.76,-1.279 -1.257,-1.863c-0.04,-0.049 0.081,-0.187 0.134,-0.151Z" style="fill:#5f5249;fill-rule:nonzero;"/><path d="M66.771,4.442c-0.063,0.654 -0.539,1.208 -1.093,1.53c-0.561,0.328 -1.179,0.465 -1.762,0.588c-0.592,0.116 -1.206,0.192 -1.826,0.172c-0.617,-0.021 -1.25,-0.161 -1.775,-0.478c-0.08,-0.046 -0.027,-0.163 0.062,-0.128c0.543,0.227 1.13,0.268 1.705,0.218c0.577,-0.049 1.146,-0.185 1.721,-0.318c0.581,-0.132 1.149,-0.245 1.646,-0.483c0.488,-0.233 0.927,-0.617 1.105,-1.145c0.027,-0.087 0.226,-0.061 0.217,0.044Z" style="fill:#5f5249;fill-rule:nonzero;"/><path d="M77.436,12.115c-0.193,0.289 -0.49,0.513 -0.82,0.636c-0.332,0.126 -0.681,0.177 -1.045,0.15c-0.703,-0.053 -1.345,-0.372 -1.899,-0.718c-1.108,-0.692 -2.16,-1.451 -3.216,-2.213c-0.081,-0.059 -0.019,-0.165 0.072,-0.117l1.721,0.922c0.568,0.313 1.135,0.641 1.689,0.966c0.554,0.316 1.098,0.609 1.693,0.704c0.566,0.085 1.221,-0.022 1.65,-0.454c0.069,-0.072 0.216,0.03 0.155,0.124Z" style="fill:#5f5249;fill-rule:nonzero;"/><path d="M77.843,14.436c-0.568,-0.054 -1.119,-0.17 -1.659,-0.326c-0.538,-0.162 -1.064,-0.369 -1.581,-0.607c-0.04,-0.018 -0.016,-0.108 0.029,-0.103c0.564,0.068 1.121,0.164 1.666,0.3c0.544,0.142 1.078,0.32 1.592,0.568c0.043,0.02 -0.002,0.172 -0.047,0.168Z" style="fill:#5f5249;fill-rule:nonzero;"/><path d="M82.199,25.706c-0.661,-0.161 -1.198,-0.674 -1.546,-1.24c-0.356,-0.574 -0.568,-1.215 -0.687,-1.859c-0.118,-0.638 -0.18,-1.27 -0.295,-1.886c-0.118,-0.612 -0.274,-1.224 -0.618,-1.755c-0.052,-0.085 0.032,-0.148 0.096,-0.069c0.416,0.5 0.692,1.118 0.87,1.741c0.183,0.625 0.295,1.259 0.434,1.871c0.14,0.602 0.321,1.191 0.602,1.725c0.278,0.534 0.673,0.998 1.216,1.278c0.089,0.05 0.032,0.222 -0.072,0.194Z" style="fill:#5f5249;fill-rule:nonzero;"/><path d="M83.724,37.561c-0.576,-0.461 -1.048,-1.067 -1.361,-1.752c-0.307,-0.687 -0.481,-1.443 -0.461,-2.204c0.01,-0.381 0.06,-0.754 0.164,-1.129c0.046,-0.195 0.112,-0.358 0.173,-0.528c0.073,-0.191 0.15,-0.346 0.229,-0.513c0.159,-0.324 0.316,-0.634 0.396,-0.967c0.079,-0.328 0.085,-0.688 -0.054,-0.996c-0.05,-0.099 0.059,-0.168 0.123,-0.072c0.205,0.336 0.244,0.738 0.201,1.115c-0.043,0.38 -0.17,0.74 -0.291,1.079c-0.06,0.166 -0.126,0.342 -0.169,0.493c-0.048,0.174 -0.102,0.352 -0.126,0.512c-0.066,0.326 -0.095,0.675 -0.092,1.014c-0.006,0.683 0.113,1.368 0.344,2.017c0.24,0.645 0.579,1.265 1.056,1.791c0.077,0.089 -0.042,0.215 -0.132,0.14Z" style="fill:#5f5249;fill-rule:nonzero;"/><path d="M61.34,46.54c-0.402,-0.648 -0.513,-1.474 -0.377,-2.238c0.138,-0.766 0.498,-1.493 1.019,-2.077c0.514,-0.583 1.172,-1.009 1.852,-1.325c0.685,-0.313 1.402,-0.519 2.119,-0.674c0.112,-0.019 0.161,0.132 0.053,0.177c-1.357,0.51 -2.65,1.209 -3.557,2.24c-0.445,0.51 -0.776,1.121 -0.953,1.778c-0.18,0.653 -0.203,1.361 0.035,2.027c0.037,0.111 -0.129,0.197 -0.191,0.092Z" style="fill:#5f5249;fill-rule:nonzero;"/><path d="M43.819,45.002c0.259,-0.815 1.149,-1.295 1.964,-1.346c0.831,-0.083 1.635,0.207 2.312,0.315c0.169,0.021 0.341,0.034 0.489,0.029c0.17,-0.009 0.315,-0.045 0.47,-0.107c0.301,-0.128 0.569,-0.366 0.782,-0.647c0.429,-0.57 0.596,-1.331 0.743,-2.075c0.023,-0.115 0.162,-0.101 0.152,0.021c-0.061,0.757 -0.136,1.559 -0.559,2.279c-0.211,0.351 -0.501,0.672 -0.885,0.888c-0.186,0.109 -0.41,0.192 -0.619,0.228c-0.232,0.044 -0.444,0.041 -0.654,0.014c-0.418,-0.049 -0.789,-0.163 -1.146,-0.237c-0.358,-0.078 -0.713,-0.129 -1.061,-0.133c-0.35,-0.002 -0.689,0.052 -0.999,0.197c-0.31,0.143 -0.591,0.365 -0.764,0.669c-0.054,0.101 -0.263,0.035 -0.225,-0.095Z" style="fill:#5f5249;fill-rule:nonzero;"/><path d="M55.095,45.994c-0.42,-0.989 -0.835,-1.958 -1.416,-2.81c-0.291,-0.423 -0.633,-0.814 -1.03,-1.144c-0.399,-0.327 -0.848,-0.606 -1.357,-0.76c-0.079,-0.025 -0.057,-0.134 0.028,-0.121c0.541,0.08 1.074,0.285 1.539,0.595c0.469,0.308 0.875,0.697 1.216,1.152c0.329,0.44 0.597,0.941 0.788,1.453c0.196,0.515 0.335,1.043 0.428,1.576c0.016,0.09 -0.162,0.137 -0.196,0.059Z" style="fill:#5f5249;fill-rule:nonzero;"/><path d="M77.56,45.749c-0.544,-0.296 -0.958,-0.805 -1.247,-1.339c-0.295,-0.538 -0.493,-1.104 -0.7,-1.649c-0.206,-0.545 -0.417,-1.079 -0.727,-1.548c-0.072,-0.126 -0.164,-0.217 -0.246,-0.329c-0.087,-0.107 -0.208,-0.206 -0.309,-0.31c-0.098,-0.085 -0.228,-0.192 -0.329,-0.311c-0.1,-0.121 -0.202,-0.281 -0.173,-0.473c0.024,-0.098 0.154,-0.063 0.146,0.022c0,0.107 0.079,0.217 0.179,0.305c0.104,0.092 0.214,0.159 0.352,0.252c0.117,0.093 0.238,0.168 0.352,0.277c0.109,0.112 0.236,0.222 0.325,0.346c0.394,0.482 0.659,1.041 0.887,1.59c0.227,0.552 0.415,1.105 0.654,1.621c0.24,0.514 0.527,0.996 0.955,1.375c0.068,0.066 -0.035,0.223 -0.119,0.171Z" style="fill:#5f5249;fill-rule:nonzero;"/><path d="M39.478,60.5c-0.064,-0.486 0.21,-0.943 0.529,-1.262c0.333,-0.336 0.745,-0.541 1.109,-0.747c0.371,-0.205 0.704,-0.409 0.926,-0.709c0.229,-0.29 0.341,-0.664 0.368,-1.054c0.046,-0.791 -0.233,-1.607 -0.604,-2.347c-0.375,-0.736 -0.898,-1.432 -1.658,-1.797c-0.12,-0.057 -0.073,-0.184 0.056,-0.139c0.852,0.289 1.494,0.998 1.936,1.752c0.445,0.758 0.778,1.618 0.763,2.555c-0.011,0.463 -0.142,0.958 -0.445,1.348c-0.294,0.397 -0.725,0.644 -1.108,0.837c-0.392,0.195 -0.774,0.349 -1.075,0.597c-0.309,0.241 -0.561,0.57 -0.581,0.954c0,0.124 -0.189,0.166 -0.216,0.012Z" style="fill:#5f5249;fill-rule:nonzero;"/><path d="M28.396,64.438c-0.456,-0.619 -0.865,-1.28 -1.194,-1.983c-0.167,-0.355 -0.314,-0.703 -0.447,-1.078c-0.129,-0.366 -0.236,-0.8 -0.208,-1.215c0.018,-0.408 0.086,-0.767 0.052,-1.106c-0.029,-0.348 -0.127,-0.698 -0.28,-1.025c-0.153,-0.325 -0.353,-0.645 -0.599,-0.909c-0.243,-0.259 -0.566,-0.478 -0.92,-0.472c-0.118,0.008 -0.136,-0.114 -0.017,-0.135c0.426,-0.055 0.816,0.162 1.117,0.418c0.304,0.265 0.547,0.577 0.753,0.923c0.201,0.347 0.354,0.73 0.424,1.138c0.076,0.42 0.029,0.825 0.035,1.177c0.003,0.668 0.314,1.377 0.571,2.078c0.274,0.697 0.57,1.39 0.912,2.067c0.056,0.114 -0.126,0.221 -0.199,0.122Z" style="fill:#5f5249;fill-rule:nonzero;"/><path d="M22.047,25.583c-0.101,-0.537 -0.107,-1.103 0.014,-1.655c0.116,-0.547 0.381,-1.097 0.776,-1.506c0.422,-0.44 0.972,-0.693 1.548,-0.758c0.57,-0.068 1.178,0.08 1.601,0.449c0.064,0.053 -0.013,0.166 -0.086,0.122c-0.439,-0.281 -0.973,-0.319 -1.456,-0.209c-0.48,0.112 -0.935,0.371 -1.253,0.71c-0.684,0.737 -0.932,1.782 -0.951,2.83c-0.002,0.089 -0.177,0.103 -0.193,0.017Z" style="fill:#d6a685;fill-rule:nonzero;"/><path d="M30.039,35.892c-0.763,0.731 -1.284,1.653 -1.579,2.636c-0.147,0.493 -0.228,1.004 -0.252,1.521c-0.019,0.523 0.025,1.032 0.162,1.555c0.018,0.081 -0.106,0.123 -0.137,0.043c-0.211,-0.488 -0.342,-1.048 -0.374,-1.594c-0.035,-0.553 0.032,-1.113 0.183,-1.647c0.299,-1.069 0.975,-2.044 1.896,-2.641c0.075,-0.053 0.16,0.068 0.101,0.127Z" style="fill:#d6a685;fill-rule:nonzero;"/><path d="M34.372,26.022c0.094,-0.339 0.283,-0.664 0.546,-0.913c0.262,-0.252 0.585,-0.439 0.93,-0.551c0.345,-0.11 0.715,-0.149 1.072,-0.093c0.35,0.049 0.711,0.197 0.975,0.4c0.044,0.03 -0.007,0.129 -0.058,0.108c-0.313,-0.145 -0.616,-0.194 -0.94,-0.194c-0.316,0.006 -0.628,0.06 -0.923,0.162c-0.587,0.209 -1.121,0.581 -1.461,1.14c-0.03,0.046 -0.158,-0.006 -0.141,-0.059Z" style="fill:#d6a685;fill-rule:nonzero;"/><path d="M30.15,50.406c0.09,-0.224 0.296,-0.385 0.513,-0.454c0.218,-0.072 0.449,-0.08 0.672,-0.036c0.225,0.049 0.435,0.14 0.617,0.329c0.054,0.049 0.069,0.084 0.103,0.127c0.047,0.063 0.06,0.105 0.091,0.159c0.051,0.103 0.087,0.213 0.112,0.325c0.094,0.454 -0.013,0.909 -0.194,1.302c-0.185,0.396 -0.448,0.745 -0.778,1.038c-0.166,0.146 -0.356,0.274 -0.569,0.365c-0.107,0.044 -0.22,0.08 -0.344,0.102l-0.076,0.012c-0.042,0.005 -0.062,0.003 -0.095,0.006c-0.059,0.001 -0.119,0.008 -0.178,0.002c-0.486,-0.025 -0.913,-0.298 -1.209,-0.624c-0.609,-0.662 -0.851,-1.541 -0.955,-2.363c-0.215,-1.67 0.144,-3.413 1.045,-4.834c0.452,-0.705 1.073,-1.335 1.857,-1.68c0.777,-0.342 1.7,-0.358 2.451,0.035c0.218,0.129 0.172,0.223 -0.058,0.105c-0.724,-0.339 -1.587,-0.237 -2.283,0.101c-0.704,0.35 -1.254,0.957 -1.653,1.636c-0.803,1.37 -1.108,3.014 -0.897,4.578c0.056,0.387 0.132,0.789 0.264,1.138c0.134,0.359 0.322,0.7 0.57,0.973c0.245,0.275 0.56,0.468 0.896,0.492c0.354,0.029 0.67,-0.12 0.964,-0.361c0.557,-0.482 1.005,-1.241 0.9,-1.956c-0.018,-0.086 -0.041,-0.171 -0.076,-0.252l-0.055,-0.109l-0.083,-0.113c-0.094,-0.106 -0.263,-0.206 -0.432,-0.247c-0.337,-0.089 -0.773,-0.015 -0.926,0.291c-0.078,0.197 -0.267,0.218 -0.194,-0.087Z" style="fill:#d6a685;fill-rule:nonzero;"/><path d="M23.366,32c0.548,0.293 1.237,0.177 1.731,-0.15c0.245,-0.165 0.45,-0.408 0.553,-0.653c0.031,-0.049 0.048,-0.146 0.072,-0.219c0.015,-0.05 0.027,-0.135 0.031,-0.201c0.011,-0.14 -0.005,-0.282 -0.046,-0.4c-0.167,-0.519 -0.825,-0.681 -1.406,-0.603c-0.151,0.017 -0.29,0.051 -0.431,0.093l-0.116,0.039l-0.1,0.041c-0.07,0.03 -0.143,0.055 -0.211,0.092c-0.28,0.127 -0.543,0.293 -0.785,0.483c-0.977,0.754 -1.621,1.968 -1.48,3.216c0.155,1.212 1.019,2.417 2.277,2.735c0.196,0.05 0.178,0.161 -0.027,0.123c-1.336,-0.25 -2.38,-1.456 -2.607,-2.808c-0.055,-0.339 -0.053,-0.698 -0.006,-1.029c0.05,-0.353 0.147,-0.68 0.29,-0.997c0.28,-0.631 0.718,-1.187 1.257,-1.617c0.269,-0.215 0.561,-0.403 0.876,-0.548c0.076,-0.04 0.158,-0.068 0.238,-0.102l0.129,-0.05l0.116,-0.038c0.172,-0.05 0.353,-0.09 0.528,-0.106c0.353,-0.036 0.721,-0.012 1.075,0.124c0.35,0.131 0.68,0.439 0.787,0.819c0.059,0.194 0.067,0.386 0.047,0.571c-0.013,0.097 -0.024,0.174 -0.058,0.281c-0.031,0.081 -0.042,0.148 -0.092,0.242c-0.168,0.353 -0.429,0.606 -0.734,0.793c-0.605,0.354 -1.407,0.421 -2.003,0.03c-0.195,-0.138 -0.068,-0.255 0.095,-0.161Z" style="fill:#d6a685;fill-rule:nonzero;"/><path d="M51.496,31.496c-0.421,0.376 -1.068,0.32 -1.518,0.032c-0.481,-0.301 -0.702,-0.875 -0.731,-1.396c-0.047,-1.072 0.445,-2.068 1.15,-2.817c0.714,-0.75 1.716,-1.228 2.742,-1.29c1.022,-0.069 2.054,0.23 2.854,0.83c0.122,0.091 0.048,0.207 -0.085,0.125c-0.818,-0.508 -1.805,-0.704 -2.734,-0.584c-0.935,0.113 -1.792,0.581 -2.427,1.254c-0.629,0.665 -1.085,1.562 -1.087,2.465c0.006,0.442 0.154,0.893 0.499,1.149c0.338,0.256 0.86,0.351 1.218,0.088c0.107,-0.09 0.243,0.015 0.119,0.144Z" style="fill:#d6a685;fill-rule:nonzero;"/><path d="M33.141,15.091c0.339,-0.244 0.739,-0.433 1.182,-0.472c0.448,-0.051 0.924,0.133 1.218,0.496c0.144,0.18 0.257,0.399 0.279,0.647c0.01,0.061 0.005,0.124 0.003,0.186c-0.009,0.061 -0.022,0.15 -0.039,0.19l-0.023,0.073l-0.044,0.096c-0.029,0.055 -0.062,0.109 -0.099,0.157c-0.317,0.398 -0.779,0.522 -1.182,0.62c-0.407,0.083 -0.812,0.175 -1.261,0.171c-0.451,0.001 -0.924,-0.142 -1.274,-0.486c-0.169,-0.166 -0.311,-0.407 -0.35,-0.647c-0.049,-0.27 0,-0.506 0.067,-0.722c0.148,-0.423 0.317,-0.77 0.484,-1.154c0.674,-1.49 1.528,-2.993 2.875,-4.032c0.675,-0.506 1.457,-0.867 2.283,-1.028c0.822,-0.159 1.702,-0.092 2.459,0.269c0.228,0.11 0.175,0.247 -0.065,0.146c-0.738,-0.303 -1.568,-0.325 -2.338,-0.141c-0.772,0.186 -1.495,0.555 -2.11,1.05c-1.231,1.014 -2.022,2.46 -2.676,3.93c-0.158,0.365 -0.341,0.757 -0.463,1.105c-0.056,0.171 -0.08,0.349 -0.056,0.484c0.027,0.164 0.105,0.29 0.221,0.413c0.233,0.239 0.593,0.362 0.954,0.366c0.37,0.012 0.771,-0.065 1.164,-0.136c0.379,-0.074 0.759,-0.195 0.962,-0.446l0.067,-0.098l0.022,-0.04l0.026,-0.072c0.022,-0.055 0.015,-0.068 0.026,-0.107l0.002,-0.118c-0.007,-0.159 -0.08,-0.322 -0.183,-0.462c-0.209,-0.286 -0.568,-0.448 -0.934,-0.426c-0.373,0.008 -0.745,0.161 -1.086,0.358c-0.225,0.137 -0.325,-0.007 -0.111,-0.17Z" style="fill:#d6a685;fill-rule:nonzero;"/><path d="M68.314,32.816c-0.599,0.36 -0.727,1.242 -0.425,1.817c0.317,0.594 1.041,0.885 1.722,0.861c1.39,-0.031 2.646,-1.224 2.813,-2.602c0.103,-0.691 -0.018,-1.416 -0.247,-2.101c-0.23,-0.683 -0.565,-1.347 -1.006,-1.922c-0.436,-0.579 -0.978,-1.092 -1.609,-1.446c-0.314,-0.182 -0.656,-0.313 -1.01,-0.383c-0.359,-0.075 -0.712,-0.083 -1.08,-0.008c-0.228,0.042 -0.267,-0.105 -0.035,-0.162c0.177,-0.055 0.377,-0.067 0.573,-0.089c0.194,0.004 0.389,-0.002 0.581,0.035c0.384,0.055 0.76,0.176 1.105,0.353c0.695,0.346 1.293,0.865 1.78,1.462c0.494,0.599 0.868,1.28 1.135,2.011c0.263,0.726 0.415,1.522 0.305,2.321c-0.191,1.616 -1.649,2.993 -3.303,2.985c-0.406,-0.004 -0.815,-0.09 -1.183,-0.28c-0.185,-0.093 -0.355,-0.218 -0.503,-0.364c-0.079,-0.075 -0.136,-0.147 -0.209,-0.245l-0.077,-0.118l-0.075,-0.15c-0.173,-0.392 -0.191,-0.82 -0.083,-1.214c0.105,-0.391 0.363,-0.76 0.737,-0.94c0.265,-0.102 0.282,0.089 0.094,0.179Z" style="fill:#d6a685;fill-rule:nonzero;"/><path d="M40.851,38.74c-0.35,-1.088 -0.398,-2.291 -0.127,-3.423c0.032,-0.14 0.074,-0.284 0.116,-0.424c0.041,-0.129 0.088,-0.271 0.149,-0.416c0.124,-0.278 0.29,-0.533 0.49,-0.76c0.202,-0.224 0.439,-0.428 0.732,-0.545c0.143,-0.065 0.305,-0.09 0.461,-0.096c0.15,0.007 0.338,0.044 0.449,0.116c0.078,0.04 0.023,0.185 -0.063,0.157c-0.255,-0.089 -0.499,-0.039 -0.719,0.089c-0.219,0.122 -0.402,0.318 -0.556,0.527c-0.154,0.211 -0.278,0.446 -0.373,0.688c-0.044,0.117 -0.082,0.244 -0.125,0.383c-0.035,0.131 -0.071,0.258 -0.102,0.392c-0.255,1.06 -0.312,2.168 -0.168,3.275c0.012,0.093 -0.137,0.124 -0.164,0.037Z" style="fill:#d6a685;fill-rule:nonzero;"/><path d="M59.932,9.04c-0.813,-0.311 -1.677,-0.403 -2.519,-0.314c-0.422,0.045 -0.838,0.138 -1.241,0.279c-0.406,0.144 -0.783,0.325 -1.153,0.575c-0.058,0.037 -0.137,-0.063 -0.085,-0.11c0.316,-0.304 0.711,-0.569 1.121,-0.756c0.415,-0.19 0.861,-0.314 1.317,-0.367c0.908,-0.107 1.86,0.079 2.627,0.558c0.065,0.038 -0.002,0.158 -0.067,0.135Z" style="fill:#d6a685;fill-rule:nonzero;"/><path d="M56,6.034c-0.686,-0.004 -1.353,0.178 -1.959,0.471c-0.607,0.296 -1.164,0.687 -1.659,1.148c-0.996,0.93 -1.758,2.105 -2.53,3.266c-0.06,0.09 -0.168,0.03 -0.117,-0.068c0.642,-1.235 1.324,-2.495 2.363,-3.498c0.518,-0.497 1.124,-0.915 1.797,-1.183c0.668,-0.269 1.407,-0.391 2.116,-0.294c0.12,0.015 0.097,0.157 -0.011,0.158Z" style="fill:#d6a685;fill-rule:nonzero;"/><path d="M51.453,4.472c-0.371,0.087 -0.701,0.213 -1.018,0.37c-0.158,0.078 -0.313,0.166 -0.464,0.264c-0.153,0.103 -0.293,0.204 -0.441,0.339l-0.117,-0.087c0.078,-0.177 0.203,-0.359 0.343,-0.505c0.142,-0.151 0.309,-0.279 0.493,-0.376c0.368,-0.196 0.806,-0.266 1.206,-0.17l-0.002,0.165Z" style="fill:#d6a685;fill-rule:nonzero;"/><path d="M33.566,34.993c-0.54,0.514 -1.065,1.033 -1.486,1.609c-0.209,0.289 -0.387,0.593 -0.506,0.92c-0.116,0.335 -0.165,0.665 -0.099,1.043c0.007,0.057 -0.119,0.089 -0.138,0.032c-0.066,-0.17 -0.114,-0.366 -0.128,-0.57c-0.012,-0.198 0.002,-0.4 0.047,-0.595c0.084,-0.392 0.274,-0.75 0.501,-1.065c0.462,-0.631 1.073,-1.108 1.719,-1.493c0.054,-0.033 0.132,0.078 0.09,0.119Z" style="fill:#d6a685;fill-rule:nonzero;"/><path d="M48.435,36.457c-0.716,0.892 -1.346,1.772 -1.921,2.765c-0.022,0.039 -0.151,-0.011 -0.14,-0.056c0.274,-1.13 0.964,-2.193 1.951,-2.831l0.11,0.122Z" style="fill:#d6a685;fill-rule:nonzero;"/><path d="M65.64,38.788c-0.501,-0.65 -1.007,-1.285 -1.517,-1.916c-0.265,-0.308 -0.499,-0.653 -0.785,-0.889c-0.282,-0.228 -0.679,-0.454 -0.971,-0.212c-0.049,0.042 -0.143,-0.047 -0.102,-0.098c0.141,-0.195 0.427,-0.253 0.648,-0.208c0.229,0.038 0.431,0.14 0.616,0.259c0.179,0.117 0.355,0.285 0.487,0.432c0.141,0.152 0.28,0.308 0.411,0.467c0.533,0.636 0.985,1.339 1.343,2.085c0.031,0.063 -0.09,0.131 -0.13,0.08Z" style="fill:#d6a685;fill-rule:nonzero;"/><path d="M23.574,46.193c-0.595,0.226 -1.175,0.481 -1.701,0.794c-0.518,0.317 -0.992,0.707 -1.221,1.216c-0.237,0.514 -0.227,1.089 0.003,1.642c0.219,0.552 0.602,1.059 1.027,1.525c0.067,0.073 -0.054,0.21 -0.135,0.148c-0.508,-0.399 -0.989,-0.871 -1.307,-1.484c-0.155,-0.305 -0.269,-0.647 -0.286,-1.008c-0.006,-0.181 -0.003,-0.359 0.04,-0.542c0.021,-0.143 0.087,-0.345 0.162,-0.513c0.305,-0.672 0.905,-1.104 1.494,-1.397c0.6,-0.294 1.237,-0.456 1.87,-0.574c0.107,-0.019 0.148,0.157 0.054,0.193Z" style="fill:#d6a685;fill-rule:nonzero;"/></g></svg>