<?xml version="1.0" encoding="UTF-8" standalone="no"?><!DOCTYPE svg PUBLIC "-//W3C//DTD SVG 1.1//EN" "http://www.w3.org/Graphics/SVG/1.1/DTD/svg11.dtd"><svg width="100%" height="100%" viewBox="0 0 100 133" version="1.1" xmlns="http://www.w3.org/2000/svg" xmlns:xlink="http://www.w3.org/1999/xlink" xml:space="preserve" style="fill-rule:evenodd;clip-rule:evenodd;stroke-linejoin:round;stroke-miterlimit:1.41421;"><g><path d="M98.687,70.381c0.073,2.736 -0.132,5.414 -0.589,8.017c-0.456,2.604 -1.163,5.134 -2.091,7.573c-7.825,21.709 -31.61,36.413 -54.53,32.52c-10.812,-1.297 -19.894,-6.054 -28.11,-12.973c-2.595,-2.163 -4.325,-4.758 -6.368,-6.944c-1.146,-1.488 -2.2,-3.066 -3.146,-4.733c-5.622,-10.379 -2.595,-22.487 -0.655,-33.284c0.608,-2.712 1.338,-5.411 2.238,-8.039c3.598,-10.509 9.935,-19.867 18.766,-25.775c2.506,-1.272 5.252,-2.268 8.193,-2.96c3.46,-0.865 6.486,-2.162 9.963,-1.711c2.813,-0.14 5.639,-0.03 8.447,0.311c19.659,2.391 38.458,16.104 46.026,34.267c0.865,1.73 0.865,3.892 1.202,5.643c0.43,2.631 0.654,5.334 0.654,8.088Z" style="fill:#f68b62;fill-rule:nonzero;"/><path d="M94.718,71.119c1.208,-2.732 1.677,-5.713 1.594,-8.654c-0.084,-2.947 -0.697,-5.865 -1.719,-8.632c-2.064,-5.564 -5.618,-10.501 -9.368,-15.234c-0.291,-0.368 0.092,-0.723 0.427,-0.375c2.115,2.183 4.145,4.475 5.938,6.97c1.792,2.491 3.346,5.197 4.436,8.111c1.088,2.916 1.67,6.04 1.599,9.16c-0.067,3.113 -0.826,6.245 -2.38,8.922c-0.255,0.454 -0.712,0.164 -0.527,-0.268Z" style="fill:#f68b62;fill-rule:nonzero;"/><path d="M5.174,50.734c-1.356,3.207 -2.715,6.443 -3.303,9.773c-0.299,1.685 -0.374,3.376 -0.376,5.103c0,0.859 0.012,1.736 0.037,2.592l0.082,2.62c0.1,3.49 0.155,6.997 0.178,10.475c0.025,1.738 0.066,3.461 0.335,5.142c0.265,1.673 0.774,3.322 1.735,4.718c0.31,0.443 -0.094,0.774 -0.451,0.348c-1.159,-1.404 -1.842,-3.139 -2.237,-4.883c-0.401,-1.752 -0.542,-3.532 -0.649,-5.282c-0.184,-3.507 -0.328,-6.987 -0.437,-10.483l-0.075,-2.62c-0.018,-0.889 -0.017,-1.76 0,-2.648c0.037,-1.764 0.177,-3.578 0.567,-5.322c0.794,-3.547 2.409,-6.714 4.06,-9.788c0.278,-0.517 0.749,-0.255 0.534,0.255Z" style="fill:#f68b62;fill-rule:nonzero;"/><path d="M41.358,117.168c3.109,0.582 6.18,1.153 9.255,1.481c3.075,0.325 6.156,0.404 9.26,-0.106c0.242,-0.035 0.376,0.47 0.137,0.552c-3.015,1.119 -6.357,1.4 -9.557,1.072c-3.217,-0.324 -6.326,-1.214 -9.264,-2.433c-0.248,-0.101 -0.077,-0.611 0.169,-0.566Z" style="fill:#f68b62;fill-rule:nonzero;"/><path d="M98.742,78.705c-0.428,-1.342 -0.347,-2.426 0.191,-3.723c0.021,-0.051 0.541,-0.092 0.568,-0.043c0.677,1.236 0.709,2.712 -0.177,3.873c-0.037,0.049 -0.565,-0.054 -0.582,-0.107Z" style="fill:#f68b62;fill-rule:nonzero;"/><path d="M96.47,72.003c0.938,2.705 1.13,5.648 0.89,8.49c-0.236,2.855 -0.854,5.64 -1.545,8.368c-0.176,0.678 -0.339,1.358 -0.557,2.065c-0.22,0.706 -0.506,1.423 -0.93,2.089c-0.411,0.653 -0.897,1.217 -1.38,1.746l-1.449,1.537c-1.934,2.034 -3.898,4.041 -5.888,6.021c-0.308,0.306 -0.706,-0.032 -0.424,-0.38c1.767,-2.183 3.557,-4.348 5.371,-6.49c0.892,-1.084 1.889,-2.109 2.531,-3.195c0.638,-1.062 0.892,-2.4 1.247,-3.772c0.678,-2.712 1.343,-5.407 1.719,-8.132c0.378,-2.719 0.435,-5.489 -0.155,-8.187c-0.091,-0.451 0.427,-0.591 0.57,-0.16Z" style="fill:#f68b62;fill-rule:nonzero;"/><path d="M96.163,78.466c0.037,-1.484 0.123,-2.984 0.43,-4.484c0.152,-0.754 0.365,-1.495 0.642,-2.219c0.272,-0.713 0.569,-1.373 0.784,-2.018c0.859,-2.541 0.328,-5.469 -0.927,-8.079c-0.099,-0.207 0.342,-0.487 0.485,-0.298c0.916,1.2 1.638,2.598 2.015,4.123c0.383,1.516 0.385,3.195 -0.125,4.738c-0.249,0.759 -0.577,1.442 -0.862,2.097c-0.281,0.643 -0.53,1.309 -0.741,1.987c-0.432,1.361 -0.753,2.793 -1.115,4.232c-0.06,0.242 -0.592,0.156 -0.586,-0.079Z" style="fill:#f68b62;fill-rule:nonzero;"/><path d="M33.147,126.231c0.138,0.099 0.328,0.147 0.501,0.177c1.713,0.325 3.533,0.558 5.164,0.009c-0.178,1.176 -0.342,2.356 -0.493,3.541c-0.131,0.468 -0.208,0.948 -0.221,1.432c-3.503,0.562 -7.07,0.735 -10.617,0.519c1.86,-1.92 3.711,-3.849 5.57,-5.769l0.096,0.091Z" style="fill:#3a4d57;fill-rule:nonzero;"/><path d="M75.142,125.461c-0.013,-0.082 -0.026,-0.165 -0.039,-0.246l0.013,-0.005l0.048,0.086c2.067,2.185 4.022,4.481 5.834,6.877c-3.257,0.545 -6.621,0.424 -9.834,-0.351l0.008,-0.034c-0.385,-1.743 -0.765,-3.49 -1.146,-5.233c1.76,0.333 3.646,-0.069 5.116,-1.094Z" style="fill:#3a4d57;fill-rule:nonzero;"/><path d="M41.268,113.326l-0.004,0.057c-0.978,4.311 -1.795,8.657 -2.452,13.034c-1.631,0.549 -3.451,0.316 -5.164,-0.009c-0.173,-0.03 -0.363,-0.078 -0.501,-0.177c0.704,-4.433 1.413,-8.861 2.122,-13.294c1.999,0.13 3.996,0.26 5.999,0.389Z" style="fill:#f1d4b8;fill-rule:nonzero;"/><path d="M75.103,125.215c0.013,0.081 0.026,0.164 0.039,0.246c-1.47,1.025 -3.356,1.427 -5.116,1.094c-1.068,-4.908 -2.115,-9.821 -3.144,-14.738c1.868,-0.623 3.737,-1.25 5.605,-1.873l0.047,0.139c0.857,5.042 1.713,10.089 2.569,15.132Z" style="fill:#f1d4b8;fill-rule:nonzero;"/><path d="M35.793,107.086c3.126,0.484 6.284,0.783 9.445,0.887c0.242,0.012 0.484,0.021 0.726,0.026c-0.259,1.647 -0.519,3.295 -0.783,4.942c-0.03,0.199 -0.073,0.42 -0.242,0.528c-0.129,0.087 -0.298,0.078 -0.449,0.069c-1.073,-0.069 -2.15,-0.143 -3.222,-0.212c-2.003,-0.129 -4,-0.259 -5.999,-0.389c-0.397,-0.026 -0.795,-0.052 -1.193,-0.078c-0.147,-2.002 0.07,-4.03 0.64,-5.955l0.13,0.035c0.315,0.052 0.632,0.104 0.947,0.147Z" style="fill:#4d6571;fill-rule:nonzero;"/><path d="M73.17,104.574c0.199,-0.057 0.402,-0.113 0.601,-0.174c0.104,1.436 0.463,2.85 1.056,4.16c0.064,0.148 0.133,0.312 0.064,0.459c-0.06,0.134 -0.216,0.195 -0.359,0.242c-0.683,0.229 -1.362,0.455 -2.045,0.683c-1.868,0.623 -3.737,1.25 -5.605,1.873c-0.735,0.246 -1.466,0.489 -2.201,0.735c-0.086,0.03 -0.181,0.056 -0.264,0.022c-0.112,-0.043 -0.151,-0.173 -0.181,-0.29c-0.407,-1.617 -0.813,-3.243 -1.22,-4.865c0.312,-0.086 0.627,-0.169 0.939,-0.255c3.083,-0.83 6.153,-1.696 9.215,-2.59Z" style="fill:#4d6571;fill-rule:nonzero;"/><path d="M43.011,51.792c-0.277,0.441 -0.848,0.558 -1.38,0.606l0,-0.014c-0.514,0 -1.016,-0.432 -1.128,-0.955c-0.139,-0.614 0.159,-1.263 0.614,-1.704c0.371,-0.359 0.964,-0.606 1.396,-0.32c0.29,0.186 0.402,0.545 0.498,0.874c0.147,0.501 0.281,1.076 0,1.513Z" style="fill:#3a4d57;fill-rule:nonzero;"/><path d="M60.655,50.305c-0.467,0.272 -1.116,0.237 -1.496,-0.143l0.017,-0.026c-0.32,-0.212 -0.562,-0.563 -0.619,-0.947c-0.086,-0.601 0.238,-1.229 0.753,-1.553c0.666,-0.419 1.695,-0.255 2.041,0.45c0.134,0.272 0.16,0.588 0.121,0.887c-0.069,0.536 -0.35,1.059 -0.817,1.332Z" style="fill:#3a4d57;fill-rule:nonzero;"/><path d="M44.888,59.559c4.571,-0.848 9.146,-1.695 13.717,-2.543c-0.476,2.885 -1.09,5.933 -3.157,7.992c-0.402,0.402 -0.865,0.761 -1.392,0.968c-0.541,0.208 -1.133,0.256 -1.713,0.234c-3.606,-0.138 -6.91,-3.083 -7.455,-6.651Z" style="fill:#4d6571;fill-rule:nonzero;"/><path d="M41.631,52.398c0.532,-0.048 1.103,-0.165 1.38,-0.606c0.281,-0.437 0.147,-1.012 0,-1.513c-0.096,-0.329 -0.208,-0.688 -0.498,-0.874c-0.432,-0.286 -1.025,-0.039 -1.396,0.32c-0.455,0.441 -0.753,1.09 -0.614,1.704c0.112,0.523 0.614,0.955 1.128,0.955l0,0.014Zm3.603,-1.488c0.121,0.428 0.246,0.848 0.38,1.272c0.095,0.298 0.182,0.666 -0.03,0.903c-0.108,0.126 -0.277,0.177 -0.441,0.225c-1.968,0.584 -3.957,1.09 -5.968,1.518c-0.156,-0.718 -0.308,-1.436 -0.455,-2.158c-0.082,-0.402 -0.159,-0.804 -0.237,-1.206c-0.649,-3.361 -1.173,-6.751 -1.566,-10.15c-0.043,-0.355 -0.082,-0.714 -0.121,-1.069c1.059,-0.328 2.119,-0.657 3.179,-0.985l0.017,-0.035c1.068,0.459 2.171,0.839 3.3,1.137c0.294,3.568 0.947,7.106 1.942,10.548Z" style="fill:#4d6571;fill-rule:nonzero;"/><path d="M61.351,48.086c-0.346,-0.705 -1.375,-0.869 -2.041,-0.45c-0.515,0.324 -0.839,0.952 -0.753,1.553c0.057,0.384 0.299,0.735 0.619,0.947l-0.017,0.026c0.38,0.38 1.029,0.415 1.496,0.143c0.467,-0.273 0.748,-0.796 0.817,-1.332c0.039,-0.299 0.013,-0.615 -0.121,-0.887Zm1.393,-0.394c0.091,1.215 0.212,2.431 0.359,3.642c-2.21,0.428 -4.42,0.86 -6.63,1.288c-0.108,-1.189 -0.195,-2.383 -0.264,-3.576c-0.173,-2.858 -0.251,-5.721 -0.229,-8.584c0.325,-0.091 0.644,-0.203 0.96,-0.324c1.272,-0.489 2.452,-1.181 3.555,-1.981c0.718,0.095 1.427,0.195 2.145,0.294c-0.009,0.164 -0.017,0.329 -0.022,0.493c-0.134,2.915 -0.091,5.838 0.126,8.748Z" style="fill:#4d6571;fill-rule:nonzero;"/><path d="M63.103,51.334c-0.147,-1.211 -0.268,-2.427 -0.359,-3.642c0.281,-0.043 0.558,-0.091 0.839,-0.142c1.418,13.912 1.846,27.928 5.648,41.477c1.444,5.142 2.655,10.357 3.939,15.547c-3.062,0.894 -6.132,1.76 -9.215,2.59l-0.018,-0.065c-0.93,-3.222 -1.972,-6.228 -3.204,-9.354c-1.28,-3.243 -2.478,-6.517 -3.598,-9.821c-0.165,-0.484 -7.162,0.035 -7.841,0.047c-1.353,6.66 -2.702,13.32 -4.056,19.98l0,0.022c-3.161,-0.104 -6.319,-0.403 -9.445,-0.887c1.431,-10.941 2.824,-21.895 3.542,-32.906c0.142,-2.158 0.186,-4.32 0.164,-6.478c0.121,-1.034 0.026,-2.197 -0.056,-3.174c-0.009,-0.095 -0.022,-0.182 -0.034,-0.264c-0.152,-3.862 -0.464,-7.723 -0.766,-11.577l0.077,-0.017c0.147,0.722 0.299,1.44 0.455,2.158c2.011,-0.428 4,-0.934 5.968,-1.518c0.164,-0.048 0.333,-0.099 0.441,-0.225c0.212,-0.237 0.125,-0.605 0.03,-0.903c-0.134,-0.424 -0.259,-0.844 -0.38,-1.272c3.706,-0.286 7.386,-0.913 10.975,-1.864c0.069,1.193 0.156,2.387 0.264,3.576c2.21,-0.428 4.42,-0.86 6.63,-1.288Zm-18.215,8.225c0.545,3.568 3.849,6.513 7.455,6.651c0.58,0.022 1.172,-0.026 1.713,-0.234c0.527,-0.207 0.99,-0.566 1.392,-0.968c2.067,-2.059 2.681,-5.107 3.157,-7.992c-4.571,0.848 -9.146,1.695 -13.717,2.543Z" style="fill:#3a4d57;fill-rule:nonzero;"/><path d="M74.948,37.249c0.281,1.41 0.566,2.819 0.852,4.229c0.216,1.072 0.432,2.145 0.648,3.217c-4.242,1.146 -8.537,2.098 -12.865,2.855c-0.281,0.051 -0.558,0.099 -0.839,0.142c-0.217,-2.91 -0.26,-5.833 -0.126,-8.748c4.173,-0.043 8.144,-1.782 11.966,-3.486c0.121,0.597 0.243,1.194 0.364,1.791Z" style="fill:#f16461;fill-rule:nonzero;"/><path d="M55.98,40.462c-0.022,2.863 0.056,5.726 0.229,8.584c-3.589,0.951 -7.269,1.578 -10.975,1.864c-0.995,-3.442 -1.648,-6.98 -1.942,-10.548c1.124,0.311 2.275,0.537 3.438,0.684c-0.208,1.288 0.393,2.664 1.457,3.425c1.116,0.791 2.673,0.886 3.905,0.289c1.051,-0.505 1.89,-1.578 1.856,-2.746c-0.013,-0.354 -0.1,-0.713 -0.079,-1.064c0.714,-0.116 1.419,-0.272 2.111,-0.488Z" style="fill:#f16461;fill-rule:nonzero;"/><path d="M26.033,48.54c-0.152,-0.22 -0.303,-0.437 -0.459,-0.653c0.459,-0.731 1.224,-1.202 1.963,-1.639c3.049,-1.791 6.18,-3.438 9.38,-4.934c0.393,3.399 0.917,6.789 1.566,10.15c-2.846,1.158 -5.609,2.521 -8.256,4.073c-0.575,-1.115 -1.185,-2.218 -1.829,-3.3c-0.744,-1.258 -1.535,-2.495 -2.365,-3.697Z" style="fill:#f16461;fill-rule:nonzero;"/><path d="M19.974,41.859l0.047,0.021l-0.03,0.082c-0.034,0.13 -0.008,0.269 0.026,0.398c0.151,0.558 0.454,1.077 0.86,1.484c-0.808,2.088 -2.14,3.978 -3.831,5.448c-0.813,0.705 -1.725,1.324 -2.759,1.631c-2.037,0.601 -4.199,-0.082 -6.31,-0.32c1.644,-0.333 2.699,-1.942 3.309,-3.503c0.61,-1.565 0.994,-3.278 2.106,-4.536c1.604,-1.817 4.631,-2.141 6.582,-0.705Z" style="fill:#3a4d57;fill-rule:nonzero;"/><path d="M23.044,42.953c-0.004,0.199 -0.056,0.402 -0.151,0.579c-0.281,0.545 -0.977,0.839 -1.561,0.688l-0.005,0c-0.16,-0.108 -0.311,-0.238 -0.45,-0.376c-0.406,-0.407 -0.709,-0.926 -0.86,-1.484c-0.034,-0.129 -0.06,-0.268 -0.026,-0.398l0.03,-0.082c0.065,-0.142 0.195,-0.251 0.329,-0.333c0.355,-0.22 0.787,-0.315 1.198,-0.277c0.307,0.031 0.605,0.139 0.856,0.321c0.42,0.307 0.662,0.843 0.64,1.362Z" style="fill:#f16461;fill-rule:nonzero;"/><path d="M33.613,13.922c-0.761,0.64 -1.673,1.25 -2.642,1.072c-0.199,-0.038 -0.398,-0.112 -0.545,-0.246c-0.35,-0.324 -0.32,-0.878 -0.25,-1.354c0.22,-1.535 0.605,-3.126 1.639,-4.286c0.259,-0.285 0.626,-0.561 0.999,-0.454c0.281,0.078 0.454,0.347 0.605,0.597c0.333,0.549 0.662,1.099 0.995,1.648l0.021,0.035c-0.311,0.203 -0.584,0.467 -0.796,0.769c-0.103,0.147 -0.194,0.307 -0.237,0.485c-0.057,0.216 -0.035,0.445 -0.005,0.67c0.048,0.355 0.121,0.709 0.251,1.038l-0.035,0.026Z" style="fill:#f16461;fill-rule:nonzero;"/><path d="M40.991,11.465c0.061,0.939 -0.385,1.83 -0.835,2.656c-0.432,0.783 -0.882,1.57 -1.504,2.21c-0.238,0.246 -0.511,0.471 -0.839,0.557c-0.567,0.147 -1.172,-0.168 -1.536,-0.631c-0.354,-0.449 -0.528,-1.016 -0.683,-1.569c0.177,-0.083 0.338,-0.191 0.476,-0.325c0.376,-0.363 0.601,-0.86 0.705,-1.371c0.082,-0.397 0.082,-0.83 -0.018,-1.224c0.943,-0.428 1.908,-0.787 2.898,-1.085c0.324,-0.1 0.705,-0.182 0.99,0.009c0.242,0.164 0.329,0.484 0.346,0.773Z" style="fill:#f16461;fill-rule:nonzero;"/><path d="M35.594,14.688c-0.294,0.151 -0.627,0.216 -0.951,0.159c-0.485,-0.082 -0.921,-0.454 -1.03,-0.925l0.035,-0.026c-0.13,-0.329 -0.203,-0.683 -0.251,-1.038c-0.03,-0.225 -0.052,-0.454 0.005,-0.67c0.043,-0.178 0.134,-0.338 0.237,-0.485c0.212,-0.302 0.485,-0.566 0.796,-0.769c0.307,-0.199 0.648,-0.346 1.012,-0.42c0.104,-0.022 0.212,-0.039 0.316,-0.017c0.125,0.022 0.233,0.091 0.333,0.173c0.341,0.277 0.557,0.67 0.661,1.098c0.1,0.394 0.1,0.827 0.018,1.224c-0.104,0.511 -0.329,1.008 -0.705,1.371c-0.138,0.134 -0.299,0.242 -0.476,0.325Z" style="fill:#f68b62;fill-rule:nonzero;"/><path d="M30.599,33.028l-0.009,-0.061c0.247,-0.039 0.494,-0.086 0.736,-0.155c1.085,1.336 2.331,2.525 3.697,3.55c-0.16,0.757 -0.337,1.522 -0.722,2.197c-0.415,0.731 -1.111,1.345 -1.946,1.44c-0.969,0.117 -1.868,-0.476 -2.664,-1.038c0.195,0.96 -0.264,2.02 -1.098,2.53c-0.831,0.514 -1.981,0.445 -2.751,-0.16c0.463,0.567 -0.008,1.492 -0.692,1.747c-0.67,0.251 -1.414,0.069 -2.106,-0.125c0.022,-0.519 -0.22,-1.055 -0.64,-1.362c-0.251,-0.182 -0.549,-0.29 -0.856,-0.321l0.035,-0.264c-0.187,-0.302 -0.364,-0.613 -0.437,-0.964c-0.087,-0.398 -0.017,-0.852 0.281,-1.129c0.307,-0.289 0.782,-0.319 1.185,-0.19c0.398,0.13 0.731,0.402 1.05,0.671c-0.44,-0.982 0.139,-2.236 1.116,-2.699c0.973,-0.467 2.189,-0.22 3.045,0.437c-0.411,-1.803 0.947,-3.81 2.776,-4.104Z" style="fill:#3a4d57;fill-rule:nonzero;"/><path d="M57.126,27.406c-0.372,-1.496 -0.532,-3.049 -0.467,-4.589c0.017,-0.462 0.061,-0.938 0.268,-1.349c0.087,-0.164 0.212,-0.328 0.389,-0.38c0.359,-0.1 0.662,0.281 0.809,0.623c0.562,1.284 0.606,2.728 0.64,4.134c0.013,0.475 0.022,0.968 -0.156,1.41c-0.177,0.441 -0.596,0.821 -1.072,0.804c-0.095,-0.005 -0.195,-0.026 -0.268,-0.091c-0.134,-0.108 -0.147,-0.307 -0.143,-0.48l0,-0.082Z" style="fill:#3a4d57;fill-rule:nonzero;"/><path d="M41.895,29.261c-0.26,-0.052 -0.458,-0.341 -0.363,-0.584l0.06,-0.021c-0.705,-2.063 -0.947,-4.277 -0.709,-6.444c0.03,-0.259 0.1,-0.566 0.342,-0.662c0.246,-0.095 0.51,0.087 0.683,0.286c0.666,0.765 0.813,1.842 0.93,2.85c0.134,1.185 0.268,2.391 0.026,3.559c-0.052,0.255 -0.126,0.515 -0.286,0.718c-0.164,0.207 -0.428,0.35 -0.683,0.298Z" style="fill:#3a4d57;fill-rule:nonzero;"/><path d="M42.755,19.021c-0.916,0.103 -1.833,0.212 -2.75,0.311l-0.004,-0.039c0.117,-0.653 0.649,-1.233 1.306,-1.323c0.657,-0.087 1.362,0.393 1.448,1.051Z" style="fill:#3a4d57;fill-rule:nonzero;"/><path d="M59.02,17.892c-1.012,-0.134 -2.045,-0.095 -3.044,0.125c0.065,-0.458 0.324,-0.891 0.696,-1.159c0.428,-0.315 1.021,-0.415 1.514,-0.216c0.492,0.199 0.856,0.714 0.834,1.25Z" style="fill:#3a4d57;fill-rule:nonzero;"/><path d="M40.156,14.121c0.45,-0.826 0.896,-1.717 0.835,-2.656c-0.017,-0.289 -0.104,-0.609 -0.346,-0.773c-0.285,-0.191 -0.666,-0.109 -0.99,-0.009c-0.99,0.298 -1.955,0.657 -2.898,1.085c-0.104,-0.428 -0.32,-0.821 -0.661,-1.098c-0.1,-0.082 -0.208,-0.151 -0.333,-0.173c-0.104,-0.022 -0.212,-0.005 -0.316,0.017c-0.364,0.074 -0.705,0.221 -1.012,0.42l-0.021,-0.035c-0.333,-0.549 -0.662,-1.099 -0.995,-1.648c-0.151,-0.25 -0.324,-0.519 -0.605,-0.597c-0.373,-0.107 -0.74,0.169 -0.999,0.454c-1.034,1.16 -1.419,2.751 -1.639,4.286c-0.07,0.476 -0.1,1.03 0.25,1.354c0.147,0.134 0.346,0.208 0.545,0.246c0.969,0.178 1.881,-0.432 2.642,-1.072c0.109,0.471 0.545,0.843 1.03,0.925c0.324,0.057 0.657,-0.008 0.951,-0.159c0.155,0.553 0.329,1.12 0.683,1.569c0.364,0.463 0.969,0.778 1.536,0.631c0.328,-0.086 0.601,-0.311 0.839,-0.557c0.622,-0.64 1.072,-1.427 1.504,-2.21Zm29.403,-1.899c0.865,3.084 0.818,6.371 0.312,9.536c-0.39,-0.043 -0.8,-0.021 -1.198,0.013c-0.762,1.825 -1.289,3.745 -1.574,5.704c-0.372,-2.283 -0.494,-4.606 -0.909,-6.88c-0.415,-2.279 -1.15,-4.554 -2.594,-6.362c-0.839,-1.055 -1.895,-1.92 -2.976,-2.728c-1.215,-0.909 -2.612,-2.033 -2.529,-3.547l-0.005,-0.004c-3.697,4.467 -9.933,5.674 -15.015,8.472c-4.757,2.625 -8.627,6.82 -10.859,11.776c-0.177,-1.181 -0.35,-2.362 -0.523,-3.542c-0.277,1.812 -0.687,3.606 -1.232,5.358c-0.372,-1.959 -1.241,-3.827 -2.509,-5.367l-0.03,-0.052c-0.588,0.346 -1.098,0.878 -1.501,1.492l-0.121,-0.078c-2.832,-3.602 -2.906,-8.873 -0.951,-13.016c1.954,-4.148 5.639,-7.261 9.674,-9.437c5.95,-3.213 13.099,-4.601 19.582,-2.69c1.76,0.519 3.649,1.488 4.142,3.248c0.71,-0.553 1.657,-0.765 2.556,-0.687c1.025,0.09 1.99,0.527 2.854,1.085c2.699,1.73 4.541,4.614 5.406,7.706Z" style="fill:#3a4d57;fill-rule:nonzero;"/><path d="M50.462,32.245c2.499,-0.428 4.999,-0.856 7.503,-1.285c-0.471,1.423 -0.978,2.872 -1.911,4.044c-1.626,2.037 -4.476,2.945 -7.028,2.409c-2.469,-0.519 -4.597,-2.301 -5.712,-4.562l0.021,-0.014c2.383,0.221 4.77,-0.186 7.127,-0.592Z" style="fill:#f68b62;fill-rule:nonzero;"/><path d="M51.236,29.957c-0.939,0.07 -1.872,0.143 -2.815,0.221l-0.005,-0.035c0.242,-0.592 0.766,-1.09 1.397,-1.167c0.636,-0.078 1.324,0.35 1.423,0.981Z" style="fill:#d7b58d;fill-rule:nonzero;"/><path d="M52.265,41.154c0.536,-0.048 1.073,-0.117 1.604,-0.204c-0.021,0.351 0.066,0.71 0.079,1.064c0.034,1.168 -0.805,2.241 -1.856,2.746c-1.232,0.597 -2.789,0.502 -3.905,-0.289c-1.064,-0.761 -1.665,-2.137 -1.457,-3.425c1.833,0.237 3.698,0.276 5.535,0.108Z" style="fill:#d7b58d;fill-rule:nonzero;"/><path d="M39.409,64.264c0.047,1.146 0.077,2.292 0.09,3.438c-0.026,0.251 -0.069,0.493 -0.125,0.722c-0.096,0.39 -0.256,0.792 -0.584,1.017c-0.303,0.207 -0.688,0.229 -1.055,0.242c-3.105,0.091 -6.215,-0.099 -9.285,-0.567c-2.85,-0.436 -5.903,-0.847 -8.58,-1.907c-1.12,-0.441 -2.236,-0.986 -3.075,-1.855c-1.357,-1.406 -1.816,-3.529 -1.488,-5.458c0.333,-1.928 1.367,-3.68 2.638,-5.167c2.215,-2.591 5.142,-4.468 8.088,-6.189c0.83,1.202 1.621,2.439 2.365,3.697c-2.724,0.904 -5.432,2.958 -6.591,5.627c-0.199,0.454 -0.32,0.968 -0.19,1.444c0.229,0.83 1.111,1.276 1.912,1.596c1.708,0.67 3.468,1.219 5.258,1.626c0.874,0.203 1.829,0.359 2.625,-0.048c0.476,-0.242 0.843,-0.666 1.324,-0.908c0.558,-0.281 1.21,-0.29 1.838,-0.294c0.57,0 1.175,0.004 1.651,0.32c0.48,0.312 0.718,1.051 0.32,1.466c1.428,-0.303 2.608,-0.311 2.864,1.198Z" style="fill:#f1d4b8;fill-rule:nonzero;"/><path d="M98.452,8.235c0.51,1.739 -0.143,3.585 -0.831,5.263c-2.322,5.665 -5.163,11.145 -8.839,16.04c-3.55,4.731 -7.901,8.917 -12.982,11.94c-0.286,-1.41 -0.571,-2.819 -0.852,-4.229c6.132,-4.991 10.742,-11.828 13.069,-19.383c0.177,-0.584 0.345,-1.181 0.302,-1.79c-0.065,-0.922 -0.605,-1.73 -0.968,-2.582c-0.424,-0.99 -0.623,-2.08 -0.567,-3.161c0.017,-0.347 0.186,-0.805 0.532,-0.757c0.186,0.026 0.311,0.194 0.424,0.346c0.592,0.787 1.427,1.388 2.361,1.699c0.138,0.048 0.298,0.082 0.428,0.018c0.143,-0.078 0.195,-0.251 0.238,-0.407c0.441,-1.708 0.882,-3.412 1.323,-5.116c0.074,-0.29 0.16,-0.597 0.385,-0.791c0.19,-0.169 0.45,-0.225 0.705,-0.264c2.21,-0.307 4.636,1.029 5.272,3.174Z" style="fill:#f1d4b8;fill-rule:nonzero;"/><path d="M42.864,28.245c0.242,-1.168 0.108,-2.374 -0.026,-3.559c-0.117,-1.008 -0.264,-2.085 -0.93,-2.85c-0.173,-0.199 -0.437,-0.381 -0.683,-0.286c-0.242,0.096 -0.312,0.403 -0.342,0.662c-0.238,2.167 0.004,4.381 0.709,6.444l-0.06,0.021c-0.095,0.243 0.103,0.532 0.363,0.584c0.255,0.052 0.519,-0.091 0.683,-0.298c0.16,-0.203 0.234,-0.463 0.286,-0.718Zm15.745,-0.99c0.178,-0.442 0.169,-0.935 0.156,-1.41c-0.034,-1.406 -0.078,-2.85 -0.64,-4.134c-0.147,-0.342 -0.45,-0.723 -0.809,-0.623c-0.177,0.052 -0.302,0.216 -0.389,0.38c-0.207,0.411 -0.251,0.887 -0.268,1.349c-0.065,1.54 0.095,3.093 0.467,4.589l0,0.082c-0.004,0.173 0.009,0.372 0.143,0.48c0.073,0.065 0.173,0.086 0.268,0.091c0.476,0.017 0.895,-0.363 1.072,-0.804Zm11.262,-5.497c0.406,0.043 0.795,0.16 1.128,0.393c0.627,0.437 0.93,1.211 1.073,1.964c0.277,1.457 0.077,3.006 -0.567,4.346c-0.246,0.515 -0.566,1.012 -1.037,1.336c-0.796,0.554 -1.847,0.511 -2.816,0.446c-0.13,-0.009 -0.259,-0.017 -0.389,-0.026c-1.505,2.958 -3.676,5.57 -6.305,7.594c-0.151,0.117 -0.308,0.233 -0.463,0.346c-1.103,0.8 -2.283,1.492 -3.555,1.981c-0.316,0.121 -0.636,0.233 -0.96,0.324c-0.692,0.216 -1.397,0.372 -2.111,0.488c-0.531,0.087 -1.068,0.156 -1.604,0.204c-1.837,0.168 -3.702,0.129 -5.535,-0.108c-1.164,-0.147 -2.314,-0.373 -3.438,-0.684c-1.129,-0.298 -2.232,-0.678 -3.3,-1.137c-1.769,-0.752 -3.442,-1.708 -4.969,-2.863c-1.366,-1.025 -2.612,-2.214 -3.697,-3.55c-0.242,0.069 -0.489,0.116 -0.736,0.155c-0.298,0.043 -0.596,0.069 -0.894,0.074c-0.809,0.013 -1.64,-0.117 -2.349,-0.515c-1.31,-0.735 -1.994,-2.335 -1.868,-3.836c0.069,-0.864 0.411,-1.799 0.938,-2.599c0.403,-0.614 0.913,-1.146 1.501,-1.492l0.03,0.052c1.268,1.54 2.137,3.408 2.509,5.367c0.544,-1.752 0.955,-3.546 1.232,-5.358c0.173,1.18 0.346,2.361 0.523,3.541c2.232,-4.955 6.102,-9.15 10.859,-11.775c5.082,-2.798 11.318,-4.005 15.015,-8.472l0.005,0.004c-0.083,1.514 1.314,2.638 2.529,3.547c1.081,0.808 2.137,1.673 2.976,2.728c1.444,1.808 2.179,4.083 2.594,6.362c0.415,2.274 0.537,4.597 0.909,6.88c0.285,-1.959 0.812,-3.879 1.574,-5.704c0.398,-0.034 0.808,-0.056 1.198,-0.013Zm-13.895,-3.741c0.999,-0.221 2.032,-0.259 3.044,-0.125c0.022,-0.536 -0.342,-1.051 -0.834,-1.25c-0.493,-0.199 -1.086,-0.099 -1.514,0.216c-0.372,0.268 -0.631,0.701 -0.696,1.159Zm-12.662,14.834c1.115,2.261 3.243,4.043 5.712,4.562c2.552,0.536 5.402,-0.372 7.028,-2.409c0.934,-1.172 1.44,-2.621 1.911,-4.044c-2.504,0.429 -5.004,0.857 -7.503,1.285c-2.357,0.406 -4.744,0.813 -7.127,0.592l-0.021,0.014Zm5.107,-2.673c0.943,-0.078 1.876,-0.151 2.815,-0.221c-0.1,-0.631 -0.787,-1.059 -1.423,-0.981c-0.631,0.077 -1.155,0.575 -1.397,1.167l0.005,0.035Zm-7.114,-12.208c-0.657,0.09 -1.189,0.67 -1.306,1.323l0.004,0.039c0.917,-0.099 1.834,-0.208 2.75,-0.311c-0.086,-0.658 -0.791,-1.138 -1.448,-1.051Z" style="fill:#f1d4b8;fill-rule:nonzero;"/><path d="M68.675,27.846l-0.065,-0.014c-0.033,0.014 -0.068,0.082 -0.013,0.114c0.064,0.033 0.144,-0.017 0.198,-0.097c0.076,-0.085 0.151,-0.187 0.223,-0.296c0.147,-0.22 0.211,-0.521 0.243,-0.793c0.016,-0.141 -0.003,-0.29 -0.036,-0.271c-0.01,0.014 -0.072,-0.037 -0.258,-0.137c-0.085,-0.055 -0.192,-0.124 -0.308,-0.227c-0.12,-0.102 -0.231,-0.26 -0.299,-0.408c-0.143,-0.307 -0.155,-0.625 -0.095,-0.894c0.053,-0.272 0.186,-0.507 0.357,-0.686c0.171,-0.178 0.353,-0.282 0.52,-0.365c0.341,-0.162 0.647,-0.118 0.834,-0.109c0.196,0.037 0.298,0.07 0.298,0.07c0,0 -0.098,0.05 -0.244,0.164c-0.151,0.09 -0.335,0.275 -0.493,0.452c-0.079,0.087 -0.143,0.202 -0.169,0.306c-0.025,0.103 -0.031,0.214 -0.029,0.313c0.01,0.101 0.037,0.186 0.07,0.233l0.053,0.065c0.03,0.033 0.087,0.079 0.166,0.138c0.075,0.066 0.173,0.142 0.279,0.251c0.053,0.058 0.108,0.119 0.158,0.198c0.022,0.031 0.058,0.094 0.082,0.144l0.043,0.111c0.064,0.189 0.057,0.361 0.044,0.499c-0.016,0.141 -0.045,0.253 -0.084,0.367c-0.143,0.461 -0.479,0.767 -0.761,0.962c-0.144,0.1 -0.292,0.16 -0.426,0.2c-0.148,0.046 -0.313,0.044 -0.391,-0.036c-0.073,-0.092 -0.012,-0.191 0.03,-0.228c0.054,-0.054 0.073,-0.021 0.073,-0.026Z" style="fill:#d7b58d;fill-rule:nonzero;"/><path d="M29.343,30.956c0,0 -0.063,0.084 -0.246,0.165c-0.178,0.069 -0.511,0.126 -0.847,-0.07c-0.336,-0.176 -0.671,-0.633 -0.679,-1.131c-0.018,-0.247 0.022,-0.496 0.1,-0.733c0.08,-0.245 0.206,-0.454 0.266,-0.593c0.079,-0.149 0.093,-0.199 0.1,-0.279c0.003,-0.081 -0.014,-0.181 -0.054,-0.271c-0.083,-0.171 -0.197,-0.328 -0.416,-0.362c-0.201,-0.032 -0.443,-0.02 -0.585,0.06c-0.16,0.061 -0.24,0.143 -0.24,0.143c0,0 -0.005,-0.107 0.071,-0.303c0.092,-0.168 0.281,-0.461 0.678,-0.565c0.191,-0.047 0.429,-0.072 0.679,0.003c0.249,0.069 0.487,0.227 0.653,0.448c0.174,0.215 0.288,0.492 0.312,0.8c0.011,0.153 -0.007,0.318 -0.048,0.471c-0.041,0.147 -0.097,0.274 -0.153,0.38c-0.126,0.21 -0.218,0.335 -0.278,0.455c-0.064,0.127 -0.112,0.257 -0.142,0.382c-0.049,0.247 -0.078,0.495 0.07,0.675c0.133,0.178 0.33,0.319 0.492,0.335c0.164,0.033 0.267,-0.016 0.267,-0.01Z" style="fill:#d7b58d;fill-rule:nonzero;"/><clipPath id="_clip1"><path d="M48.901,28.203c-0.074,0 -0.174,-0.029 -0.178,-0.068c-0.021,-0.368 -0.062,-0.713 -0.102,-1.064c-0.039,-0.348 -0.065,-0.688 -0.094,-1.028c-0.048,-0.681 -0.091,-1.345 -0.016,-2.08c0.006,-0.049 0.219,-0.111 0.326,-0.111c0.03,0 0.052,0.005 0.059,0.016c0.415,0.646 0.583,1.399 0.589,2.144c-0.001,0.373 -0.04,0.747 -0.13,1.111c-0.091,0.361 -0.225,0.724 -0.378,1.055c-0.007,0.017 -0.038,0.025 -0.076,0.025Z"/></clipPath><g clip-path="url(#_clip1)"><rect x="48.436" y="23.852" width="1.049" height="4.351" style="fill:#fcecd5;fill-rule:nonzero;"/></g><path d="M57.939,24.176c-0.116,-0.324 -0.19,-0.622 -0.256,-0.929c-0.035,-0.152 -0.058,-0.309 -0.088,-0.469c-0.027,-0.163 -0.072,-0.313 -0.078,-0.501l0.056,-0.03c0.156,0.101 0.25,0.256 0.346,0.402c0.093,0.15 0.175,0.31 0.224,0.48c0.104,0.337 0.121,0.705 0.004,1.048l-0.208,-0.001Z" style="fill:#4f6b77;fill-rule:nonzero;"/><path d="M42.18,25.257c-0.134,-0.407 -0.238,-0.795 -0.31,-1.192c-0.039,-0.199 -0.072,-0.398 -0.104,-0.601c-0.026,-0.207 -0.07,-0.402 -0.065,-0.631l0.101,-0.04c0.089,0.076 0.139,0.171 0.197,0.265c0.058,0.092 0.107,0.189 0.152,0.288c0.091,0.197 0.164,0.401 0.216,0.611c0.108,0.419 0.119,0.863 0.019,1.291l-0.206,0.009Z" style="fill:#4f6b77;fill-rule:nonzero;"/><path d="M33.429,24.112c1.142,-2.177 2.609,-4.194 4.321,-5.979c1.715,-1.78 3.687,-3.336 5.838,-4.556c2.164,-1.23 4.44,-2.149 6.639,-3.203c2.189,-1.052 4.342,-2.274 5.992,-4.083c0.258,-0.277 0.39,-0.172 0.129,0.118c-1.614,1.878 -3.744,3.238 -5.913,4.382c-2.174,1.153 -4.438,2.116 -6.523,3.338c-4.186,2.448 -7.75,5.927 -10.29,10.092c-0.218,0.347 -0.374,0.236 -0.193,-0.109Z" style="fill:#4f6b77;fill-rule:nonzero;"/><path d="M38.065,8.192c1.176,-0.987 2.477,-1.831 3.853,-2.532c1.376,-0.703 2.837,-1.243 4.339,-1.615c1.502,-0.371 3.043,-0.587 4.586,-0.618c1.54,-0.039 3.093,0.109 4.587,0.408c0.232,0.047 0.224,0.155 -0.019,0.135c-1.521,-0.185 -3.035,-0.2 -4.547,-0.091c-1.509,0.115 -3.005,0.356 -4.466,0.734c-1.459,0.379 -2.886,0.884 -4.264,1.501c-1.378,0.619 -2.697,1.372 -3.947,2.237c-0.212,0.142 -0.311,-0.006 -0.122,-0.159Z" style="fill:#4f6b77;fill-rule:nonzero;"/><path d="M28.985,22.193c0.16,-1.102 0.473,-2.184 0.905,-3.215c0.217,-0.515 0.465,-1.016 0.743,-1.501c0.278,-0.482 0.58,-0.957 0.92,-1.394c0.052,-0.068 0.165,-0.002 0.125,0.078c-0.251,0.495 -0.503,0.98 -0.735,1.479c-0.233,0.496 -0.455,0.997 -0.666,1.502c-0.421,1.011 -0.794,2.039 -1.148,3.085c-0.03,0.088 -0.158,0.053 -0.144,-0.034Z" style="fill:#4f6b77;fill-rule:nonzero;"/><path d="M48.581,6.557c-1.821,0.24 -3.599,0.687 -5.305,1.333c-0.852,0.324 -1.685,0.7 -2.496,1.122c-0.815,0.422 -1.585,0.907 -2.355,1.421c-0.119,0.078 -0.182,0.002 -0.07,-0.094c0.691,-0.612 1.465,-1.144 2.258,-1.626c0.798,-0.48 1.639,-0.892 2.507,-1.233c1.736,-0.68 3.591,-1.07 5.446,-1.11c0.157,-0.005 0.159,0.166 0.015,0.187Z" style="fill:#4f6b77;fill-rule:nonzero;"/><path d="M36.716,5.684c-2.944,1.37 -5.69,3.228 -7.752,5.713c-1.025,1.238 -1.878,2.625 -2.474,4.123c-0.592,1.497 -0.95,3.101 -0.936,4.729c-0.002,0.252 -0.121,0.263 -0.134,0.003c-0.099,-1.64 0.154,-3.31 0.716,-4.868c0.56,-1.561 1.389,-3.02 2.454,-4.306c1.053,-1.27 2.317,-2.377 3.684,-3.296c1.368,-0.925 2.848,-1.663 4.375,-2.256c0.257,-0.1 0.3,0.048 0.067,0.158Z" style="fill:#4f6b77;fill-rule:nonzero;"/><path d="M28.385,15.303c-0.411,0.896 -0.745,1.811 -1.004,2.749c-0.128,0.468 -0.238,0.943 -0.326,1.423c-0.086,0.482 -0.164,0.961 -0.206,1.458c-0.008,0.076 -0.134,0.076 -0.139,-0.003c-0.035,-0.493 -0.041,-1.004 0.007,-1.502c0.046,-0.501 0.133,-0.999 0.261,-1.486c0.257,-0.975 0.683,-1.907 1.265,-2.722c0.048,-0.069 0.174,0.011 0.142,0.083Z" style="fill:#4f6b77;fill-rule:nonzero;"/><path d="M67.472,19.704c-0.229,-1.254 -0.614,-2.471 -1.149,-3.613c-0.528,-1.145 -1.212,-2.214 -2.016,-3.179c-0.411,-0.485 -0.827,-0.924 -1.305,-1.369c-0.454,-0.42 -0.962,-0.826 -1.445,-1.259c-0.484,-0.432 -0.946,-0.913 -1.313,-1.461c-0.359,-0.549 -0.643,-1.17 -0.687,-1.827c-0.003,-0.199 0.031,-0.21 0.078,-0.009c0.141,0.618 0.437,1.187 0.836,1.67c0.389,0.493 0.873,0.9 1.368,1.296c0.499,0.397 1.017,0.767 1.526,1.199c0.484,0.408 0.962,0.896 1.384,1.39c0.846,1.003 1.542,2.135 2.04,3.346c0.507,1.207 0.809,2.497 0.893,3.79c0.016,0.218 -0.171,0.224 -0.21,0.026Z" style="fill:#4f6b77;fill-rule:nonzero;"/><path d="M69.054,14.133c-1.024,-1.845 -2.022,-3.7 -3.378,-5.278c-0.67,-0.775 -1.45,-1.476 -2.323,-2.025c-0.869,-0.555 -1.849,-0.956 -2.889,-1.085c-0.162,-0.022 -0.155,-0.142 0.013,-0.133c1.066,0.048 2.121,0.38 3.067,0.896c0.947,0.524 1.785,1.219 2.507,2.03c0.714,0.797 1.306,1.707 1.814,2.639c0.51,0.935 0.944,1.902 1.358,2.873c0.069,0.164 -0.087,0.229 -0.169,0.083Z" style="fill:#4f6b77;fill-rule:nonzero;"/><path d="M62.141,4.773c-0.456,-0.238 -0.927,-0.347 -1.41,-0.368c-0.242,-0.004 -0.487,0.006 -0.73,0.06c-0.246,0.057 -0.477,0.137 -0.712,0.273l-0.044,-0.056c0.169,-0.203 0.41,-0.378 0.663,-0.49c0.255,-0.117 0.537,-0.192 0.823,-0.198c0.568,-0.024 1.166,0.203 1.521,0.647l-0.111,0.132Z" style="fill:#4f6b77;fill-rule:nonzero;"/><path d="M51.597,5.466c0.841,-0.538 1.854,-0.844 2.872,-0.848c0.508,-0.005 1.016,0.057 1.506,0.184c0.487,0.121 0.962,0.339 1.381,0.589c0.068,0.034 0.015,0.17 -0.059,0.145c-0.476,-0.142 -0.938,-0.215 -1.41,-0.281c-0.47,-0.06 -0.941,-0.081 -1.409,-0.068c-0.937,0.035 -1.869,0.174 -2.79,0.471c-0.077,0.024 -0.159,-0.15 -0.091,-0.192Z" style="fill:#4f6b77;fill-rule:nonzero;"/><path d="M52.944,1.621c1.014,-0.004 2.035,0.279 2.928,0.779c0.449,0.25 0.866,0.551 1.244,0.893c0.368,0.347 0.716,0.734 0.99,1.149c0.044,0.064 -0.049,0.15 -0.108,0.097c-0.374,-0.335 -0.743,-0.638 -1.151,-0.91c-0.397,-0.276 -0.811,-0.522 -1.237,-0.742c-0.855,-0.437 -1.749,-0.777 -2.696,-1.045c-0.079,-0.023 -0.051,-0.222 0.03,-0.221Z" style="fill:#4f6b77;fill-rule:nonzero;"/><path d="M53.907,9.699c0.511,-0.593 1.083,-1.113 1.684,-1.599c0.305,-0.238 0.618,-0.465 0.937,-0.684c0.158,-0.112 0.326,-0.213 0.489,-0.318c0.167,-0.1 0.318,-0.221 0.505,-0.297c0.051,-0.033 0.096,0.019 0.052,0.063c-0.11,0.17 -0.259,0.292 -0.39,0.437c-0.136,0.139 -0.267,0.283 -0.408,0.417c-0.278,0.27 -0.56,0.535 -0.85,0.79c-0.591,0.497 -1.206,0.965 -1.887,1.352c-0.057,0.032 -0.173,-0.114 -0.132,-0.161Z" style="fill:#4f6b77;fill-rule:nonzero;"/><path d="M10.698,48.849c0.709,-0.552 1.223,-1.291 1.763,-2.031c0.542,-0.74 1.097,-1.471 1.664,-2.191c0.287,-0.362 0.566,-0.714 0.867,-1.076c0.154,-0.181 0.325,-0.365 0.535,-0.523c0.107,-0.08 0.216,-0.143 0.353,-0.204l0.082,-0.032c0.044,-0.017 0.067,-0.025 0.102,-0.035c0.065,-0.021 0.13,-0.035 0.194,-0.047c0.523,-0.082 0.978,-0.002 1.443,0.063c0.461,0.078 0.915,0.189 1.352,0.347c0.133,0.052 0.102,0.177 -0.043,0.151c-0.445,-0.09 -0.894,-0.153 -1.344,-0.171c-0.444,-0.011 -0.918,-0.021 -1.296,0.089c-0.047,0.015 -0.093,0.031 -0.136,0.05l-0.059,0.027l-0.074,0.04c-0.068,0.04 -0.153,0.104 -0.226,0.166c-0.151,0.127 -0.289,0.285 -0.426,0.458l-0.839,1.082c-0.566,0.72 -1.145,1.431 -1.737,2.131c-0.589,0.691 -1.214,1.436 -2.054,1.892c-0.141,0.075 -0.232,-0.101 -0.121,-0.186Z" style="fill:#4f6b77;fill-rule:nonzero;"/><path d="M9.964,50.189c0.742,-0.306 1.441,-0.684 2.083,-1.139c0.643,-0.455 1.206,-0.985 1.741,-1.582c0.536,-0.587 1.083,-1.229 1.767,-1.726c0.68,-0.488 1.526,-0.839 2.371,-0.749c0.125,0.015 0.127,0.144 -0.002,0.155c-0.791,0.06 -1.484,0.478 -2.067,0.979c-0.592,0.51 -1.078,1.132 -1.628,1.743c-0.539,0.614 -1.183,1.185 -1.899,1.615c-0.714,0.431 -1.495,0.751 -2.305,0.907c-0.136,0.028 -0.178,-0.154 -0.061,-0.203Z" style="fill:#4f6b77;fill-rule:nonzero;"/><path d="M16.811,44.467c-0.92,0.383 -1.524,1.166 -2.156,1.943c-0.315,0.393 -0.633,0.797 -0.99,1.172c-0.352,0.37 -0.764,0.728 -1.208,0.971c-0.067,0.04 -0.138,-0.055 -0.075,-0.107c0.407,-0.313 0.721,-0.681 1.027,-1.083c0.302,-0.398 0.578,-0.82 0.882,-1.233c0.303,-0.412 0.632,-0.821 1.039,-1.166c0.405,-0.34 0.904,-0.604 1.43,-0.682c0.087,-0.017 0.121,0.152 0.051,0.185Z" style="fill:#4f6b77;fill-rule:nonzero;"/><path d="M30.643,34.153c-0.324,0.183 -0.584,0.431 -0.811,0.691c-0.224,0.266 -0.399,0.566 -0.543,0.88c-0.139,0.316 -0.237,0.654 -0.274,1.004c-0.018,0.175 -0.029,0.353 -0.017,0.534c0.012,0.173 0.044,0.355 0.104,0.542c0.016,0.058 -0.115,0.116 -0.146,0.064c-0.102,-0.159 -0.191,-0.341 -0.261,-0.541c-0.063,-0.194 -0.109,-0.396 -0.128,-0.603c-0.031,-0.413 0.034,-0.835 0.186,-1.225c0.151,-0.39 0.4,-0.743 0.714,-1.02c0.31,-0.283 0.707,-0.464 1.109,-0.525c0.067,-0.013 0.117,0.168 0.067,0.199Z" style="fill:#4f6b77;fill-rule:nonzero;"/><path d="M30.742,35.775c-0.134,0.352 -0.233,0.675 -0.362,0.988l-0.092,0.236l-0.082,0.226c-0.019,0.063 -0.02,0.095 -0.03,0.123l0.041,0.051l0.056,0.011l0.134,0.052c-0.033,0.09 -0.108,0.128 -0.177,0.143c-0.07,0.015 -0.146,0.017 -0.221,-0.024c-0.16,-0.088 -0.196,-0.262 -0.205,-0.378c-0.003,-0.062 -0.002,-0.115 0.003,-0.173c0.005,-0.048 0.007,-0.091 0.016,-0.144c0.014,-0.103 0.036,-0.197 0.064,-0.294c0.109,-0.386 0.366,-0.723 0.697,-0.945l0.158,0.128Z" style="fill:#4f6b77;fill-rule:nonzero;"/><path d="M25.191,37.691c-0.239,0.092 -0.4,0.277 -0.51,0.484c-0.109,0.21 -0.179,0.438 -0.19,0.67c-0.023,0.485 0.149,1.013 0.304,1.56c0.012,0.042 -0.081,0.09 -0.108,0.053c-0.169,-0.229 -0.332,-0.466 -0.46,-0.733c-0.125,-0.267 -0.217,-0.568 -0.221,-0.888c-0.001,-0.327 0.104,-0.657 0.308,-0.913c0.201,-0.255 0.524,-0.443 0.849,-0.43c0.054,0.001 0.064,0.182 0.028,0.197Z" style="fill:#4f6b77;fill-rule:nonzero;"/><path d="M25.69,38.896c0.04,0.317 0.071,0.601 0.086,0.892c0.011,0.29 0.018,0.589 0.068,0.902l-0.114,0.046c-0.186,-0.264 -0.331,-0.576 -0.385,-0.906c-0.049,-0.329 0.005,-0.675 0.168,-0.97l0.177,0.036Z" style="fill:#4f6b77;fill-rule:nonzero;"/><path d="M22.104,40.015c0.159,0.197 0.287,0.374 0.373,0.571c0.086,0.197 0.142,0.41 0.2,0.655l-0.148,0.113c-0.222,-0.13 -0.412,-0.318 -0.529,-0.543c-0.118,-0.224 -0.15,-0.491 -0.094,-0.752l0.198,-0.044Z" style="fill:#4f6b77;fill-rule:nonzero;"/><path d="M71.643,102.809c0.215,0.371 0.354,0.772 0.452,1.189l-0.05,0.019c-0.199,-0.378 -0.372,-0.766 -0.461,-1.185l0.059,-0.023Z" style="fill:#4d6571;fill-rule:nonzero;"/><path d="M70.689,99.938c0.209,0.378 0.328,0.786 0.38,1.214l-0.066,0.021c-0.195,-0.383 -0.34,-0.782 -0.388,-1.211l0.074,-0.024Z" style="fill:#4d6571;fill-rule:nonzero;"/><path d="M69.881,97.024c0.199,0.386 0.302,0.798 0.324,1.231l-0.077,0.02c-0.186,-0.39 -0.309,-0.796 -0.328,-1.229l0.081,-0.022Z" style="fill:#4d6571;fill-rule:nonzero;"/><path d="M69.187,94.079c0.186,0.392 0.275,0.808 0.279,1.241l-0.08,0.018c-0.173,-0.395 -0.282,-0.806 -0.283,-1.24l0.084,-0.019Z" style="fill:#4d6571;fill-rule:nonzero;"/><path d="M68.574,91.116c0.178,0.396 0.257,0.813 0.249,1.247l-0.082,0.016c-0.165,-0.399 -0.265,-0.812 -0.253,-1.246l0.086,-0.017Z" style="fill:#4d6571;fill-rule:nonzero;"/><path d="M68.007,88.142c0.176,0.398 0.25,0.817 0.234,1.251l-0.084,0.015c-0.162,-0.4 -0.256,-0.815 -0.236,-1.249l0.086,-0.017Z" style="fill:#4d6571;fill-rule:nonzero;"/><path d="M67.454,85.164c0.174,0.399 0.248,0.818 0.232,1.253l-0.083,0.015c-0.162,-0.401 -0.255,-0.816 -0.236,-1.251l0.087,-0.017Z" style="fill:#4d6571;fill-rule:nonzero;"/><path d="M66.883,82.191c0.177,0.397 0.255,0.815 0.241,1.249l-0.083,0.016c-0.164,-0.4 -0.26,-0.814 -0.245,-1.248l0.087,-0.017Z" style="fill:#4d6571;fill-rule:nonzero;"/><path d="M66.305,79.219c0.177,0.397 0.254,0.815 0.241,1.25l-0.083,0.016c-0.164,-0.401 -0.261,-0.815 -0.245,-1.249l0.087,-0.017Z" style="fill:#4d6571;fill-rule:nonzero;"/><path d="M65.746,76.244c0.172,0.399 0.246,0.817 0.229,1.251l-0.083,0.015c-0.161,-0.401 -0.253,-0.816 -0.233,-1.25l0.087,-0.016Z" style="fill:#4d6571;fill-rule:nonzero;"/><path d="M65.235,73.262c0.165,0.401 0.23,0.821 0.206,1.254l-0.084,0.014c-0.152,-0.405 -0.236,-0.82 -0.209,-1.254l0.087,-0.014Z" style="fill:#4d6571;fill-rule:nonzero;"/><path d="M64.801,70.267c0.154,0.407 0.206,0.828 0.17,1.26l-0.084,0.012c-0.14,-0.409 -0.214,-0.827 -0.174,-1.26l0.088,-0.012Z" style="fill:#4d6571;fill-rule:nonzero;"/><path d="M64.473,67.259c0.142,0.412 0.178,0.835 0.123,1.266l-0.087,0.009c-0.127,-0.413 -0.186,-0.834 -0.127,-1.266l0.091,-0.009Z" style="fill:#4d6571;fill-rule:nonzero;"/><path d="M64.275,64.241c0.126,0.418 0.143,0.842 0.065,1.27l-0.089,0.005c-0.111,-0.419 -0.151,-0.842 -0.069,-1.27l0.093,-0.005Z" style="fill:#4d6571;fill-rule:nonzero;"/><path d="M64.183,61.214c0.121,0.42 0.13,0.844 0.041,1.271l-0.092,0.004c-0.105,-0.421 -0.137,-0.844 -0.045,-1.271l0.096,-0.004Z" style="fill:#4d6571;fill-rule:nonzero;"/><path d="M63.773,58.211c0.195,0.393 0.269,0.81 0.25,1.246l-0.093,0.019c-0.175,-0.397 -0.28,-0.808 -0.252,-1.246l0.095,-0.019Z" style="fill:#4d6571;fill-rule:nonzero;"/><path d="M36.731,104.45c0.014,0.431 -0.059,0.85 -0.204,1.255l-0.069,-0.01c-0.001,-0.43 0.05,-0.852 0.2,-1.257l0.073,0.012Z" style="fill:#4d6571;fill-rule:nonzero;"/><path d="M37.199,101.459c0.023,0.432 -0.047,0.851 -0.194,1.257l-0.074,-0.012c-0.01,-0.43 0.038,-0.852 0.19,-1.257l0.078,0.012Z" style="fill:#4d6571;fill-rule:nonzero;"/><path d="M37.643,98.463c0.032,0.433 -0.035,0.853 -0.184,1.26l-0.079,-0.012c-0.017,-0.431 0.026,-0.854 0.181,-1.26l0.082,0.012Z" style="fill:#4d6571;fill-rule:nonzero;"/><path d="M38.063,95.463c0.037,0.433 -0.026,0.853 -0.174,1.261l-0.081,-0.011c-0.023,-0.432 0.02,-0.854 0.171,-1.261l0.084,0.011Z" style="fill:#4d6571;fill-rule:nonzero;"/><path d="M38.459,92.463c0.041,0.432 -0.018,0.852 -0.164,1.26l-0.083,-0.01c-0.027,-0.431 0.012,-0.854 0.161,-1.261l0.086,0.011Z" style="fill:#4d6571;fill-rule:nonzero;"/><path d="M38.83,89.461c0.045,0.431 -0.01,0.852 -0.154,1.261l-0.083,-0.01c-0.032,-0.431 0.003,-0.853 0.15,-1.262l0.087,0.011Z" style="fill:#4d6571;fill-rule:nonzero;"/><path d="M39.177,86.456c0.051,0.432 -0.002,0.853 -0.143,1.263l-0.085,-0.01c-0.037,-0.43 -0.005,-0.853 0.141,-1.262l0.087,0.009Z" style="fill:#4d6571;fill-rule:nonzero;"/><path d="M39.5,83.45c0.055,0.431 0.007,0.852 -0.133,1.263l-0.085,-0.008c-0.042,-0.431 -0.014,-0.854 0.129,-1.264l0.089,0.009Z" style="fill:#4d6571;fill-rule:nonzero;"/><path d="M39.799,80.441c0.06,0.43 0.014,0.852 -0.124,1.264l-0.086,-0.008c-0.045,-0.43 -0.022,-0.854 0.12,-1.265l0.09,0.009Z" style="fill:#4d6571;fill-rule:nonzero;"/><path d="M40.074,77.427c0.064,0.431 0.022,0.854 -0.114,1.267l-0.087,-0.008c-0.051,-0.43 -0.03,-0.854 0.109,-1.267l0.092,0.008Z" style="fill:#4d6571;fill-rule:nonzero;"/><path d="M40.324,74.41c0.069,0.431 0.03,0.854 -0.103,1.269l-0.089,-0.008c-0.054,-0.43 -0.037,-0.854 0.099,-1.268l0.093,0.007Z" style="fill:#4d6571;fill-rule:nonzero;"/><path d="M40.551,71.391c0.074,0.43 0.039,0.853 -0.092,1.269l-0.09,-0.007c-0.059,-0.429 -0.046,-0.854 0.088,-1.268l0.094,0.006Z" style="fill:#4d6571;fill-rule:nonzero;"/><path d="M40.717,68.368c0.086,0.428 0.061,0.852 -0.061,1.27l-0.091,-0.004c-0.071,-0.428 -0.069,-0.852 0.057,-1.271l0.095,0.005Z" style="fill:#4d6571;fill-rule:nonzero;"/><path d="M40.771,65.339c0.105,0.424 0.098,0.849 -0.007,1.272l-0.092,0c-0.09,-0.425 -0.106,-0.849 0.003,-1.272l0.096,0Z" style="fill:#4d6571;fill-rule:nonzero;"/><path d="M40.662,62.31c0.131,0.418 0.149,0.842 0.068,1.272l-0.093,0.005c-0.116,-0.419 -0.157,-0.842 -0.073,-1.271l0.098,-0.006Z" style="fill:#4d6571;fill-rule:nonzero;"/><path d="M40.335,59.3c0.164,0.405 0.215,0.826 0.166,1.26l-0.094,0.012c-0.149,-0.407 -0.222,-0.825 -0.17,-1.259l0.098,-0.013Z" style="fill:#4d6571;fill-rule:nonzero;"/><path d="M39.78,56.496c0.189,0.334 0.268,0.692 0.244,1.074l-0.093,0.021c-0.175,-0.337 -0.272,-0.691 -0.245,-1.073l0.094,-0.022Z" style="fill:#4d6571;fill-rule:nonzero;"/><path d="M47.541,60.169c-0.406,0.151 -0.828,0.199 -1.259,0.182l-0.011,-0.071c0.409,-0.132 0.826,-0.219 1.258,-0.193l0.012,0.082Z" style="fill:#3a4d57;fill-rule:nonzero;"/><path d="M50.529,59.673c-0.4,0.176 -0.819,0.242 -1.254,0.218l-0.015,-0.087c0.402,-0.16 0.817,-0.253 1.252,-0.224l0.017,0.093Z" style="fill:#3a4d57;fill-rule:nonzero;"/><path d="M53.502,59.097c-0.393,0.194 -0.811,0.27 -1.247,0.25l-0.019,-0.093c0.397,-0.177 0.808,-0.283 1.245,-0.257l0.021,0.1Z" style="fill:#3a4d57;fill-rule:nonzero;"/><path d="M56.459,58.443c-0.386,0.212 -0.802,0.299 -1.24,0.283l-0.023,-0.1c0.39,-0.194 0.798,-0.312 1.238,-0.289l0.025,0.106Z" style="fill:#3a4d57;fill-rule:nonzero;"/><path d="M56.707,60.188c0.005,-0.441 0.13,-0.847 0.367,-1.218l0.102,0.032c-0.02,0.436 -0.124,0.848 -0.364,1.218l-0.105,-0.032Z" style="fill:#3a4d57;fill-rule:nonzero;"/><path d="M55.39,62.879c0.142,-0.415 0.356,-0.755 0.657,-1.076l0.098,0.05c-0.092,0.429 -0.3,0.828 -0.659,1.096l-0.096,-0.07Z" style="fill:#3a4d57;fill-rule:nonzero;"/><path d="M53.065,64.704c0.336,-0.285 0.681,-0.464 1.102,-0.601l0.069,0.097c-0.276,0.348 -0.67,0.597 -1.125,0.623l-0.046,-0.119Z" style="fill:#3a4d57;fill-rule:nonzero;"/><path d="M50.174,64.657c0.109,0.005 0.227,0.029 0.318,0.045c0.101,0.019 0.198,0.042 0.294,0.069c0.193,0.054 0.382,0.126 0.586,0.213l-0.01,0.129c-0.219,0.051 -0.45,0.055 -0.668,0.001c-0.109,-0.026 -0.214,-0.067 -0.312,-0.122c-0.107,-0.061 -0.181,-0.127 -0.266,-0.207l0.058,-0.128Z" style="fill:#3a4d57;fill-rule:nonzero;"/><path d="M47.814,62.808c0.43,0.155 0.739,0.448 0.951,0.843l-0.093,0.108c-0.418,-0.174 -0.752,-0.432 -0.959,-0.838l0.101,-0.113Z" style="fill:#3a4d57;fill-rule:nonzero;"/><path d="M46.029,60.503c0.323,0.29 0.502,0.604 0.605,1.028l-0.121,0.09c-0.363,-0.234 -0.625,-0.603 -0.63,-1.053l0.146,-0.065Z" style="fill:#3a4d57;fill-rule:nonzero;"/><path d="M56.546,42.455c-0.093,-0.423 -0.081,-0.848 0.007,-1.272l0.059,0c0.084,0.423 0.109,0.847 0.02,1.271l-0.086,0.001Z" style="fill:#3a4d57;fill-rule:nonzero;"/><path d="M56.578,45.483c-0.126,-0.422 -0.12,-0.847 -0.018,-1.272l0.096,-0.002c0.104,0.422 0.139,0.846 0.029,1.272l-0.107,0.002Z" style="fill:#3a4d57;fill-rule:nonzero;"/><path d="M56.656,48.509c-0.141,-0.419 -0.146,-0.843 -0.037,-1.271l0.109,-0.003c0.122,0.42 0.158,0.844 0.044,1.271l-0.116,0.003Z" style="fill:#3a4d57;fill-rule:nonzero;"/><path d="M56.867,51.551c-0.1,-0.083 -0.151,-0.209 -0.177,-0.321c-0.027,-0.116 -0.036,-0.217 -0.04,-0.325c-0.008,-0.212 0.018,-0.426 0.073,-0.641l0.114,-0.005c0.066,0.21 0.111,0.421 0.124,0.633c0.02,0.22 -0.03,0.412 0.007,0.589l-0.101,0.07Z" style="fill:#3a4d57;fill-rule:nonzero;"/><path d="M59.877,51.379c-0.393,0.212 -0.813,0.275 -1.254,0.212l-0.021,-0.12c0.398,-0.192 0.812,-0.288 1.254,-0.218l0.021,0.126Z" style="fill:#3a4d57;fill-rule:nonzero;"/><path d="M62.132,50.063c0.101,0.221 0.158,0.445 0.173,0.674l0.011,0.147l-0.133,0.033c-0.188,0.049 -0.386,0.066 -0.591,0.057l-0.035,-0.122c0.171,-0.109 0.347,-0.199 0.532,-0.261l-0.122,0.18c-0.031,-0.229 -0.022,-0.461 0.035,-0.696l0.13,-0.012Z" style="fill:#3a4d57;fill-rule:nonzero;"/><path d="M61.917,47.045c0.163,0.415 0.186,0.839 0.074,1.27l-0.123,0.007c-0.146,-0.416 -0.189,-0.839 -0.075,-1.27l0.124,-0.007Z" style="fill:#3a4d57;fill-rule:nonzero;"/><path d="M61.831,44.022c0.139,0.421 0.14,0.846 0.018,1.272l-0.115,0.001c-0.121,-0.422 -0.15,-0.846 -0.023,-1.272l0.12,-0.001Z" style="fill:#3a4d57;fill-rule:nonzero;"/><path d="M61.874,40.997c0.122,0.427 0.105,0.851 -0.035,1.271l-0.116,-0.003c-0.104,-0.427 -0.114,-0.851 0.031,-1.271l0.12,0.003Z" style="fill:#3a4d57;fill-rule:nonzero;"/><path d="M61.972,39.019c0.129,0.087 0.118,0.165 -0.017,0.236l-0.115,-0.006c-0.111,-0.087 -0.129,-0.167 0.011,-0.237l0.121,0.007Z" style="fill:#3a4d57;fill-rule:nonzero;"/><path d="M37.639,42.561c-0.159,-0.403 -0.208,-0.825 -0.196,-1.257l0.066,-0.01c0.139,0.407 0.234,0.822 0.211,1.254l-0.081,0.013Z" style="fill:#3a4d57;fill-rule:nonzero;"/><path d="M38.112,45.552c-0.176,-0.401 -0.23,-0.823 -0.197,-1.257l0.087,-0.014c0.156,0.404 0.249,0.819 0.209,1.255l-0.099,0.016Z" style="fill:#3a4d57;fill-rule:nonzero;"/><path d="M38.589,48.541c-0.188,-0.399 -0.246,-0.82 -0.199,-1.256l0.1,-0.017c0.17,0.403 0.261,0.817 0.208,1.255l-0.109,0.018Z" style="fill:#3a4d57;fill-rule:nonzero;"/><path d="M39.065,51.53c-0.199,-0.397 -0.256,-0.818 -0.198,-1.256l0.11,-0.018c0.179,0.401 0.273,0.816 0.208,1.255l-0.12,0.019Z" style="fill:#3a4d57;fill-rule:nonzero;"/><path d="M39.861,54.206c-0.089,0.056 -0.179,0.105 -0.272,0.145l-0.115,0.049l-0.056,-0.163c-0.107,-0.311 -0.128,-0.637 -0.075,-0.974l0.121,-0.019c0.145,0.305 0.235,0.619 0.235,0.948l-0.176,-0.118c0.101,-0.007 0.203,-0.005 0.308,0.005l0.03,0.127Z" style="fill:#3a4d57;fill-rule:nonzero;"/><path d="M42.807,53.507c-0.378,0.24 -0.793,0.332 -1.238,0.292l-0.029,-0.123c0.383,-0.221 0.79,-0.342 1.236,-0.298l0.031,0.129Z" style="fill:#3a4d57;fill-rule:nonzero;"/><path d="M45.019,52.137c0.066,0.094 0.122,0.18 0.17,0.289c0.042,0.107 0.083,0.249 0.019,0.413c-0.068,0.169 -0.242,0.245 -0.356,0.259c-0.124,0.017 -0.224,0.009 -0.338,0.002l-0.029,-0.124c0.093,-0.055 0.201,-0.103 0.282,-0.146c0.086,-0.045 0.118,-0.086 0.129,-0.121c0.041,-0.075 -0.012,-0.314 -0.001,-0.534l0.124,-0.038Z" style="fill:#3a4d57;fill-rule:nonzero;"/><path d="M44.227,49.219c0.243,0.374 0.344,0.787 0.314,1.232l-0.12,0.031c-0.225,-0.38 -0.352,-0.786 -0.319,-1.232l0.125,-0.031Z" style="fill:#3a4d57;fill-rule:nonzero;"/><path d="M43.578,46.264c0.227,0.386 0.303,0.804 0.253,1.247l-0.12,0.025c-0.206,-0.391 -0.317,-0.801 -0.261,-1.245l0.128,-0.027Z" style="fill:#3a4d57;fill-rule:nonzero;"/><path d="M43.075,43.282c0.215,0.396 0.273,0.817 0.193,1.258l-0.128,0.02c-0.195,-0.399 -0.285,-0.814 -0.2,-1.257l0.135,-0.021Z" style="fill:#3a4d57;fill-rule:nonzero;"/><path d="M42.74,40.513c0.202,0.326 0.223,0.674 0.109,1.034l-0.135,0.014c-0.172,-0.329 -0.243,-0.671 -0.116,-1.033l0.142,-0.015Z" style="fill:#3a4d57;fill-rule:nonzero;"/></g></svg>