<?xml version="1.0" encoding="UTF-8" standalone="no"?><!DOCTYPE svg PUBLIC "-//W3C//DTD SVG 1.1//EN" "http://www.w3.org/Graphics/SVG/1.1/DTD/svg11.dtd"><svg width="100%" height="100%" viewBox="0 0 180 28" version="1.1" xmlns="http://www.w3.org/2000/svg" xmlns:xlink="http://www.w3.org/1999/xlink" xml:space="preserve" style="fill-rule:evenodd;clip-rule:evenodd;stroke-linejoin:round;stroke-miterlimit:1.41421;"><g><path d="M14.207,17.247c0,0 2.542,-7.821 11.767,-10.651c0,0 -3.654,-6.596 -11.897,-6.596c-8.245,0 -11.806,6.304 -11.806,6.304c0,0 8.114,1.723 11.936,10.943Z" style="fill:#fee140;fill-rule:nonzero;"/><path d="M0.459,10.753c0,0 13.251,3.28 10.216,17.161c0,0 -13.28,-3.725 -10.216,-17.161Z" style="fill:#fa709a;fill-rule:nonzero;"/><path d="M27.729,10.753c0,0 -13.256,3.28 -10.217,17.161c0,0 13.281,-3.725 10.217,-17.161Z" style="fill:#10a05c;fill-rule:nonzero;"/><path d="M36.325,6.933l6.526,0l0,18.025l3.477,0l0,-18.025l7.106,0l-0.519,-2.714l-16.59,0l0,2.714Z" style="fill:#526971;fill-rule:nonzero;"/><path d="M62.187,11.935c-1.118,-1.443 -2.765,-2.165 -4.941,-2.165c-1.484,0 -2.77,0.325 -3.858,0.976c-1.088,0.65 -1.921,1.56 -2.501,2.729c-0.579,1.169 -0.869,2.526 -0.869,4.072c0,2.399 0.707,4.295 2.12,5.688c1.413,1.392 3.461,2.089 6.145,2.089c1.993,0 3.812,-0.57 5.459,-1.708l-1.037,-2.501c-0.874,0.447 -1.621,0.778 -2.241,0.991c-0.62,0.214 -1.327,0.32 -2.12,0.32c-2.846,0 -4.422,-1.321 -4.727,-3.964l10.247,0l0,-1.007c0,-2.236 -0.559,-4.076 -1.677,-5.52Zm-7.396,1.677c0.6,-0.609 1.388,-0.914 2.364,-0.914c0.955,0 1.718,0.294 2.287,0.884c0.569,0.59 0.945,1.454 1.128,2.592l-6.892,0c0.142,-1.098 0.513,-1.952 1.113,-2.562l0,0Z" style="fill:#526971;fill-rule:nonzero;"/><path d="M71.184,12.881c1.748,0 2.643,1.026 2.683,3.08l-3.232,0c-1.647,0 -2.974,0.406 -3.98,1.22c-1.007,0.813 -1.51,1.962 -1.51,3.446c0,1.423 0.442,2.562 1.327,3.416c0.884,0.854 2.18,1.281 3.888,1.281c0.732,0 1.464,-0.173 2.196,-0.519c0.732,-0.345 1.383,-0.793 1.952,-1.342l0.518,1.495l2.288,0l0,-9.882c0,-0.996 -0.275,-1.896 -0.824,-2.699c-0.549,-0.803 -1.296,-1.438 -2.241,-1.906c-0.946,-0.467 -1.988,-0.701 -3.126,-0.701c-0.692,0 -1.591,0.132 -2.699,0.396c-1.108,0.265 -1.927,0.57 -2.455,0.915l0.945,2.806c1.505,-0.671 2.928,-1.006 4.27,-1.006l0,0Zm-2.394,6.053c0.437,-0.457 1.031,-0.686 1.784,-0.686l3.324,0l0,2.653c-0.508,0.529 -1.078,0.946 -1.708,1.251c-0.63,0.305 -1.26,0.457 -1.891,0.457c-0.671,0 -1.199,-0.198 -1.586,-0.594c-0.386,-0.397 -0.579,-0.859 -0.579,-1.388c0,-0.671 0.218,-1.235 0.656,-1.693l0,0Z" style="fill:#526971;fill-rule:nonzero;"/><path d="M88.537,22.152c-0.61,0.163 -1.291,0.244 -2.043,0.244c-1.241,0 -2.232,-0.447 -2.974,-1.342c-0.742,-0.895 -1.113,-2.064 -1.113,-3.507c0.02,-1.403 0.412,-2.562 1.174,-3.477c0.762,-0.915 1.754,-1.372 2.974,-1.372c0.711,0 1.367,0.081 1.967,0.244c0.599,0.162 1.296,0.416 2.089,0.762l0.976,-2.44c-0.631,-0.447 -1.454,-0.808 -2.471,-1.083c-1.016,-0.274 -1.87,-0.411 -2.561,-0.411c-1.546,0 -2.898,0.325 -4.057,0.976c-1.159,0.65 -2.048,1.56 -2.668,2.729c-0.62,1.169 -0.93,2.526 -0.93,4.072c0,1.565 0.31,2.933 0.93,4.102c0.62,1.169 1.499,2.079 2.638,2.729c1.138,0.651 2.48,0.976 4.026,0.976c0.711,0 1.575,-0.132 2.592,-0.396c1.017,-0.265 1.84,-0.62 2.47,-1.068l-1.006,-2.501c-0.732,0.346 -1.403,0.6 -2.013,0.763l0,0Z" style="fill:#526971;fill-rule:nonzero;"/><path d="M106.927,15.442l0,9.516l-3.416,0l0,-9.302c0,-2.054 -0.772,-3.08 -2.317,-3.08c-1.22,0 -2.654,0.681 -4.301,2.043l0,10.339l-3.415,0l0,-21.196l3.415,-0.336l0,8.113c0.834,-0.57 1.698,-1.022 2.593,-1.358c0.894,-0.335 1.738,-0.503 2.531,-0.503c3.273,0 4.91,1.922 4.91,5.764l0,0Z" style="fill:#526971;fill-rule:nonzero;"/><path d="M113.911,18.126l0,6.832l-3.416,0l0,-20.739l3.416,0l0,9.15l9.241,-9.607l2.47,1.982l-7.228,7.655l8.662,11.559l-4.209,0l-6.801,-9.119l-2.135,2.287l0,0Z" style="fill:#526971;fill-rule:nonzero;"/><path d="M128.52,3.762l0,21.196l3.415,0l0,-21.532l-3.415,0.336l0,0Z" style="fill:#526971;fill-rule:nonzero;"/><path d="M148.252,21.633c-0.631,1.18 -1.525,2.095 -2.684,2.745c-1.159,0.651 -2.511,0.976 -4.056,0.976c-1.546,0 -2.887,-0.325 -4.026,-0.976c-1.139,-0.65 -2.018,-1.56 -2.638,-2.729c-0.62,-1.169 -0.93,-2.537 -0.93,-4.102c0,-1.546 0.31,-2.903 0.93,-4.072c0.62,-1.169 1.51,-2.079 2.668,-2.729c1.159,-0.651 2.511,-0.976 4.057,-0.976c1.545,0 2.892,0.32 4.041,0.96c1.148,0.641 2.033,1.551 2.653,2.73c0.62,1.179 0.93,2.541 0.93,4.087c0,1.545 -0.315,2.907 -0.945,4.086Zm-3.736,-0.61c0.762,-0.914 1.143,-2.063 1.143,-3.446c0,-1.443 -0.371,-2.618 -1.113,-3.522c-0.742,-0.905 -1.733,-1.357 -2.973,-1.357c-1.22,0 -2.211,0.457 -2.974,1.372c-0.762,0.915 -1.154,2.074 -1.174,3.477c0,1.443 0.371,2.612 1.113,3.507c0.742,0.895 1.733,1.342 2.974,1.342c1.24,0 2.241,-0.458 3.004,-1.373l0,0Z" style="fill:#526971;fill-rule:nonzero;"/><path d="M156.456,22.548c-1.525,0 -2.288,-1.026 -2.288,-3.08l0,-9.302l-3.415,0l0,9.516c0,3.842 1.626,5.764 4.879,5.764c0.895,0 1.85,-0.204 2.867,-0.61c1.017,-0.407 1.952,-0.956 2.806,-1.647l0.61,1.769l2.318,0l0,-14.792l-3.447,0l0,10.339c-1.647,1.362 -3.09,2.043 -4.33,2.043l0,0Z" style="fill:#526971;fill-rule:nonzero;"/><path d="M180,24.958l-1.86,0l-0.732,-1.22c-0.631,0.508 -1.307,0.905 -2.028,1.189c-0.722,0.285 -1.419,0.427 -2.09,0.427c-1.504,0 -2.81,-0.325 -3.919,-0.976c-1.108,-0.65 -1.962,-1.565 -2.561,-2.745c-0.6,-1.179 -0.9,-2.551 -0.9,-4.117c0,-1.545 0.3,-2.902 0.9,-4.071c0.599,-1.169 1.464,-2.074 2.592,-2.715c1.128,-0.64 2.445,-0.96 3.949,-0.96c0.468,0 0.987,0.086 1.556,0.259c0.569,0.173 1.118,0.422 1.647,0.747l0,-7.014l3.446,-0.305l0,21.501Zm-9.531,-3.904c0.702,0.895 1.663,1.342 2.882,1.342c0.61,0 1.17,-0.097 1.678,-0.29c0.508,-0.193 1.016,-0.503 1.525,-0.93l0,-7.259c-0.488,-0.427 -0.986,-0.737 -1.495,-0.93c-0.508,-0.193 -1.077,-0.289 -1.708,-0.289c-1.219,0 -2.18,0.447 -2.882,1.341c-0.701,0.895 -1.052,2.044 -1.052,3.447c0,1.484 0.351,2.673 1.052,3.568Z" style="fill:#526971;fill-rule:nonzero;"/></g></svg>