<?xml version="1.0" encoding="UTF-8" standalone="no"?><!DOCTYPE svg PUBLIC "-//W3C//DTD SVG 1.1//EN" "http://www.w3.org/Graphics/SVG/1.1/DTD/svg11.dtd"><svg width="100%" height="100%" viewBox="0 0 100 101" version="1.1" xmlns="http://www.w3.org/2000/svg" xmlns:xlink="http://www.w3.org/1999/xlink" xml:space="preserve" style="fill-rule:evenodd;clip-rule:evenodd;stroke-linejoin:round;stroke-miterlimit:1.41421;"><g><path d="M87.767,31.422c1.116,1.513 2.051,3.103 2.816,4.751c0.765,1.647 1.36,3.351 1.794,5.091c4.112,15.313 -3.526,32.942 -17.977,39.747c-6.606,3.513 -13.594,4.397 -20.944,3.722c-2.312,-0.201 -4.306,-0.985 -6.316,-1.415c-1.231,-0.39 -2.445,-0.865 -3.633,-1.433c-7.245,-3.645 -10.292,-11.661 -13.437,-18.511c-0.723,-1.768 -1.371,-3.576 -1.895,-5.411c-2.098,-7.338 -2.199,-15.102 0.461,-21.902c0.913,-1.701 2.071,-3.34 3.457,-4.885c1.611,-1.846 2.809,-3.766 4.945,-4.877c1.532,-1.183 3.168,-2.231 4.886,-3.141c12.023,-6.371 28.007,-6.02 39.405,1.25c1.168,0.636 2.017,1.855 2.894,2.71c1.276,1.314 2.463,2.75 3.544,4.304Z" style="fill:#bfbc62;fill-rule:nonzero;"/><path d="M28.351,42.343c-0.623,2.827 -0.838,5.721 -0.675,8.594c0.171,2.874 0.652,5.725 1.332,8.533c0.685,2.808 1.541,5.584 2.448,8.343l0.345,1.037l0.172,0.52c0.048,0.144 0.122,0.331 0.184,0.494c0.258,0.674 0.533,1.342 0.828,2.001c0.587,1.32 1.249,2.609 1.99,3.854c0.231,0.385 -0.06,0.596 -0.328,0.213c-0.839,-1.205 -1.593,-2.47 -2.265,-3.78c-0.336,-0.655 -0.651,-1.32 -0.946,-1.995c-0.075,-0.175 -0.144,-0.324 -0.221,-0.521l-0.194,-0.512l-0.387,-1.023c-1.018,-2.744 -1.942,-5.53 -2.646,-8.387c-0.699,-2.856 -1.147,-5.792 -1.214,-8.746c-0.061,-2.953 0.33,-5.919 1.184,-8.729c0.136,-0.475 0.485,-0.344 0.393,0.104Z" style="fill:#bfbc62;fill-rule:nonzero;"/><path d="M59.93,84.513c3.892,-0.091 7.714,-0.898 11.296,-2.307c3.58,-1.416 6.923,-3.434 9.826,-6.041c0.229,-0.198 0.486,0.053 0.272,0.281c-2.638,2.935 -6.01,5.263 -9.715,6.737c-3.703,1.476 -7.756,2.104 -11.693,1.736c-0.331,-0.025 -0.294,-0.394 0.014,-0.406Z" style="fill:#bfbc62;fill-rule:nonzero;"/><path d="M83.015,75.646c-0.439,1.221 -1.299,2.134 -2.465,2.689c-0.045,0.022 -0.301,-0.229 -0.279,-0.274c0.571,-1.134 1.311,-2.05 2.433,-2.677c0.047,-0.027 0.328,0.214 0.311,0.262Z" style="fill:#bfbc62;fill-rule:nonzero;"/><path d="M80.817,22.07c1.568,0.778 2.805,2.086 3.858,3.425c1.045,1.352 2.028,2.738 2.909,4.212c0.882,1.466 1.647,3.02 2.219,4.647c0.281,0.816 0.51,1.649 0.681,2.494c0.152,0.841 0.271,1.719 0.282,2.557c0.011,0.261 -0.345,0.307 -0.388,0.041c-0.491,-3.329 -1.977,-6.352 -3.695,-9.202c-0.86,-1.427 -1.796,-2.83 -2.735,-4.214c-0.945,-1.367 -1.967,-2.681 -3.335,-3.608c-0.227,-0.154 -0.045,-0.475 0.204,-0.352Z" style="fill:#bfbc62;fill-rule:nonzero;"/><path d="M70.778,19.494c1.934,0.001 3.803,0.703 5.286,1.935c0.057,0.047 -0.099,0.37 -0.172,0.351c-1.838,-0.476 -3.524,-1.014 -5.21,-1.891c-0.071,-0.037 0.019,-0.395 0.096,-0.395Z" style="fill:#bfbc62;fill-rule:nonzero;"/><path d="M28.492,39.389c-0.541,1.146 -1.032,2.258 -1.313,3.392c-0.298,1.116 -0.295,2.335 -0.362,3.62c-0.005,0.099 -0.361,0.143 -0.388,0.045c-0.171,-0.616 -0.32,-1.245 -0.389,-1.903c-0.033,-0.33 -0.045,-0.665 -0.028,-1.004c0.005,-0.09 0.01,-0.16 0.021,-0.265l0.029,-0.236c0.025,-0.164 0.058,-0.35 0.098,-0.509c0.318,-1.331 1.079,-2.474 2.002,-3.377c0.078,-0.077 0.373,0.146 0.33,0.237Z" style="fill:#bfbc62;fill-rule:nonzero;"/><path d="M43.845,96.189c1.391,0.004 2.781,0.006 4.175,0.009c-0.182,1.284 -0.351,2.568 -0.514,3.854l0.014,0.11c-3.636,0.55 -7.342,0.642 -10.996,0.271c2.427,-1.409 4.858,-2.82 7.285,-4.229l0,-0.015l0.036,0Z" style="fill:#f16461;fill-rule:nonzero;"/><path d="M51.294,76.817l0.006,0.062c-1.289,6.403 -2.383,12.848 -3.28,19.319c-1.394,-0.003 -2.784,-0.005 -4.175,-0.009l0,-0.145c0.642,-6.183 1.183,-12.376 1.616,-18.58l-0.003,-0.047c1.95,-0.167 3.896,-0.369 5.836,-0.6Z" style="fill:#f6d6a2;fill-rule:nonzero;"/><path d="M92.058,70.933l0.035,0.036c-0.573,1.013 -1.251,1.967 -2.02,2.834c-4.915,-3.613 -9.832,-7.226 -14.747,-10.842c1.019,-1.578 2.071,-3.135 3.15,-4.671l0.044,0.03c2.259,1.459 4.187,3.366 6.1,5.256c2.482,2.455 4.96,4.909 7.438,7.357Z" style="fill:#f6d6a2;fill-rule:nonzero;"/><path d="M92.093,70.969l-0.035,-0.036c2.621,-1.04 5.268,-2.011 7.942,-2.915c-2.3,2.672 -4.599,5.343 -6.899,8.011c-1.01,-0.743 -2.018,-1.483 -3.028,-2.226c0.769,-0.867 1.447,-1.821 2.02,-2.834Z" style="fill:#f16461;fill-rule:nonzero;"/><path d="M75.326,62.961c-1.355,2.083 -2.653,4.198 -3.901,6.347c-3.42,-4.059 -8.258,-7.012 -12.355,-10.391c-0.814,0.571 -1.56,1.236 -2.217,1.979c0.422,5.108 1.56,9.764 1.982,14.872c-2.507,0.401 -5.021,0.751 -7.541,1.049c-1.94,0.231 -3.886,0.433 -5.836,0.6c-0.205,0.017 -0.407,0.035 -0.612,0.053c-0.199,-4.79 -0.065,-9.594 0.395,-14.366l0,-0.018l0.012,0c2.778,-0.229 5.417,-1.394 7.723,-2.965c2.303,-1.569 4.305,-3.539 6.245,-5.542c1.275,-1.313 2.547,-2.677 3.382,-4.291c5.646,1.92 11.077,4.472 16.164,7.586c-0.098,0.137 -0.196,0.277 -0.291,0.416c-1.079,1.536 -2.131,3.093 -3.15,4.671Z" style="fill:#3a4d57;fill-rule:nonzero;"/><path d="M36.372,43.434c0.446,0.243 0.945,0.421 1.438,0.576l0.075,0.027c-0.057,0.867 0.211,1.723 0.478,2.555c0.838,2.612 1.685,5.23 2.639,7.8c-0.432,0.134 -0.874,0.24 -1.32,0.184c-0.666,-0.086 -1.242,-0.538 -1.619,-1.093c-0.381,-0.553 -0.588,-1.204 -0.767,-1.851c-0.74,-2.654 -1.081,-5.423 -0.939,-8.172l0.015,-0.026Z" style="fill:#f16461;fill-rule:nonzero;"/><path d="M57.371,39.612c0.127,-0.992 0.46,-1.973 0.505,-2.959c2.156,2.24 4.353,5.643 3.262,8.843c-0.11,0.315 -0.258,0.624 -0.475,0.876c-0.28,-0.431 -0.562,-0.861 -0.841,-1.292c-1.049,-1.611 -2.122,-3.287 -2.493,-5.162l0.006,-0.002c0.009,-0.101 0.021,-0.203 0.036,-0.304Z" style="fill:#f16461;fill-rule:nonzero;"/><path d="M34.803,37.577c0.06,-2.226 0.119,-4.451 0.182,-6.68c1.045,0.271 2.127,0.414 3.223,0.446c-0.166,4.223 -0.3,8.445 -0.398,12.667c-0.493,-0.155 -0.992,-0.333 -1.438,-0.576c-0.487,-0.265 -0.915,-0.607 -1.2,-1.082c-0.464,-0.773 -0.452,-1.729 -0.428,-2.629c0.018,-0.717 0.038,-1.43 0.059,-2.146Z" style="fill:#f16461;fill-rule:nonzero;"/><path d="M57.876,36.653c-0.045,0.986 -0.378,1.967 -0.505,2.959c-3.349,-3.301 -6.338,-6.97 -8.888,-10.922c1.002,-0.55 1.955,-1.18 2.835,-1.902c0.095,0.158 0.196,0.312 0.303,0.464c1.307,1.931 3.063,3.539 4.519,5.375c0.161,0.199 0.315,0.404 0.467,0.609c0.582,0.79 1.105,1.667 1.239,2.642c0.036,0.258 0.044,0.517 0.03,0.775Z" style="fill:#f16461;fill-rule:nonzero;"/><path d="M26.828,31.551c0.354,-0.912 0.725,-1.815 1.183,-2.695c0.059,-0.113 0.119,-0.222 0.178,-0.333c0.042,-0.074 0.089,-0.154 0.166,-0.196c0.099,-0.047 0.215,-0.018 0.318,0.012c0.702,0.202 1.403,0.401 2.104,0.603l0.012,-0.014c0.244,0.187 0.496,0.359 0.752,0.517c1.078,0.668 2.237,1.144 3.444,1.452c-0.063,2.229 -0.122,4.454 -0.182,6.68c-3.09,-0.627 -6.421,-1.373 -9.205,-2.873c0.446,-1.046 0.823,-2.104 1.23,-3.153Z" style="fill:#f68b62;fill-rule:nonzero;"/><path d="M41.002,54.392c-0.954,-2.57 -1.801,-5.188 -2.639,-7.8c-0.268,-0.832 -0.535,-1.688 -0.478,-2.555l-0.075,-0.027c0.098,-4.222 0.232,-8.444 0.398,-12.667c1.465,0.042 2.951,-0.113 4.407,-0.434c-0.018,0.307 0.074,0.621 0.19,0.913c0.196,0.496 0.478,0.983 0.936,1.257c0.184,0.112 0.392,0.184 0.603,0.225c0.945,0.181 1.973,-0.306 2.46,-1.135c0.467,-0.79 0.431,-1.842 -0.053,-2.621c0.588,-0.261 1.168,-0.546 1.732,-0.858c2.55,3.952 5.539,7.621 8.888,10.922c-0.015,0.101 -0.027,0.203 -0.036,0.304l-0.006,0.002c0.371,1.875 1.444,3.551 2.493,5.162c0.279,0.431 0.561,0.861 0.841,1.292c0.733,1.126 1.465,2.252 2.198,3.378c-0.08,0.182 -0.166,0.363 -0.258,0.538c-0.835,1.614 -2.107,2.978 -3.382,4.291c-1.94,2.003 -3.942,3.973 -6.245,5.542c-2.306,1.571 -4.945,2.736 -7.723,2.965l-0.012,0c-0.13,0.012 -0.261,0.021 -0.392,0.015c-1.509,-2.796 -2.745,-5.723 -3.847,-8.709Z" style="fill:#f68b62;fill-rule:nonzero;"/><path d="M61.094,24.482c0.469,0.604 0.927,1.21 1.378,1.825c-1.99,2.222 -4.103,4.332 -6.332,6.32c-1.456,-1.836 -3.212,-3.444 -4.519,-5.375c2.362,-1.914 4.656,-3.911 6.885,-5.982c0.255,0.3 0.505,0.604 0.754,0.91c0.627,0.757 1.239,1.524 1.834,2.302Z" style="fill:#f68b62;fill-rule:nonzero;"/><path d="M77.421,3.971c0.306,0.966 -0.175,1.994 -0.713,2.853c-0.413,0.659 -0.871,1.295 -1.423,1.845c-0.838,0.835 -1.875,1.444 -2.749,2.243c-0.555,0.511 -1.043,1.094 -1.527,1.673c-3.304,3.967 -6.611,7.931 -9.915,11.897c-0.595,-0.778 -1.207,-1.545 -1.834,-2.302c1.952,-2.273 3.792,-4.644 5.512,-7.096c1.423,-2.029 2.796,-4.192 3.197,-6.635c0.241,-1.471 0.116,-2.971 0.03,-4.457c-0.03,-0.508 0.101,-1.2 0.609,-1.221c0.134,-0.003 0.264,0.047 0.377,0.122c0.413,0.279 0.529,0.82 0.716,1.283c0.188,0.461 0.616,0.942 1.097,0.814c0.172,-0.047 0.315,-0.166 0.443,-0.297c0.523,-0.534 0.814,-1.25 1.233,-1.872c0.419,-0.621 1.06,-1.191 1.809,-1.164c0.422,0.015 0.811,0.216 1.18,0.421c0.814,0.449 1.676,1.008 1.958,1.893Z" style="fill:#f6d6a2;fill-rule:nonzero;"/><path d="M28.011,28.856c-0.458,0.88 -0.829,1.783 -1.183,2.695c-4.077,-2.35 -8.153,-4.704 -12.233,-7.054c-3.164,-1.824 -6.347,-3.657 -9.779,-4.908c-1.066,-0.387 -2.172,-0.725 -3.108,-1.367c-0.938,-0.639 -1.702,-1.658 -1.708,-2.793c0,-0.654 0.247,-1.284 0.549,-1.866c0.259,-0.493 0.562,-0.966 0.901,-1.406c0.235,-0.303 0.514,-0.609 0.888,-0.695c0.497,-0.116 0.984,0.187 1.403,0.475c0.962,0.663 1.928,1.326 2.891,1.988c0.077,0.054 0.16,0.107 0.249,0.089c0.107,-0.02 0.17,-0.136 0.203,-0.24c0.148,-0.485 0.029,-1.008 0.035,-1.516c0.006,-0.508 0.211,-1.093 0.699,-1.239c0.365,-0.107 0.766,0.092 1.001,0.39c0.238,0.3 0.335,0.683 0.404,1.055c0.276,1.524 0.178,3.223 1.135,4.439c0.464,0.585 1.117,0.977 1.729,1.402c0.734,0.508 1.424,1.079 2.122,1.637c4.285,3.429 8.914,6.424 13.802,8.914Z" style="fill:#f6d6a2;fill-rule:nonzero;"/><path d="M46.751,29.549c0.484,0.778 0.52,1.83 0.053,2.62c-0.487,0.829 -1.515,1.316 -2.46,1.135c-0.211,-0.041 -0.419,-0.113 -0.603,-0.225c-0.458,-0.274 -0.74,-0.761 -0.936,-1.257c-0.116,-0.292 -0.208,-0.606 -0.19,-0.913c1.393,-0.3 2.757,-0.751 4.047,-1.319c0.029,-0.012 0.059,-0.027 0.089,-0.041Z" style="fill:#f4c77e;fill-rule:nonzero;"/><path d="M50.177,20.792c-1.031,2.333 -2.181,4.805 -4.356,6.136c-1.046,0.642 -2.255,0.966 -3.471,1.132c-2.21,0.309 -4.623,0.065 -6.439,-1.195c4.971,-0.959 10.124,-3.191 14.266,-6.073Z" style="fill:#f68b62;fill-rule:nonzero;"/><path d="M41.236,22.815c-0.035,-0.608 0.333,-1.562 0.799,-1.75c0.541,-0.217 1.23,0.063 1.465,0.598c-0.671,0.523 -1.444,0.918 -2.264,1.152Z" style="fill:#d7b58d;fill-rule:nonzero;"/><path d="M28.756,26.437c0.054,0.152 0.11,0.301 0.164,0.452l-0.321,0.119c-0.968,0.271 -2.056,0.214 -2.927,-0.3c-0.867,-0.511 -1.465,-1.516 -1.357,-2.517c0.056,-0.511 0.317,-0.995 0.695,-1.343c0.315,-0.294 0.716,-0.49 1.144,-0.526c0.941,1.323 1.809,2.698 2.602,4.115Z" style="fill:#f6d6a2;fill-rule:nonzero;"/><path d="M46.804,11.334c-0.885,0.297 -1.758,0.63 -2.611,1.008c-0.084,-0.503 0.035,-1.034 0.326,-1.454c0.131,-0.187 0.298,-0.353 0.497,-0.466c0.689,-0.383 1.693,0.128 1.788,0.912Z" style="fill:#3a4d57;fill-rule:nonzero;"/><path d="M35.002,14.668c0.232,0.137 0.44,0.321 0.684,0.428c-0.999,0.324 -1.973,0.719 -2.915,1.177c-0.265,-0.55 -0.018,-1.269 0.49,-1.605c0.511,-0.338 1.212,-0.309 1.741,0Z" style="fill:#3a4d57;fill-rule:nonzero;"/><path d="M35.555,22.492c-0.796,-0.835 -1.153,-2.08 -0.891,-3.206c0.044,-0.188 0.163,-0.413 0.353,-0.384c0.113,0.015 0.19,0.116 0.25,0.211c0.585,0.886 1.01,1.875 1.248,2.909c0.071,0.306 0.112,0.66 -0.092,0.897c-0.286,0.333 -0.951,0.072 -0.933,-0.368l0.065,-0.059Z" style="fill:#3a4d57;fill-rule:nonzero;"/><path d="M48.519,17.684c-0.039,0.359 -0.273,0.722 -0.627,0.799c-0.309,0.069 -0.669,-0.181 -0.686,-0.484c-0.541,-0.716 -0.862,-1.599 -0.895,-2.496c-0.012,-0.276 0.009,-0.571 0.161,-0.802c0.154,-0.232 0.475,-0.375 0.722,-0.247c0.121,0.066 0.208,0.184 0.282,0.303c0.374,0.577 0.63,1.222 0.856,1.869c0.119,0.342 0.228,0.701 0.187,1.058Z" style="fill:#3a4d57;fill-rule:nonzero;"/><path d="M36.423,22.919c0.204,-0.237 0.163,-0.591 0.092,-0.897c-0.238,-1.034 -0.663,-2.023 -1.248,-2.909c-0.06,-0.095 -0.137,-0.196 -0.25,-0.211c-0.19,-0.029 -0.309,0.196 -0.353,0.384c-0.262,1.126 0.095,2.371 0.891,3.206l-0.065,0.059c-0.018,0.44 0.647,0.701 0.933,0.368Zm-4.814,-3.006c0.256,-1.067 0.885,-2.051 1.783,-2.689c1.396,-0.99 3.369,-1.097 4.864,-0.262c0.291,0.16 0.564,0.357 0.778,0.609c0.072,0.083 0.137,0.172 0.193,0.265c0.327,0.528 0.434,1.185 0.521,1.812c0.142,1.001 0.258,2.068 -0.158,2.992c-0.342,0.764 -1.019,1.34 -1.774,1.703c-1.423,0.68 -3.2,0.621 -4.522,-0.235c-0.865,-0.559 -1.498,-1.459 -1.762,-2.445l-0.003,-0.012c-0.089,-0.58 -0.06,-1.171 0.08,-1.738Z" style="fill:#f2e3b5;fill-rule:nonzero;"/><path d="M48.519,17.684c0.041,-0.357 -0.068,-0.716 -0.187,-1.058c-0.226,-0.647 -0.482,-1.292 -0.856,-1.869c-0.074,-0.119 -0.161,-0.237 -0.282,-0.303c-0.247,-0.128 -0.568,0.015 -0.722,0.247c-0.152,0.231 -0.173,0.526 -0.161,0.802c0.033,0.897 0.354,1.78 0.895,2.496c0.017,0.303 0.377,0.553 0.686,0.484c0.354,-0.077 0.588,-0.44 0.627,-0.799Zm1.86,-3.72c0.66,1.076 0.862,2.448 0.556,3.682c-0.131,0.517 -0.342,1.022 -0.693,1.423c-0.772,0.888 -2.053,1.114 -3.23,1.164c-0.457,0.021 -0.927,0.021 -1.358,-0.133l-0.006,-0.003c-0.317,-0.223 -0.606,-0.484 -0.861,-0.773c-0.704,-0.799 -1.156,-1.824 -1.263,-2.882c-0.033,-0.309 -0.036,-0.624 -0.006,-0.933c0.083,-0.877 0.407,-1.741 1.011,-2.383c1.218,-1.293 3.443,-1.349 4.857,-0.273c0.402,0.306 0.734,0.686 0.993,1.111Z" style="fill:#f2e3b5;fill-rule:nonzero;"/><path d="M35.911,26.865c1.816,1.26 4.229,1.504 6.44,1.195c1.215,-0.167 2.424,-0.49 3.47,-1.132c2.175,-1.331 3.325,-3.803 4.356,-6.136c-4.142,2.882 -9.295,5.114 -14.266,6.073Zm-7.356,-5.954c0.983,-0.428 2.008,-0.764 3.054,-0.998c-0.14,0.567 -0.169,1.158 -0.08,1.738l0.003,0.012c0.264,0.986 0.897,1.886 1.762,2.445c1.322,0.856 3.099,0.915 4.522,0.235c0.755,-0.363 1.432,-0.939 1.774,-1.703c0.416,-0.924 0.3,-1.991 0.158,-2.992c-0.087,-0.627 -0.194,-1.284 -0.521,-1.812c0.381,-0.88 1.091,-1.64 2.006,-1.914c0.785,-0.235 1.709,-0.033 2.291,0.52c0.107,1.058 0.559,2.083 1.263,2.882c0.145,0.36 0.484,0.636 0.856,0.77l0.005,0.003l0.006,0.003c0.431,0.154 0.901,0.154 1.358,0.133c1.177,-0.05 2.458,-0.276 3.23,-1.164c0.351,-0.401 0.562,-0.906 0.693,-1.423c0.306,-1.234 0.104,-2.606 -0.556,-3.682c0.686,-0.247 1.37,-0.49 2.056,-0.74l0.033,0.012c1.661,0.544 2.802,1.985 3.782,3.459c-0.439,-1.293 -0.796,-2.615 -1.06,-3.952l0.101,-0.021c0.026,-0.161 0.175,-0.27 0.321,-0.348l0.02,-0.009c0.493,-0.252 1.04,-0.422 1.593,-0.386c0.553,0.036 1.105,0.297 1.411,0.758c0.199,0.3 0.282,0.665 0.345,1.022c0.169,0.968 0.211,1.991 -0.107,2.921c-0.321,0.933 -1.052,1.762 -2.009,2c-0.237,0.059 -0.487,0.083 -0.734,0.068c-0.326,2.433 -1.527,4.709 -3.191,6.519c-0.502,0.547 -1.046,1.055 -1.622,1.521c-0.88,0.722 -1.833,1.352 -2.835,1.902c-0.564,0.312 -1.144,0.597 -1.732,0.858c-0.03,0.015 -0.06,0.03 -0.089,0.042c-1.29,0.568 -2.654,1.019 -4.047,1.319c-1.456,0.321 -2.942,0.476 -4.407,0.434c-1.096,-0.032 -2.178,-0.175 -3.223,-0.446c-1.207,-0.308 -2.366,-0.784 -3.444,-1.452c-0.256,-0.158 -0.508,-0.33 -0.752,-0.517c-0.627,-0.476 -1.189,-1.041 -1.596,-1.694l-0.003,-0.003c-0.089,-0.167 -0.178,-0.333 -0.27,-0.499c-0.054,-0.098 -0.107,-0.196 -0.163,-0.295c-0.375,-1.019 -0.749,-2.038 -1.124,-3.057c-0.098,-0.273 -0.199,-0.553 -0.19,-0.841c0.018,-0.668 0.595,-1.17 1.12,-1.581l-0.008,-0.047Zm12.681,1.904c0.82,-0.234 1.593,-0.629 2.264,-1.152c-0.235,-0.535 -0.924,-0.815 -1.465,-0.598c-0.466,0.188 -0.834,1.142 -0.799,1.75Z" style="fill:#f6d6a2;fill-rule:nonzero;"/><path d="M49.386,12.853c-1.414,-1.076 -3.639,-1.02 -4.857,0.273c-0.604,0.642 -0.928,1.506 -1.011,2.383c-0.03,0.309 -0.027,0.624 0.006,0.933c-0.582,-0.553 -1.506,-0.755 -2.291,-0.52c-0.915,0.274 -1.625,1.034 -2.006,1.914c-0.056,-0.093 -0.121,-0.182 -0.193,-0.265c-0.214,-0.252 -0.487,-0.449 -0.778,-0.609c-1.495,-0.835 -3.468,-0.728 -4.864,0.262c-0.898,0.638 -1.527,1.622 -1.783,2.689c-1.046,0.234 -2.071,0.57 -3.054,0.998c-0.283,-1.56 -0.598,-2.885 -0.883,-4.451c3.521,-2.211 7.339,-3.949 11.321,-5.144c0,-0.894 0.003,-1.788 0.003,-2.683c0.24,0.758 0.641,1.465 1.168,2.059c1.836,-0.392 3.642,-0.918 5.404,-1.571c-0.561,-1.605 -0.903,-3.287 -1.016,-4.983c0.366,1.081 0.93,2.08 1.492,3.072c0.306,0.541 0.63,1.102 1.144,1.456c0.511,0.356 1.269,0.44 1.729,0.018c0.66,1.141 1.322,2.279 1.982,3.42c0.152,0.261 0.306,0.526 0.544,0.71c0.285,0.223 0.647,0.3 0.992,0.41c-0.686,0.25 -1.37,0.493 -2.056,0.74c-0.259,-0.425 -0.591,-0.805 -0.993,-1.111Zm-5.193,-0.511c0.853,-0.378 1.726,-0.711 2.611,-1.008c-0.095,-0.784 -1.099,-1.295 -1.788,-0.912c-0.199,0.113 -0.366,0.279 -0.497,0.466c-0.291,0.42 -0.41,0.951 -0.326,1.454Zm-8.507,2.754c-0.244,-0.107 -0.452,-0.291 -0.684,-0.428c-0.529,-0.309 -1.23,-0.338 -1.741,0c-0.508,0.336 -0.755,1.055 -0.49,1.605c0.942,-0.458 1.916,-0.853 2.915,-1.177Z" style="fill:#f6d6a2;fill-rule:nonzero;"/><path d="M52.435,13.224c-0.345,-0.11 -0.707,-0.187 -0.992,-0.41c-0.238,-0.184 -0.392,-0.449 -0.544,-0.71c-0.66,-1.141 -1.322,-2.279 -1.982,-3.42c-0.46,0.422 -1.218,0.338 -1.729,-0.018c-0.514,-0.354 -0.838,-0.915 -1.144,-1.456c-0.562,-0.992 -1.126,-1.991 -1.492,-3.072c0.113,1.696 0.455,3.378 1.016,4.983c-1.762,0.653 -3.568,1.179 -5.404,1.571c-0.527,-0.594 -0.928,-1.301 -1.168,-2.059c0,0.895 -0.003,1.789 -0.003,2.683c-3.982,1.195 -7.8,2.933 -11.321,5.144c0.285,1.566 0.6,2.891 0.883,4.451l0.009,0.047c-0.526,0.411 -1.103,0.913 -1.121,1.581c-0.009,0.288 0.092,0.568 0.19,0.841c0.375,1.019 0.749,2.038 1.123,3.057c-0.793,-1.417 -1.661,-2.792 -2.602,-4.115c-0.428,0.036 -0.829,0.232 -1.144,0.526l-0.027,-0.029l0,-0.039c-1.094,-2.24 -1.872,-4.662 -1.994,-7.152c-0.122,-2.487 0.449,-5.048 1.857,-7.105c0.88,-1.28 2.057,-2.332 3.292,-3.274c2.722,-2.074 5.798,-3.682 9.054,-4.733c1.301,-0.419 2.725,-0.749 4.015,-0.304c0.903,0.313 1.636,0.969 2.275,1.682c1.055,-0.983 2.746,-1.245 4.032,-0.576c0.752,0.389 1.335,1.034 1.881,1.679c2.434,2.864 4.526,6.02 6.217,9.377c-0.146,0.078 -0.295,0.187 -0.321,0.348l-0.101,0.021c0.264,1.337 0.621,2.659 1.06,3.952c-0.98,-1.474 -2.121,-2.915 -3.782,-3.459l-0.033,-0.012Z" style="fill:#3a4d57;fill-rule:nonzero;"/><path d="M46.101,20.099c-1.338,-0.8 -1.985,-2.218 -2.095,-3.746c-0.091,-1.27 0.262,-2.572 1.479,-3.209c0.977,-0.512 2.487,-0.59 3.448,-0.106c1.514,0.764 2.225,2.704 1.854,4.324c-0.551,2.398 -4.561,3.891 -5.962,1.395c-0.136,-0.24 -0.595,-0.146 -0.501,0.158c0.854,2.761 4.653,1.897 6.195,0.237c1.546,-1.661 1.056,-4.777 -0.618,-6.185c-1.803,-1.517 -5.319,-0.997 -6.237,1.299c-0.841,2.104 0.061,5.297 2.267,6.155c0.19,0.074 0.353,-0.212 0.17,-0.322Z" style="fill:#966c4f;fill-rule:nonzero;"/><path d="M38.281,23.852c-1.669,0.642 -3.686,1.104 -5.035,-0.418c-1.31,-1.478 -1.605,-3.949 -0.109,-5.384c1.314,-1.261 3.693,-1.601 5.232,-0.53c1.083,0.753 1.243,1.924 1.252,3.131c0.01,1.297 -0.32,2.296 -1.432,3.032c-0.326,0.216 -0.054,0.743 0.296,0.542c2.074,-1.186 2.506,-4.311 1.193,-6.286c-1.363,-2.051 -4.589,-2.024 -6.439,-0.72c-2.119,1.493 -2.119,4.225 -0.701,6.226c1.418,2 3.98,1.932 5.855,0.611c0.124,-0.087 0.028,-0.257 -0.112,-0.204Z" style="fill:#966c4f;fill-rule:nonzero;"/><path d="M39.803,18.65c0.613,-1.569 2.127,-2.409 3.684,-1.46c0.331,0.201 0.681,-0.28 0.351,-0.497c-1.642,-1.082 -4.181,-0.241 -4.331,1.889c-0.012,0.172 0.232,0.233 0.296,0.068Z" style="fill:#966c4f;fill-rule:nonzero;"/><path d="M50.323,14.238c0.854,0.041 1.7,-0.382 2.504,-0.644c0.937,-0.305 1.887,-0.568 2.824,-0.872c0.305,-0.099 0.234,-0.581 -0.098,-0.506c-1.086,0.245 -2.161,0.571 -3.227,0.892c-0.712,0.214 -1.521,0.384 -2.095,0.872c-0.098,0.084 -0.033,0.252 0.092,0.258Z" style="fill:#966c4f;fill-rule:nonzero;"/><path d="M25.211,22.676c0.972,-0.212 1.908,-0.609 2.846,-0.939c1.224,-0.431 2.539,-0.719 3.718,-1.256c0.317,-0.144 0.146,-0.662 -0.198,-0.584c-1.055,0.241 -2.059,0.73 -3.076,1.103c-1.139,0.419 -2.336,0.786 -3.396,1.382c-0.153,0.086 -0.072,0.333 0.106,0.294Z" style="fill:#966c4f;fill-rule:nonzero;"/><path d="M41.433,20.972c-0.046,0 -0.093,-0.007 -0.097,-0.022c-0.1,-0.374 -0.194,-0.737 -0.242,-1.1c-0.047,-0.365 -0.057,-0.727 0.045,-1.117c0.009,-0.025 0.134,-0.05 0.206,-0.05c0.025,0 0.043,0.003 0.048,0.01c0.217,0.348 0.302,0.729 0.314,1.112c0.01,0.384 -0.06,0.771 -0.177,1.146c-0.005,0.014 -0.051,0.021 -0.097,0.021Z" style="fill:#fcecd5;fill-rule:nonzero;"/><path d="M56.939,16.916c0,0 0.064,-0.031 0.149,-0.112c0.091,-0.068 0.182,-0.209 0.25,-0.361c0.074,-0.154 0.065,-0.342 0.014,-0.506c-0.028,-0.083 -0.067,-0.161 -0.115,-0.227c-0.051,-0.07 -0.096,-0.104 -0.183,-0.174c-0.079,-0.076 -0.203,-0.168 -0.324,-0.319c-0.124,-0.156 -0.2,-0.342 -0.224,-0.52c-0.056,-0.365 0.093,-0.681 0.291,-0.889c0.207,-0.208 0.472,-0.209 0.614,-0.163c0.148,0.068 0.166,0.151 0.169,0.146c0.003,0.003 -0.082,-0.027 -0.173,0.031c-0.09,0.037 -0.166,0.175 -0.202,0.29c-0.037,0.113 -0.001,0.292 0.053,0.417c0.032,0.065 0.065,0.121 0.108,0.167c0.046,0.054 0.133,0.127 0.25,0.232c0.112,0.108 0.238,0.284 0.301,0.451c0.067,0.17 0.093,0.347 0.083,0.514c-0.012,0.338 -0.198,0.615 -0.369,0.774c-0.177,0.168 -0.377,0.211 -0.495,0.24c-0.129,0.015 -0.197,0.009 -0.197,0.009Z" style="fill:#d7b58d;fill-rule:nonzero;"/><path d="M27.662,26.155c0,0 -0.061,0.035 -0.186,0.077c-0.124,0.03 -0.329,0.079 -0.575,0.001c-0.236,-0.079 -0.527,-0.274 -0.671,-0.604c-0.071,-0.163 -0.1,-0.356 -0.082,-0.551c0.02,-0.189 0.067,-0.331 0.079,-0.43c0.02,-0.104 0.017,-0.124 0.002,-0.175c-0.014,-0.049 -0.049,-0.106 -0.091,-0.154c-0.086,-0.087 -0.19,-0.161 -0.338,-0.117c-0.131,0.04 -0.281,0.12 -0.345,0.216c-0.078,0.091 -0.096,0.169 -0.096,0.169c0,0 -0.04,-0.063 -0.058,-0.211c-0.001,-0.135 0.021,-0.385 0.244,-0.575c0.109,-0.089 0.256,-0.177 0.443,-0.203c0.186,-0.027 0.391,0.013 0.561,0.116c0.173,0.099 0.324,0.254 0.412,0.459c0.043,0.102 0.074,0.216 0.078,0.336c0.006,0.115 -0.01,0.216 -0.028,0.305c-0.046,0.172 -0.097,0.293 -0.117,0.376c-0.021,0.076 -0.028,0.158 -0.022,0.245c0.005,0.174 0.067,0.366 0.201,0.477c0.125,0.121 0.281,0.204 0.398,0.223c0.118,0.03 0.191,0.02 0.191,0.02Z" style="fill:#d7b58d;fill-rule:nonzero;"/><path d="M47.548,16.322c-0.152,-0.213 -0.265,-0.422 -0.359,-0.643c-0.086,-0.224 -0.177,-0.444 -0.233,-0.705l0.073,-0.049c0.222,0.154 0.376,0.371 0.501,0.598c0.117,0.232 0.18,0.492 0.158,0.761l-0.14,0.038Z" style="fill:#4f6b77;fill-rule:nonzero;"/><path d="M35.722,21.006c-0.133,-0.204 -0.252,-0.395 -0.339,-0.601c-0.091,-0.205 -0.164,-0.421 -0.236,-0.656l0.08,-0.057c0.2,0.148 0.367,0.34 0.482,0.558c0.116,0.217 0.164,0.469 0.15,0.72l-0.137,0.036Z" style="fill:#4f6b77;fill-rule:nonzero;"/><path d="M25.405,8.75c-0.261,0.417 -0.471,0.862 -0.661,1.312c-0.183,0.455 -0.325,0.923 -0.444,1.397c-0.221,0.953 -0.324,1.93 -0.32,2.91c-0.002,0.975 0.093,1.962 0.265,2.927c0.173,0.97 0.411,1.931 0.7,2.877c0.044,0.147 -0.039,0.18 -0.094,0.032c-0.345,-0.931 -0.649,-1.882 -0.865,-2.858c-0.108,-0.49 -0.195,-0.98 -0.254,-1.477c-0.063,-0.5 -0.096,-1 -0.096,-1.502c-0.004,-1.004 0.119,-2.011 0.383,-2.982c0.273,-0.967 0.692,-1.898 1.282,-2.706c0.097,-0.138 0.183,-0.065 0.104,0.07Z" style="fill:#4f6b77;fill-rule:nonzero;"/><path d="M25.135,14.408c-0.003,1.121 0.085,2.235 0.258,3.336c0.171,1.101 0.432,2.19 0.804,3.25c0.028,0.083 -0.049,0.115 -0.085,0.034c-0.464,-1.029 -0.809,-2.12 -1.001,-3.239c-0.189,-1.119 -0.221,-2.266 -0.088,-3.388c0.011,-0.094 0.111,-0.082 0.112,0.007Z" style="fill:#4f6b77;fill-rule:nonzero;"/><path d="M28.771,15.529c-0.125,-0.833 -0.147,-1.681 -0.103,-2.524c0.046,-0.844 0.168,-1.685 0.363,-2.509c0.195,-0.823 0.462,-1.629 0.797,-2.405c0.334,-0.773 0.736,-1.525 1.203,-2.219c0.07,-0.109 0.145,-0.07 0.081,0.048c-0.408,0.734 -0.763,1.484 -1.062,2.263c-0.298,0.777 -0.54,1.574 -0.725,2.383c-0.185,0.809 -0.314,1.631 -0.387,2.459c-0.076,0.827 -0.083,1.659 -0.061,2.494c0.002,0.14 -0.088,0.142 -0.106,0.01Z" style="fill:#4f6b77;fill-rule:nonzero;"/><path d="M31.131,14.403c-0.238,-0.492 -0.379,-1.028 -0.467,-1.57c-0.079,-0.544 -0.088,-1.1 -0.028,-1.647c0.06,-0.548 0.187,-1.087 0.378,-1.601c0.192,-0.511 0.45,-1.005 0.756,-1.448c0.046,-0.069 0.117,-0.031 0.077,0.046c-0.261,0.474 -0.459,0.965 -0.607,1.477c-0.15,0.51 -0.247,1.032 -0.295,1.558c-0.047,0.526 -0.045,1.055 0.005,1.581c0.042,0.528 0.151,1.047 0.28,1.568c0.02,0.088 -0.063,0.114 -0.099,0.036Z" style="fill:#4f6b77;fill-rule:nonzero;"/><path d="M36.403,5.104c-0.312,1.021 -0.481,2.075 -0.498,3.134c-0.009,0.529 0.02,1.059 0.089,1.585c0.068,0.528 0.167,1.048 0.319,1.565c0.022,0.08 -0.051,0.107 -0.082,0.027c-0.196,-0.499 -0.356,-1.025 -0.455,-1.558c-0.1,-0.534 -0.149,-1.079 -0.145,-1.623c0.009,-1.089 0.229,-2.18 0.67,-3.168c0.035,-0.084 0.126,-0.043 0.102,0.038Z" style="fill:#4f6b77;fill-rule:nonzero;"/><path d="M39.913,4.307c-0.082,1.024 -0.093,2.047 -0.023,3.067c0.073,1.018 0.219,2.034 0.461,3.035c0.018,0.078 -0.055,0.101 -0.082,0.023c-0.345,-0.975 -0.574,-2 -0.656,-3.038c-0.083,-1.038 -0.028,-2.089 0.185,-3.104c0.017,-0.085 0.12,-0.065 0.115,0.017Z" style="fill:#4f6b77;fill-rule:nonzero;"/><path d="M44.594,8.456c-0.198,-0.793 -0.434,-1.571 -0.707,-2.335c-0.137,-0.382 -0.285,-0.76 -0.445,-1.134c-0.159,-0.375 -0.338,-0.74 -0.504,-1.115l0.08,-0.043c0.013,0.06 0.04,0.112 0.06,0.169l0.073,0.162c0.028,0.062 -0.002,0.079 -0.035,0.017l-0.084,-0.157c-0.032,-0.05 -0.057,-0.104 -0.097,-0.151l0.083,-0.044c0.244,0.334 0.445,0.697 0.633,1.065c0.187,0.369 0.354,0.748 0.498,1.137c0.288,0.776 0.478,1.59 0.555,2.411c-0.002,0.075 -0.084,0.084 -0.11,0.018Z" style="fill:#4f6b77;fill-rule:nonzero;"/><path d="M49.131,8.041c-0.387,-0.939 -0.855,-1.835 -1.41,-2.676c-0.555,-0.839 -1.189,-1.631 -1.921,-2.338c-0.056,-0.055 -0.004,-0.116 0.058,-0.065c0.8,0.638 1.518,1.395 2.095,2.25c0.576,0.855 1.019,1.803 1.278,2.795c0.023,0.083 -0.069,0.108 -0.1,0.034Z" style="fill:#4f6b77;fill-rule:nonzero;"/><path d="M49.593,4.352c-0.3,-0.273 -0.581,-0.562 -0.833,-0.876c-0.251,-0.314 -0.487,-0.641 -0.7,-0.986l0.062,-0.052c0.297,0.277 0.575,0.569 0.838,0.873c0.264,0.303 0.498,0.631 0.711,0.976c0.018,0.029 -0.054,0.087 -0.078,0.065Z" style="fill:#4f6b77;fill-rule:nonzero;"/><path d="M45.703,52.12c-0.002,0 -0.006,-0.009 -0.011,-0.027c-0.083,0.008 -0.149,0.011 -0.197,0.011c-0.182,0 -0.117,-0.047 0.177,-0.101c-0.017,-0.085 -0.039,-0.218 -0.065,-0.399c-0.681,-4.681 -1.248,-9.379 -1.72,-14.084l-0.007,-0.063l0.062,-0.015c1.686,-0.421 3.336,-0.985 4.924,-1.679l0.081,-0.035l0.043,0.078c1.147,2.096 2.323,4.176 3.528,6.237c0.602,1.031 1.213,2.057 1.834,3.077c0.621,1.018 1.242,2.037 1.882,3.043l0.077,0.119l-0.137,0.043c-1.143,0.351 -2.285,0.703 -3.424,1.053l-0.093,0.029l-0.04,-0.089l-1.653,-3.702c-0.072,-0.143 -0.163,-0.275 -0.287,-0.341c-0.071,-0.039 -0.154,-0.054 -0.242,-0.054c-0.064,0 -0.132,0.008 -0.2,0.019l-0.994,0.187c-0.658,0.13 -1.341,0.242 -1.98,0.384c-0.15,0.045 -0.279,0.126 -0.326,0.256c-0.05,0.131 -0.028,0.294 0.002,0.456l0.184,0.996l0.368,1.993c0.118,0.67 0.256,1.315 0.356,2.006c0,0.096 -0.038,0.205 -0.131,0.267c-0.087,0.058 -0.18,0.072 -0.265,0.085l-0.503,0.066l-1.004,0.13c-0.09,0.011 -0.168,0.02 -0.235,0.026c0,0.019 -0.001,0.028 -0.004,0.028Zm-1.663,-14.55c0.438,4.69 0.983,9.366 1.614,14.027c0.024,0.179 0.04,0.313 0.047,0.401c0.066,-0.012 0.141,-0.023 0.227,-0.035l1.004,-0.137l0.502,-0.068c0.165,-0.016 0.306,-0.084 0.296,-0.242c-0.101,-0.645 -0.25,-1.321 -0.372,-1.98l-0.385,-1.99l-0.193,-0.996c-0.03,-0.166 -0.066,-0.352 0.002,-0.543c0.071,-0.196 0.264,-0.307 0.431,-0.356c0.677,-0.155 1.331,-0.261 1.999,-0.392l0.998,-0.187c0.071,-0.011 0.147,-0.02 0.225,-0.02c0.108,0 0.22,0.017 0.324,0.073c0.177,0.095 0.281,0.26 0.361,0.414l1.656,3.603l3.202,-0.984l-1.8,-2.937l-1.833,-3.081c-1.193,-2.036 -2.354,-4.091 -3.483,-6.163c-1.561,0.663 -3.176,1.195 -4.822,1.593Z" style="fill:#fbbb90;fill-rule:nonzero;"/><path d="M47.015,43.653c-0.014,0 -0.028,-0.028 -0.029,-0.084c-0.012,-1.13 -0.015,-2.26 -0.009,-3.389l0.002,-0.251l0.154,0.201c0.339,0.442 0.663,0.896 0.97,1.361c0.154,0.232 0.303,0.468 0.449,0.705l0.427,0.717l0.054,0.091l-0.102,0.034c-0.591,0.194 -1.184,0.376 -1.781,0.548c-0.017,0.004 -0.033,0.007 -0.046,0.007c-0.073,0 -0.075,-0.067 0.015,-0.102c0.551,-0.203 1.105,-0.397 1.663,-0.581c-0.262,-0.448 -0.543,-0.886 -0.831,-1.319c-0.26,-0.389 -0.529,-0.773 -0.805,-1.152c-0.023,1.044 -0.057,2.088 -0.099,3.13c-0.002,0.056 -0.017,0.084 -0.032,0.084Z" style="fill:#fbbb90;fill-rule:nonzero;"/></g></svg>